<svg width="22" height="22" viewBox="0 0 22 22" fill="none" xmlns="http://www.w3.org/2000/svg">
<path d="M2.05244 18.3601L2.70066 18.5892H2.70066L2.05244 18.3601ZM3.45608 19.7638L3.68514 20.412H3.68514L3.45608 19.7638ZM6.56169 19.0224L6.22834 19.6237L6.56169 19.0224ZM2.90337 15.952L2.25515 15.7229L2.90337 15.952ZM2.52082 11C2.52082 6.31704 6.31708 2.52079 11 2.52079V1.14579C5.55768 1.14579 1.14582 5.55765 1.14582 11H2.52082ZM3.45404 14.8713C2.85772 13.7115 2.52082 12.3961 2.52082 11H1.14582C1.14582 12.6198 1.53722 14.1503 2.23121 15.5001L3.45404 14.8713ZM2.70066 18.5892L3.55159 16.181L2.25515 15.7229L1.40422 18.1311L2.70066 18.5892ZM3.22703 19.1155C2.90007 19.2311 2.58513 18.9161 2.70066 18.5892L1.40422 18.1311C0.903584 19.5479 2.26834 20.9126 3.68514 20.412L3.22703 19.1155ZM5.53944 18.2984L3.22703 19.1155L3.68514 20.412L5.99755 19.5949L5.53944 18.2984ZM11 19.4791C9.50945 19.4791 8.11067 19.0951 6.89505 18.4212L6.22834 19.6237C7.64275 20.4079 9.27029 20.8541 11 20.8541V19.4791ZM19.4792 11C19.4792 15.6829 15.6829 19.4791 11 19.4791V20.8541C16.4423 20.8541 20.8542 16.4423 20.8542 11H19.4792ZM11 2.52079C15.6829 2.52079 19.4792 6.31704 19.4792 11H20.8542C20.8542 5.55765 16.4423 1.14579 11 1.14579V2.52079ZM5.99755 19.5949C6.05758 19.5737 6.1418 19.5757 6.22834 19.6237L6.89505 18.4212C6.49574 18.1998 6.00319 18.1346 5.53944 18.2984L5.99755 19.5949ZM2.23121 15.5001C2.27462 15.5845 2.27557 15.6652 2.25515 15.7229L3.55159 16.181C3.70914 15.7352 3.65488 15.262 3.45404 14.8713L2.23121 15.5001Z" fill="#2F667F"/>
<circle cx="6.46249" cy="11.0457" r="1.14583" fill="#2F667F"/>
<circle cx="11.0458" cy="11.0457" r="1.14583" fill="#2F667F"/>
<circle cx="15.6292" cy="11.0457" r="1.14583" fill="#2F667F"/>
</svg>
