<svg width="208" height="135" viewBox="0 0 208 135" fill="none" xmlns="http://www.w3.org/2000/svg">
<g filter="url(#filter0_d_1_1938)">
<g clip-path="url(#clip0_1_1938)">
<path fill-rule="evenodd" clip-rule="evenodd" d="M0 7.90875C0 3.54087 3.54087 0 7.90875 0L200.091 0C204.459 0 208 3.54087 208 7.90875V126.54C208 130.908 204.459 134.449 200.091 134.449H7.90873C3.54085 134.449 0 130.908 0 126.54L0 7.90875Z" fill="#FF4F52"/>
<mask id="mask0_1_1938" style="mask-type:luminance" maskUnits="userSpaceOnUse" x="0" y="0" width="208" height="135">
<path fill-rule="evenodd" clip-rule="evenodd" d="M0 7.90875C0 3.54087 3.54087 0 7.90875 0L200.091 0C204.459 0 208 3.54087 208 7.90875V126.54C208 130.908 204.459 134.449 200.091 134.449H7.90873C3.54085 134.449 0 130.908 0 126.54L0 7.90875Z" fill="white"/>
</mask>
<g mask="url(#mask0_1_1938)">
<path d="M62.2368 65.421L82.9243 45.4997L93.4662 60.5596L93.6001 60.7509L93.8164 60.8388L113.724 68.9265L123.63 78.086L123.671 78.1238L123.717 78.1556L133.999 85.2734L134.358 85.5224L134.76 85.3501L145.669 80.6751L165.662 81.444L185.999 110.386L186.199 110.67L186.544 110.715L208.952 113.65L208.797 135.239H-0.790858V19.5525L20.0613 31.468L51.0209 65.6132L51.2636 65.8809L51.6248 65.8726L61.7063 65.642L62.0146 65.6349L62.2368 65.421Z" fill="#DE373A" fill-opacity="0.5" stroke="#DE373A" stroke-width="1.5804"/>
<path d="M20.1989 109.844V108.857H22.173V115.776H21.0816V109.844H20.1989ZM24.9879 114.475L23.8396 117.095H23.1373L23.8111 114.475H24.9879ZM30.2515 109.787H27.0721V111.676C27.205 111.499 27.4011 111.35 27.6605 111.23C27.9263 111.109 28.2078 111.049 28.5052 111.049C29.0367 111.049 29.4669 111.163 29.7959 111.391C30.1312 111.619 30.3685 111.907 30.5077 112.255C30.6532 112.603 30.726 112.97 30.726 113.356C30.726 113.824 30.6342 114.241 30.4508 114.608C30.2736 114.969 30.0047 115.254 29.6441 115.462C29.2897 115.671 28.8532 115.776 28.3344 115.776C27.6447 115.776 27.0911 115.605 26.6735 115.263C26.256 114.921 26.006 114.469 25.9238 113.906H26.9772C27.0468 114.203 27.2018 114.441 27.4423 114.618C27.6827 114.789 27.9832 114.874 28.3439 114.874C28.7931 114.874 29.1284 114.738 29.3499 114.466C29.5776 114.194 29.6915 113.833 29.6915 113.384C29.6915 112.928 29.5776 112.581 29.3499 112.34C29.1221 112.093 28.7868 111.97 28.3439 111.97C28.0338 111.97 27.7713 112.049 27.5562 112.207C27.3474 112.359 27.1955 112.568 27.1006 112.834H26.0756V108.838H30.2515V109.787ZM35.5725 110.461C35.5029 110.17 35.3764 109.952 35.1929 109.806C35.0094 109.661 34.7532 109.588 34.4242 109.588C33.9243 109.588 33.551 109.781 33.3043 110.167C33.0575 110.546 32.9278 111.179 32.9152 112.065C33.0797 111.786 33.3201 111.571 33.6364 111.42C33.9528 111.268 34.2945 111.192 34.6614 111.192C35.079 111.192 35.446 111.283 35.7623 111.467C36.085 111.644 36.3349 111.904 36.5121 112.245C36.6955 112.587 36.7873 112.995 36.7873 113.469C36.7873 113.912 36.6987 114.308 36.5216 114.656C36.3507 115.004 36.0945 115.279 35.7528 115.481C35.4112 115.678 34.9999 115.776 34.5191 115.776C33.8674 115.776 33.3549 115.633 32.9816 115.349C32.6146 115.058 32.3552 114.649 32.2034 114.124C32.0579 113.599 31.9851 112.944 31.9851 112.16C31.9851 109.844 32.8013 108.686 34.4336 108.686C35.0663 108.686 35.563 108.857 35.9237 109.199C36.2906 109.54 36.5057 109.961 36.569 110.461H35.5725ZM34.4242 112.103C34.0382 112.103 33.7092 112.22 33.4371 112.454C33.1714 112.682 33.0385 113.014 33.0385 113.45C33.0385 113.887 33.1619 114.235 33.4087 114.494C33.6618 114.748 34.0129 114.874 34.4621 114.874C34.8607 114.874 35.1739 114.751 35.4017 114.504C35.6358 114.257 35.7528 113.928 35.7528 113.517C35.7528 113.087 35.6389 112.745 35.4112 112.492C35.1897 112.233 34.8607 112.103 34.4242 112.103ZM41.6616 110.461C41.592 110.17 41.4655 109.952 41.282 109.806C41.0985 109.661 40.8423 109.588 40.5133 109.588C40.0134 109.588 39.6401 109.781 39.3934 110.167C39.1466 110.546 39.0169 111.179 39.0043 112.065C39.1688 111.786 39.4092 111.571 39.7256 111.42C40.0419 111.268 40.3836 111.192 40.7505 111.192C41.1681 111.192 41.5351 111.283 41.8514 111.467C42.1741 111.644 42.424 111.904 42.6012 112.245C42.7847 112.587 42.8764 112.995 42.8764 113.469C42.8764 113.912 42.7878 114.308 42.6107 114.656C42.4398 115.004 42.1836 115.279 41.8419 115.481C41.5003 115.678 41.089 115.776 40.6082 115.776C39.9565 115.776 39.444 115.633 39.0707 115.349C38.7038 115.058 38.4443 114.649 38.2925 114.124C38.147 113.599 38.0742 112.944 38.0742 112.16C38.0742 109.844 38.8904 108.686 40.5228 108.686C41.1555 108.686 41.6521 108.857 42.0128 109.199C42.3797 109.54 42.5949 109.961 42.6581 110.461H41.6616ZM40.5133 112.103C40.1273 112.103 39.7983 112.22 39.5263 112.454C39.2605 112.682 39.1277 113.014 39.1277 113.45C39.1277 113.887 39.251 114.235 39.4978 114.494C39.7509 114.748 40.102 114.874 40.5512 114.874C40.9498 114.874 41.263 114.751 41.4908 114.504C41.7249 114.257 41.8419 113.928 41.8419 113.517C41.8419 113.087 41.7281 112.745 41.5003 112.492C41.2788 112.233 40.9498 112.103 40.5133 112.103ZM50.1686 112.388C50.5229 112.451 50.8234 112.637 51.0702 112.947C51.3169 113.257 51.4403 113.609 51.4403 114.001C51.4403 114.336 51.3517 114.64 51.1746 114.912C51.0038 115.178 50.7538 115.39 50.4248 115.548C50.0958 115.7 49.713 115.776 49.2765 115.776H46.6381V109.18H49.1531C49.6023 109.18 49.9883 109.256 50.3109 109.408C50.6336 109.559 50.8772 109.765 51.0417 110.024C51.2062 110.277 51.2885 110.562 51.2885 110.879C51.2885 111.258 51.1872 111.575 50.9848 111.828C50.7823 112.081 50.5102 112.267 50.1686 112.388ZM47.72 111.951H49.0582C49.4125 111.951 49.6877 111.872 49.8839 111.714C50.0863 111.549 50.1876 111.315 50.1876 111.011C50.1876 110.714 50.0863 110.483 49.8839 110.319C49.6877 110.148 49.4125 110.062 49.0582 110.062H47.72V111.951ZM49.1816 114.893C49.5485 114.893 49.8364 114.804 50.0452 114.627C50.254 114.45 50.3584 114.203 50.3584 113.887C50.3584 113.564 50.2477 113.308 50.0262 113.118C49.8048 112.928 49.5106 112.834 49.1436 112.834H47.72V114.893H49.1816ZM56.8773 109.18V110.062H55.1215V115.776H54.0396V110.062H52.2744V109.18H56.8773ZM57.6123 112.463C57.6123 111.818 57.761 111.239 58.0584 110.727C58.3621 110.214 58.7702 109.816 59.2827 109.531C59.8015 109.24 60.3677 109.094 60.9815 109.094C61.6837 109.094 62.307 109.268 62.8511 109.616C63.4015 109.958 63.8001 110.445 64.0469 111.078H62.7467C62.5759 110.73 62.3386 110.47 62.0349 110.3C61.7312 110.129 61.3801 110.043 60.9815 110.043C60.5449 110.043 60.1558 110.141 59.8141 110.338C59.4725 110.534 59.2036 110.815 59.0074 111.182C58.8176 111.549 58.7227 111.976 58.7227 112.463C58.7227 112.951 58.8176 113.378 59.0074 113.745C59.2036 114.112 59.4725 114.396 59.8141 114.599C60.1558 114.795 60.5449 114.893 60.9815 114.893C61.3801 114.893 61.7312 114.808 62.0349 114.637C62.3386 114.466 62.5759 114.207 62.7467 113.859H64.0469C63.8001 114.491 63.4015 114.978 62.8511 115.32C62.307 115.662 61.6837 115.833 60.9815 115.833C60.3614 115.833 59.7951 115.69 59.2827 115.406C58.7702 115.114 58.3621 114.713 58.0584 114.2C57.761 113.688 57.6123 113.109 57.6123 112.463Z" fill="#FFC4C9"/>
<path opacity="0.85" d="M25.2858 86.5592V87.6221H20.7352V86.5592H25.2858ZM26.913 86.9578C26.913 85.6808 27.1271 84.6843 27.5552 83.9683C27.9907 83.2449 28.7363 82.8832 29.7918 82.8832C30.8474 82.8832 31.5892 83.2449 32.0173 83.9683C32.4528 84.6843 32.6706 85.6808 32.6706 86.9578C32.6706 88.2496 32.4528 89.2608 32.0173 89.9916C31.5892 90.715 30.8474 91.0767 29.7918 91.0767C28.7363 91.0767 27.9907 90.715 27.5552 89.9916C27.1271 89.2608 26.913 88.2496 26.913 86.9578ZM31.4305 86.9578C31.4305 86.3599 31.3899 85.8543 31.3087 85.4409C31.2349 85.0275 31.0799 84.6917 30.8437 84.4333C30.6075 84.1676 30.2569 84.0347 29.7918 84.0347C29.3268 84.0347 28.9762 84.1676 28.74 84.4333C28.5037 84.6917 28.345 85.0275 28.2638 85.4409C28.19 85.8543 28.1531 86.3599 28.1531 86.9578C28.1531 87.5779 28.19 88.0982 28.2638 88.519C28.3377 88.9397 28.4927 89.2793 28.7289 89.5376C28.9725 89.796 29.3268 89.9252 29.7918 89.9252C30.2569 89.9252 30.6075 89.796 30.8437 89.5376C31.0873 89.2793 31.246 88.9397 31.3198 88.519C31.3936 88.0982 31.4305 87.5779 31.4305 86.9578ZM34.6816 91.1763C34.4528 91.1763 34.2609 91.0988 34.1058 90.9438C33.9508 90.7888 33.8733 90.5969 33.8733 90.3681C33.8733 90.1392 33.9508 89.9473 34.1058 89.7923C34.2609 89.6373 34.4528 89.5598 34.6816 89.5598C34.903 89.5598 35.0913 89.6373 35.2463 89.7923C35.4013 89.9473 35.4788 90.1392 35.4788 90.3681C35.4788 90.5969 35.4013 90.7888 35.2463 90.9438C35.0913 91.0988 34.903 91.1763 34.6816 91.1763ZM36.6769 86.9578C36.6769 85.6808 36.891 84.6843 37.3191 83.9683C37.7546 83.2449 38.5002 82.8832 39.5557 82.8832C40.6113 82.8832 41.3531 83.2449 41.7812 83.9683C42.2168 84.6843 42.4345 85.6808 42.4345 86.9578C42.4345 88.2496 42.2168 89.2608 41.7812 89.9916C41.3531 90.715 40.6113 91.0767 39.5557 91.0767C38.5002 91.0767 37.7546 90.715 37.3191 89.9916C36.891 89.2608 36.6769 88.2496 36.6769 86.9578ZM41.1944 86.9578C41.1944 86.3599 41.1538 85.8543 41.0726 85.4409C40.9988 85.0275 40.8438 84.6917 40.6076 84.4333C40.3714 84.1676 40.0208 84.0347 39.5557 84.0347C39.0907 84.0347 38.7401 84.1676 38.5039 84.4333C38.2677 84.6917 38.1089 85.0275 38.0278 85.4409C37.9539 85.8543 37.917 86.3599 37.917 86.9578C37.917 87.5779 37.9539 88.0982 38.0278 88.519C38.1016 88.9397 38.2566 89.2793 38.4928 89.5376C38.7364 89.796 39.0907 89.9252 39.5557 89.9252C40.0208 89.9252 40.3714 89.796 40.6076 89.5376C40.8512 89.2793 41.0099 88.9397 41.0837 88.519C41.1575 88.0982 41.1944 87.5779 41.1944 86.9578ZM43.7701 86.9578C43.7701 85.6808 43.9842 84.6843 44.4123 83.9683C44.8478 83.2449 45.5933 82.8832 46.6489 82.8832C47.7044 82.8832 48.4463 83.2449 48.8744 83.9683C49.3099 84.6843 49.5277 85.6808 49.5277 86.9578C49.5277 88.2496 49.3099 89.2608 48.8744 89.9916C48.4463 90.715 47.7044 91.0767 46.6489 91.0767C45.5933 91.0767 44.8478 90.715 44.4123 89.9916C43.9842 89.2608 43.7701 88.2496 43.7701 86.9578ZM48.2876 86.9578C48.2876 86.3599 48.247 85.8543 48.1658 85.4409C48.092 85.0275 47.9369 84.6917 47.7007 84.4333C47.4645 84.1676 47.1139 84.0347 46.6489 84.0347C46.1838 84.0347 45.8332 84.1676 45.597 84.4333C45.3608 84.6917 45.2021 85.0275 45.1209 85.4409C45.0471 85.8543 45.0102 86.3599 45.0102 86.9578C45.0102 87.5779 45.0471 88.0982 45.1209 88.519C45.1947 88.9397 45.3497 89.2793 45.5859 89.5376C45.8295 89.796 46.1838 89.9252 46.6489 89.9252C47.1139 89.9252 47.4645 89.796 47.7007 89.5376C47.9443 89.2793 48.103 88.9397 48.1768 88.519C48.2507 88.0982 48.2876 87.5779 48.2876 86.9578ZM50.8632 86.9578C50.8632 85.6808 51.0773 84.6843 51.5054 83.9683C51.9409 83.2449 52.6865 82.8832 53.742 82.8832C54.7976 82.8832 55.5394 83.2449 55.9676 83.9683C56.4031 84.6843 56.6208 85.6808 56.6208 86.9578C56.6208 88.2496 56.4031 89.2608 55.9676 89.9916C55.5394 90.715 54.7976 91.0767 53.742 91.0767C52.6865 91.0767 51.9409 90.715 51.5054 89.9916C51.0773 89.2608 50.8632 88.2496 50.8632 86.9578ZM55.3807 86.9578C55.3807 86.3599 55.3401 85.8543 55.2589 85.4409C55.1851 85.0275 55.0301 84.6917 54.7939 84.4333C54.5577 84.1676 54.2071 84.0347 53.742 84.0347C53.277 84.0347 52.9264 84.1676 52.6902 84.4333C52.454 84.6917 52.2953 85.0275 52.2141 85.4409C52.1402 85.8543 52.1033 86.3599 52.1033 86.9578C52.1033 87.5779 52.1402 88.0982 52.2141 88.519C52.2879 88.9397 52.4429 89.2793 52.6791 89.5376C52.9227 89.796 53.277 89.9252 53.742 89.9252C54.2071 89.9252 54.5577 89.796 54.7939 89.5376C55.0375 89.2793 55.1962 88.9397 55.27 88.519C55.3438 88.0982 55.3807 87.5779 55.3807 86.9578ZM63.1604 84.1122H59.4512V86.3156C59.6062 86.1089 59.835 85.9355 60.1376 85.7952C60.4477 85.655 60.7761 85.5849 61.1231 85.5849C61.7431 85.5849 62.2451 85.7177 62.6289 85.9835C63.0201 86.2492 63.2969 86.585 63.4593 86.991C63.6291 87.397 63.714 87.8251 63.714 88.2754C63.714 88.8216 63.6069 89.3088 63.3929 89.7369C63.1862 90.1577 62.8725 90.4899 62.4517 90.7334C62.0384 90.977 61.529 91.0988 60.9238 91.0988C60.1192 91.0988 59.4733 90.8995 58.9861 90.5009C58.4989 90.1023 58.2074 89.5745 58.1114 88.9176H59.3404C59.4216 89.2645 59.6025 89.5413 59.883 89.748C60.1635 89.9473 60.5141 90.047 60.9348 90.047C61.4589 90.047 61.8501 89.8883 62.1085 89.5709C62.3742 89.2535 62.5071 88.8327 62.5071 88.3086C62.5071 87.7772 62.3742 87.3712 62.1085 87.0907C61.8428 86.8028 61.4515 86.6589 60.9348 86.6589C60.5731 86.6589 60.2668 86.7511 60.0158 86.9357C59.7723 87.1128 59.5951 87.3564 59.4844 87.6664H58.2886V83.005H63.1604V84.1122ZM65.0279 86.9578C65.0279 85.6808 65.242 84.6843 65.6701 83.9683C66.1056 83.2449 66.8512 82.8832 67.9067 82.8832C68.9623 82.8832 69.7041 83.2449 70.1322 83.9683C70.5677 84.6843 70.7855 85.6808 70.7855 86.9578C70.7855 88.2496 70.5677 89.2608 70.1322 89.9916C69.7041 90.715 68.9623 91.0767 67.9067 91.0767C66.8512 91.0767 66.1056 90.715 65.6701 89.9916C65.242 89.2608 65.0279 88.2496 65.0279 86.9578ZM69.5454 86.9578C69.5454 86.3599 69.5048 85.8543 69.4236 85.4409C69.3498 85.0275 69.1948 84.6917 68.9586 84.4333C68.7224 84.1676 68.3718 84.0347 67.9067 84.0347C67.4417 84.0347 67.0911 84.1676 66.8549 84.4333C66.6186 84.6917 66.4599 85.0275 66.3787 85.4409C66.3049 85.8543 66.268 86.3599 66.268 86.9578C66.268 87.5779 66.3049 88.0982 66.3787 88.519C66.4526 88.9397 66.6076 89.2793 66.8438 89.5376C67.0874 89.796 67.4417 89.9252 67.9067 89.9252C68.3718 89.9252 68.7224 89.796 68.9586 89.5376C69.2022 89.2793 69.3609 88.9397 69.4347 88.519C69.5085 88.0982 69.5454 87.5779 69.5454 86.9578ZM71.9661 89.4158V88.4636L75.6864 83.1268H77.2143V88.3197H78.244V89.4158H77.2143V91.0988H75.9742V89.4158H71.9661ZM76.0296 84.4112L73.4165 88.3197H76.0296V84.4112ZM79.2678 85.0202C79.3121 84.3337 79.5741 83.7985 80.0539 83.4147C80.5411 83.0309 81.1611 82.8389 81.9141 82.8389C82.4308 82.8389 82.8773 82.9312 83.2538 83.1157C83.6303 83.3003 83.9144 83.5512 84.1064 83.8687C84.2983 84.1861 84.3942 84.5441 84.3942 84.9427C84.3942 85.4003 84.2724 85.7915 84.0289 86.1163C83.7853 86.4411 83.4937 86.6589 83.1541 86.7696V86.8139C83.5897 86.9467 83.9292 87.1903 84.1728 87.5446C84.4164 87.8916 84.5382 88.3381 84.5382 88.8844C84.5382 89.3199 84.4385 89.7074 84.2392 90.047C84.0399 90.3865 83.7447 90.6559 83.3535 90.8552C82.9622 91.0472 82.4935 91.1431 81.9473 91.1431C81.1501 91.1431 80.4931 90.9401 79.9764 90.5341C79.4671 90.1208 79.194 89.5303 79.1571 88.7626H80.375C80.4045 89.1538 80.5559 89.4749 80.829 89.7259C81.1021 89.9695 81.4712 90.0913 81.9362 90.0913C82.3865 90.0913 82.7334 89.9695 82.977 89.7259C83.2206 89.4749 83.3424 89.1538 83.3424 88.7626C83.3424 88.2459 83.1763 87.8805 82.8441 87.6664C82.5193 87.445 82.0174 87.3343 81.3383 87.3343H81.0504V86.2935H81.3494C81.9473 86.2861 82.4012 86.1864 82.7113 85.9945C83.0287 85.8026 83.1874 85.5 83.1874 85.0866C83.1874 84.7323 83.073 84.4518 82.8441 84.2451C82.6153 84.031 82.2905 83.924 81.8698 83.924C81.4564 83.924 81.1353 84.031 80.9065 84.2451C80.6777 84.4518 80.5411 84.7101 80.4968 85.0202H79.2678ZM85.8641 86.9578C85.8641 85.6808 86.0781 84.6843 86.5063 83.9683C86.9418 83.2449 87.6873 82.8832 88.7429 82.8832C89.7984 82.8832 90.5403 83.2449 90.9684 83.9683C91.4039 84.6843 91.6216 85.6808 91.6216 86.9578C91.6216 88.2496 91.4039 89.2608 90.9684 89.9916C90.5403 90.715 89.7984 91.0767 88.7429 91.0767C87.6873 91.0767 86.9418 90.715 86.5063 89.9916C86.0781 89.2608 85.8641 88.2496 85.8641 86.9578ZM90.3816 86.9578C90.3816 86.3599 90.341 85.8543 90.2598 85.4409C90.1859 85.0275 90.0309 84.6917 89.7947 84.4333C89.5585 84.1676 89.2079 84.0347 88.7429 84.0347C88.2778 84.0347 87.9272 84.1676 87.691 84.4333C87.4548 84.6917 87.2961 85.0275 87.2149 85.4409C87.1411 85.8543 87.1042 86.3599 87.1042 86.9578C87.1042 87.5779 87.1411 88.0982 87.2149 88.519C87.2887 88.9397 87.4437 89.2793 87.6799 89.5376C87.9235 89.796 88.2778 89.9252 88.7429 89.9252C89.2079 89.9252 89.5585 89.796 89.7947 89.5376C90.0383 89.2793 90.197 88.9397 90.2708 88.519C90.3446 88.0982 90.3816 87.5779 90.3816 86.9578ZM98.7897 93.1583C98.0663 92.4644 97.509 91.5823 97.1178 90.512C96.734 89.4417 96.542 88.2939 96.542 87.0685C96.542 85.8137 96.7487 84.6289 97.1621 83.5143C97.5828 82.3997 98.1992 81.4807 99.0112 80.7574H100.318V80.8791C99.4688 81.6616 98.8303 82.599 98.4022 83.6915C97.9741 84.784 97.76 85.9096 97.76 87.0685C97.76 88.1831 97.9593 89.2608 98.3579 90.3016C98.7565 91.3424 99.3359 92.254 100.096 93.0365V93.1583H98.7897ZM106.133 86.5592V87.6221H101.582V86.5592H106.133ZM107.594 84.1787V83.0272H109.897V91.0988H108.624V84.1787H107.594ZM111.609 85.0202C111.653 84.3337 111.915 83.7985 112.395 83.4147C112.882 83.0309 113.502 82.8389 114.255 82.8389C114.772 82.8389 115.218 82.9312 115.595 83.1157C115.971 83.3003 116.255 83.5512 116.447 83.8687C116.639 84.1861 116.735 84.5441 116.735 84.9427C116.735 85.4003 116.613 85.7915 116.37 86.1163C116.126 86.4411 115.835 86.6589 115.495 86.7696V86.8139C115.931 86.9467 116.27 87.1903 116.514 87.5446C116.757 87.8916 116.879 88.3381 116.879 88.8844C116.879 89.3199 116.779 89.7074 116.58 90.047C116.381 90.3865 116.086 90.6559 115.694 90.8552C115.303 91.0472 114.834 91.1431 114.288 91.1431C113.491 91.1431 112.834 90.9401 112.317 90.5341C111.808 90.1208 111.535 89.5303 111.498 88.7626H112.716C112.745 89.1538 112.897 89.4749 113.17 89.7259C113.443 89.9695 113.812 90.0913 114.277 90.0913C114.727 90.0913 115.074 89.9695 115.318 89.7259C115.561 89.4749 115.683 89.1538 115.683 88.7626C115.683 88.2459 115.517 87.8805 115.185 87.6664C114.86 87.445 114.358 87.3343 113.679 87.3343H113.391V86.2935H113.69C114.288 86.2861 114.742 86.1864 115.052 85.9945C115.37 85.8026 115.528 85.5 115.528 85.0866C115.528 84.7323 115.414 84.4518 115.185 84.2451C114.956 84.031 114.631 83.924 114.211 83.924C113.797 83.924 113.476 84.031 113.247 84.2451C113.019 84.4518 112.882 84.7101 112.838 85.0202H111.609ZM118.88 91.1763C118.652 91.1763 118.46 91.0988 118.305 90.9438C118.15 90.7888 118.072 90.5969 118.072 90.3681C118.072 90.1392 118.15 89.9473 118.305 89.7923C118.46 89.6373 118.652 89.5598 118.88 89.5598C119.102 89.5598 119.29 89.6373 119.445 89.7923C119.6 89.9473 119.678 90.1392 119.678 90.3681C119.678 90.5969 119.6 90.7888 119.445 90.9438C119.29 91.0988 119.102 91.1763 118.88 91.1763ZM122.238 86.8803C121.47 86.4965 121.086 85.8912 121.086 85.0645C121.086 84.6659 121.186 84.3005 121.385 83.9683C121.584 83.6361 121.883 83.3741 122.282 83.1822C122.681 82.9829 123.168 82.8832 123.743 82.8832C124.312 82.8832 124.795 82.9829 125.194 83.1822C125.6 83.3741 125.903 83.6361 126.102 83.9683C126.301 84.3005 126.401 84.6659 126.401 85.0645C126.401 85.4778 126.294 85.8432 126.08 86.1606C125.873 86.4706 125.596 86.7105 125.249 86.8803C125.67 87.0353 126.002 87.29 126.246 87.6443C126.489 87.9912 126.611 88.4009 126.611 88.8733C126.611 89.3531 126.489 89.7775 126.246 90.1466C126.002 90.5157 125.663 90.7999 125.227 90.9992C124.792 91.1985 124.297 91.2981 123.743 91.2981C123.19 91.2981 122.695 91.1985 122.26 90.9992C121.832 90.7999 121.496 90.5157 121.252 90.1466C121.009 89.7775 120.887 89.3531 120.887 88.8733C120.887 88.3935 121.009 87.9801 121.252 87.6332C121.496 87.2863 121.824 87.0353 122.238 86.8803ZM125.194 85.2195C125.194 84.8061 125.065 84.4887 124.806 84.2673C124.548 84.0458 124.194 83.9351 123.743 83.9351C123.301 83.9351 122.95 84.0458 122.692 84.2673C122.433 84.4887 122.304 84.8098 122.304 85.2305C122.304 85.5996 122.437 85.9023 122.703 86.1385C122.976 86.3673 123.323 86.4817 123.743 86.4817C124.164 86.4817 124.511 86.3636 124.784 86.1274C125.057 85.8912 125.194 85.5885 125.194 85.2195ZM123.743 87.4339C123.256 87.4339 122.858 87.5557 122.548 87.7993C122.245 88.0355 122.094 88.3787 122.094 88.829C122.094 89.2498 122.241 89.593 122.537 89.8587C122.832 90.1171 123.234 90.2463 123.743 90.2463C124.245 90.2463 124.64 90.1134 124.928 89.8477C125.223 89.5819 125.371 89.2424 125.371 88.829C125.371 88.3861 125.22 88.0429 124.917 87.7993C124.622 87.5557 124.231 87.4339 123.743 87.4339ZM129.298 86.8803C128.531 86.4965 128.147 85.8912 128.147 85.0645C128.147 84.6659 128.246 84.3005 128.446 83.9683C128.645 83.6361 128.944 83.3741 129.343 83.1822C129.741 82.9829 130.228 82.8832 130.804 82.8832C131.373 82.8832 131.856 82.9829 132.255 83.1822C132.661 83.3741 132.963 83.6361 133.163 83.9683C133.362 84.3005 133.461 84.6659 133.461 85.0645C133.461 85.4778 133.354 85.8432 133.14 86.1606C132.934 86.4706 132.657 86.7105 132.31 86.8803C132.731 87.0353 133.063 87.29 133.306 87.6443C133.55 87.9912 133.672 88.4009 133.672 88.8733C133.672 89.3531 133.55 89.7775 133.306 90.1466C133.063 90.5157 132.723 90.7999 132.288 90.9992C131.852 91.1985 131.358 91.2981 130.804 91.2981C130.251 91.2981 129.756 91.1985 129.32 90.9992C128.892 90.7999 128.556 90.5157 128.313 90.1466C128.069 89.7775 127.948 89.3531 127.948 88.8733C127.948 88.3935 128.069 87.9801 128.313 87.6332C128.556 87.2863 128.885 87.0353 129.298 86.8803ZM132.255 85.2195C132.255 84.8061 132.125 84.4887 131.867 84.2673C131.609 84.0458 131.254 83.9351 130.804 83.9351C130.361 83.9351 130.011 84.0458 129.752 84.2673C129.494 84.4887 129.365 84.8098 129.365 85.2305C129.365 85.5996 129.498 85.9023 129.763 86.1385C130.036 86.3673 130.383 86.4817 130.804 86.4817C131.225 86.4817 131.572 86.3636 131.845 86.1274C132.118 85.8912 132.255 85.5885 132.255 85.2195ZM130.804 87.4339C130.317 87.4339 129.918 87.5557 129.608 87.7993C129.306 88.0355 129.154 88.3787 129.154 88.829C129.154 89.2498 129.302 89.593 129.597 89.8587C129.893 90.1171 130.295 90.2463 130.804 90.2463C131.306 90.2463 131.701 90.1134 131.989 89.8477C132.284 89.5819 132.432 89.2424 132.432 88.829C132.432 88.3861 132.28 88.0429 131.978 87.7993C131.683 87.5557 131.291 87.4339 130.804 87.4339ZM134.798 84.9759C134.798 84.437 134.953 84.0163 135.263 83.7136C135.58 83.4036 135.986 83.2486 136.481 83.2486C136.975 83.2486 137.378 83.4036 137.688 83.7136C138.005 84.0163 138.164 84.437 138.164 84.9759C138.164 85.5147 138.005 85.9392 137.688 86.2492C137.378 86.5592 136.975 86.7142 136.481 86.7142C135.986 86.7142 135.58 86.5592 135.263 86.2492C134.953 85.9392 134.798 85.5147 134.798 84.9759ZM141.552 83.3925L137.134 91.0988H135.894L140.312 83.3925H141.552ZM136.481 84.0126C136.016 84.0126 135.783 84.3337 135.783 84.9759C135.783 85.6254 136.016 85.9502 136.481 85.9502C136.702 85.9502 136.872 85.8727 136.99 85.7177C137.116 85.5553 137.178 85.308 137.178 84.9759C137.178 84.3337 136.946 84.0126 136.481 84.0126ZM139.304 89.5044C139.304 88.9656 139.459 88.5448 139.769 88.2422C140.087 87.9322 140.493 87.7772 140.987 87.7772C141.474 87.7772 141.873 87.9322 142.183 88.2422C142.5 88.5448 142.659 88.9656 142.659 89.5044C142.659 90.0433 142.5 90.4677 142.183 90.7777C141.873 91.0878 141.474 91.2428 140.987 91.2428C140.493 91.2428 140.087 91.0878 139.769 90.7777C139.459 90.4677 139.304 90.0433 139.304 89.5044ZM140.976 88.5411C140.511 88.5411 140.279 88.8622 140.279 89.5044C140.279 90.1466 140.511 90.4677 140.976 90.4677C141.441 90.4677 141.674 90.1466 141.674 89.5044C141.674 88.8622 141.441 88.5411 140.976 88.5411ZM143.644 93.1583V93.0365C144.404 92.254 144.984 91.3424 145.382 90.3016C145.781 89.2608 145.98 88.1831 145.98 87.0685C145.98 85.9096 145.766 84.784 145.338 83.6915C144.91 82.599 144.271 81.6616 143.423 80.8791V80.7574H144.729C145.541 81.4807 146.154 82.3997 146.567 83.5143C146.988 84.6289 147.198 85.8137 147.198 87.0685C147.198 88.2939 147.003 89.4417 146.611 90.512C146.228 91.5823 145.674 92.4644 144.951 93.1583H143.644Z" fill="white"/>
<path fill-rule="evenodd" clip-rule="evenodd" d="M164.542 62.4771H170.789C171.029 62.4771 171.224 62.6791 171.224 62.9282C171.224 63.0146 171.2 63.0993 171.155 63.1721L168.032 68.2015C167.902 68.411 167.632 68.4717 167.43 68.337C167.377 68.3021 167.333 68.2558 167.299 68.2015L164.176 63.1721C164.046 62.9625 164.104 62.6835 164.307 62.5488C164.377 62.502 164.459 62.4771 164.542 62.4771Z" fill="white"/>
<path d="M21.1954 64.5524C21.1954 61.816 21.6542 59.6806 22.5716 58.1463C23.5048 56.5962 25.1024 55.8212 27.3643 55.8212C29.6262 55.8212 31.2158 56.5962 32.1332 58.1463C33.0665 59.6806 33.5331 61.816 33.5331 64.5524C33.5331 67.3205 33.0665 69.4875 32.1332 71.0534C31.2158 72.6035 29.6262 73.3786 27.3643 73.3786C25.1024 73.3786 23.5048 72.6035 22.5716 71.0534C21.6542 69.4875 21.1954 67.3205 21.1954 64.5524ZM30.8758 64.5524C30.8758 63.2712 30.7888 62.1877 30.6148 61.3019C30.4566 60.4162 30.1244 59.6965 29.6183 59.1428C29.1121 58.5734 28.3608 58.2887 27.3643 58.2887C26.3678 58.2887 25.6164 58.5734 25.1103 59.1428C24.6041 59.6965 24.264 60.4162 24.09 61.3019C23.9319 62.1877 23.8528 63.2712 23.8528 64.5524C23.8528 65.8811 23.9319 66.9962 24.09 67.8978C24.2482 68.7994 24.5804 69.527 25.0865 70.0806C25.6085 70.6343 26.3678 70.9111 27.3643 70.9111C28.3608 70.9111 29.1121 70.6343 29.6183 70.0806C30.1402 69.527 30.4803 68.7994 30.6385 67.8978C30.7967 66.9962 30.8758 65.8811 30.8758 64.5524ZM37.8424 73.5921C37.352 73.5921 36.9408 73.426 36.6086 73.0939C36.2764 72.7617 36.1104 72.3504 36.1104 71.8601C36.1104 71.3698 36.2764 70.9585 36.6086 70.6263C36.9408 70.2942 37.352 70.1281 37.8424 70.1281C38.3169 70.1281 38.7202 70.2942 39.0524 70.6263C39.3846 70.9585 39.5507 71.3698 39.5507 71.8601C39.5507 72.3504 39.3846 72.7617 39.0524 73.0939C38.7202 73.426 38.3169 73.5921 37.8424 73.5921ZM42.1181 64.5524C42.1181 61.816 42.5768 59.6806 43.4942 58.1463C44.4274 56.5962 46.025 55.8212 48.2869 55.8212C50.5488 55.8212 52.1385 56.5962 53.0559 58.1463C53.9891 59.6806 54.4557 61.816 54.4557 64.5524C54.4557 67.3205 53.9891 69.4875 53.0559 71.0534C52.1385 72.6035 50.5488 73.3786 48.2869 73.3786C46.025 73.3786 44.4274 72.6035 43.4942 71.0534C42.5768 69.4875 42.1181 67.3205 42.1181 64.5524ZM51.7984 64.5524C51.7984 63.2712 51.7114 62.1877 51.5374 61.3019C51.3792 60.4162 51.0471 59.6965 50.5409 59.1428C50.0347 58.5734 49.2834 58.2887 48.2869 58.2887C47.2904 58.2887 46.5391 58.5734 46.0329 59.1428C45.5268 59.6965 45.1867 60.4162 45.0127 61.3019C44.8545 62.1877 44.7754 63.2712 44.7754 64.5524C44.7754 65.8811 44.8545 66.9962 45.0127 67.8978C45.1709 68.7994 45.503 69.527 46.0092 70.0806C46.5312 70.6343 47.2904 70.9111 48.2869 70.9111C49.2834 70.9111 50.0347 70.6343 50.5409 70.0806C51.0629 69.527 51.403 68.7994 51.5611 67.8978C51.7193 66.9962 51.7984 65.8811 51.7984 64.5524ZM57.3177 64.5524C57.3177 61.816 57.7764 59.6806 58.6938 58.1463C59.6271 56.5962 61.2246 55.8212 63.4865 55.8212C65.7484 55.8212 67.3381 56.5962 68.2555 58.1463C69.1887 59.6806 69.6554 61.816 69.6554 64.5524C69.6554 67.3205 69.1887 69.4875 68.2555 71.0534C67.3381 72.6035 65.7484 73.3786 63.4865 73.3786C61.2246 73.3786 59.6271 72.6035 58.6938 71.0534C57.7764 69.4875 57.3177 67.3205 57.3177 64.5524ZM66.998 64.5524C66.998 63.2712 66.911 62.1877 66.737 61.3019C66.5789 60.4162 66.2467 59.6965 65.7405 59.1428C65.2344 58.5734 64.483 58.2887 63.4865 58.2887C62.49 58.2887 61.7387 58.5734 61.2325 59.1428C60.7264 59.6965 60.3863 60.4162 60.2123 61.3019C60.0541 62.1877 59.9751 63.2712 59.9751 64.5524C59.9751 65.8811 60.0541 66.9962 60.2123 67.8978C60.3705 68.7994 60.7027 69.527 61.2088 70.0806C61.7308 70.6343 62.49 70.9111 63.4865 70.9111C64.483 70.9111 65.2344 70.6343 65.7405 70.0806C66.2625 69.527 66.6026 68.7994 66.7608 67.8978C66.9189 66.9962 66.998 65.8811 66.998 64.5524ZM72.4699 60.4003C72.5648 58.9293 73.1263 57.7825 74.1544 56.96C75.1984 56.1375 76.5271 55.7263 78.1405 55.7263C79.2477 55.7263 80.2046 55.924 81.0113 56.3194C81.818 56.7149 82.427 57.2527 82.8382 57.9328C83.2495 58.613 83.4551 59.3801 83.4551 60.2342C83.4551 61.2149 83.1941 62.0533 82.6722 62.7492C82.1502 63.4452 81.5254 63.9118 80.7978 64.1491V64.244C81.731 64.5287 82.4586 65.0507 82.9806 65.8099C83.5026 66.5533 83.7636 67.5103 83.7636 68.6808C83.7636 69.614 83.55 70.4444 83.123 71.172C82.6959 71.8996 82.0632 72.477 81.2249 72.9041C80.3865 73.3153 79.3821 73.5209 78.2116 73.5209C76.5033 73.5209 75.0956 73.086 73.9884 72.216C72.897 71.3302 72.3117 70.0648 72.2326 68.4198H74.8425C74.9058 69.2581 75.23 69.9462 75.8153 70.484C76.4005 71.006 77.1914 71.2669 78.1879 71.2669C79.1528 71.2669 79.8962 71.006 80.4182 70.484C80.9401 69.9462 81.2011 69.2581 81.2011 68.4198C81.2011 67.3126 80.8452 66.5296 80.1335 66.0709C79.4375 65.5964 78.3619 65.3591 76.9067 65.3591H76.2898V63.1289H76.9304C78.2116 63.113 79.1844 62.8995 79.8487 62.4882C80.5289 62.077 80.869 61.4285 80.869 60.5427C80.869 59.7835 80.6238 59.1824 80.1335 58.7395C79.6431 58.2808 78.9471 58.0514 78.0455 58.0514C77.1598 58.0514 76.4717 58.2808 75.9814 58.7395C75.491 59.1824 75.1984 59.736 75.1035 60.4003H72.4699ZM86.2489 58.5971V56.1296H91.184V73.426H88.4554V58.5971H86.2489ZM94.8523 60.4003C94.9472 58.9293 95.5087 57.7825 96.5368 56.96C97.5808 56.1375 98.9094 55.7263 100.523 55.7263C101.63 55.7263 102.587 55.924 103.394 56.3194C104.2 56.7149 104.809 57.2527 105.221 57.9328C105.632 58.613 105.838 59.3801 105.838 60.2342C105.838 61.2149 105.577 62.0533 105.055 62.7492C104.533 63.4452 103.908 63.9118 103.18 64.1491V64.244C104.113 64.5287 104.841 65.0507 105.363 65.8099C105.885 66.5533 106.146 67.5103 106.146 68.6808C106.146 69.614 105.932 70.4444 105.505 71.172C105.078 71.8996 104.446 72.477 103.607 72.9041C102.769 73.3153 101.764 73.5209 100.594 73.5209C98.8857 73.5209 97.478 73.086 96.3707 72.216C95.2793 71.3302 94.6941 70.0648 94.615 68.4198H97.2249C97.2881 69.2581 97.6124 69.9462 98.1977 70.484C98.7829 71.006 99.5738 71.2669 100.57 71.2669C101.535 71.2669 102.279 71.006 102.801 70.484C103.323 69.9462 103.584 69.2581 103.584 68.4198C103.584 67.3126 103.228 66.5296 102.516 66.0709C101.82 65.5964 100.744 65.3591 99.2891 65.3591H98.6722V63.1289H99.3128C100.594 63.113 101.567 62.8995 102.231 62.4882C102.911 62.077 103.251 61.4285 103.251 60.5427C103.251 59.7835 103.006 59.1824 102.516 58.7395C102.025 58.2808 101.33 58.0514 100.428 58.0514C99.5421 58.0514 98.8541 58.2808 98.3637 58.7395C97.8734 59.1824 97.5808 59.736 97.4859 60.4003H94.8523ZM108.987 64.5524C108.987 61.816 109.446 59.6806 110.363 58.1463C111.297 56.5962 112.894 55.8212 115.156 55.8212C117.418 55.8212 119.008 56.5962 119.925 58.1463C120.858 59.6806 121.325 61.816 121.325 64.5524C121.325 67.3205 120.858 69.4875 119.925 71.0534C119.008 72.6035 117.418 73.3786 115.156 73.3786C112.894 73.3786 111.297 72.6035 110.363 71.0534C109.446 69.4875 108.987 67.3205 108.987 64.5524ZM118.667 64.5524C118.667 63.2712 118.58 62.1877 118.406 61.3019C118.248 60.4162 117.916 59.6965 117.41 59.1428C116.904 58.5734 116.152 58.2887 115.156 58.2887C114.159 58.2887 113.408 58.5734 112.902 59.1428C112.396 59.6965 112.056 60.4162 111.882 61.3019C111.724 62.1877 111.644 63.2712 111.644 64.5524C111.644 65.8811 111.724 66.9962 111.882 67.8978C112.04 68.7994 112.372 69.527 112.878 70.0806C113.4 70.6343 114.159 70.9111 115.156 70.9111C116.152 70.9111 116.904 70.6343 117.41 70.0806C117.932 69.527 118.272 68.7994 118.43 67.8978C118.588 66.9962 118.667 65.8811 118.667 64.5524ZM123.831 58.5971V56.1296H128.766V73.426H126.037V58.5971H123.831ZM132.482 64.5524C132.482 61.816 132.94 59.6806 133.858 58.1463C134.791 56.5962 136.389 55.8212 138.651 55.8212C140.912 55.8212 142.502 56.5962 143.419 58.1463C144.353 59.6806 144.819 61.816 144.819 64.5524C144.819 67.3205 144.353 69.4875 143.419 71.0534C142.502 72.6035 140.912 73.3786 138.651 73.3786C136.389 73.3786 134.791 72.6035 133.858 71.0534C132.94 69.4875 132.482 67.3205 132.482 64.5524ZM142.162 64.5524C142.162 63.2712 142.075 62.1877 141.901 61.3019C141.743 60.4162 141.411 59.6965 140.905 59.1428C140.398 58.5734 139.647 58.2887 138.651 58.2887C137.654 58.2887 136.903 58.5734 136.397 59.1428C135.89 59.6965 135.55 60.4162 135.376 61.3019C135.218 62.1877 135.139 63.2712 135.139 64.5524C135.139 65.8811 135.218 66.9962 135.376 67.8978C135.534 68.7994 135.867 69.527 136.373 70.0806C136.895 70.6343 137.654 70.9111 138.651 70.9111C139.647 70.9111 140.398 70.6343 140.905 70.0806C141.426 69.527 141.767 68.7994 141.925 67.8978C142.083 66.9962 142.162 65.8811 142.162 64.5524Z" fill="white"/>
<path d="M21.5656 39.7692H23.7958V40.6423H20.4837V34.0464H21.5656V39.7692ZM26.9689 40.7277C26.4753 40.7277 26.0293 40.617 25.6307 40.3956C25.2321 40.1678 24.9189 39.8515 24.6911 39.4465C24.4634 39.0353 24.3495 38.5608 24.3495 38.023C24.3495 37.4915 24.4665 37.0201 24.7006 36.6089C24.9347 36.1976 25.2542 35.8813 25.6592 35.6598C26.0641 35.4384 26.5165 35.3277 27.0163 35.3277C27.5161 35.3277 27.9685 35.4384 28.3734 35.6598C28.7784 35.8813 29.0979 36.1976 29.332 36.6089C29.5661 37.0201 29.6831 37.4915 29.6831 38.023C29.6831 38.5544 29.5629 39.0258 29.3225 39.437C29.0821 39.8483 28.7531 40.1678 28.3355 40.3956C27.9242 40.617 27.4687 40.7277 26.9689 40.7277ZM26.9689 39.7882C27.2472 39.7882 27.5066 39.7218 27.7471 39.5889C27.9938 39.456 28.1931 39.2567 28.345 38.991C28.4968 38.7253 28.5727 38.4026 28.5727 38.023C28.5727 37.6433 28.5 37.3238 28.3545 37.0644C28.2089 36.7987 28.016 36.5994 27.7755 36.4665C27.5351 36.3337 27.2757 36.2672 26.9973 36.2672C26.7189 36.2672 26.4595 36.3337 26.2191 36.4665C25.985 36.5994 25.7984 36.7987 25.6592 37.0644C25.52 37.3238 25.4504 37.6433 25.4504 38.023C25.4504 38.5861 25.5927 39.0226 25.8774 39.3326C26.1685 39.6363 26.5323 39.7882 26.9689 39.7882ZM31.8346 36.1723C31.9928 35.9066 32.2016 35.701 32.461 35.5554C32.7267 35.4036 33.0399 35.3277 33.4005 35.3277V36.4475H33.1253C32.7014 36.4475 32.3787 36.5551 32.1573 36.7702C31.9421 36.9853 31.8346 37.3586 31.8346 37.8901V40.6423H30.7527V35.4131H31.8346V36.1723ZM39.1877 37.8996C39.1877 38.0957 39.1751 38.2729 39.1498 38.431H35.1543C35.1859 38.8486 35.3409 39.184 35.6193 39.437C35.8977 39.6901 36.2393 39.8167 36.6443 39.8167C37.2263 39.8167 37.6376 39.5731 37.878 39.0859H39.0454C38.8872 39.5667 38.5993 39.9622 38.1817 40.2722C37.7705 40.5759 37.258 40.7277 36.6443 40.7277C36.1444 40.7277 35.6952 40.617 35.2966 40.3956C34.9043 40.1678 34.5943 39.8515 34.3665 39.4465C34.1451 39.0353 34.0344 38.5608 34.0344 38.023C34.0344 37.4852 34.1419 37.0138 34.3571 36.6089C34.5785 36.1976 34.8854 35.8813 35.2776 35.6598C35.6762 35.4384 36.1318 35.3277 36.6443 35.3277C37.1378 35.3277 37.5775 35.4352 37.9634 35.6503C38.3494 35.8655 38.6499 36.1691 38.865 36.5614C39.0802 36.9474 39.1877 37.3934 39.1877 37.8996ZM38.0583 37.5579C38.052 37.1593 37.9097 36.8398 37.6313 36.5994C37.3529 36.359 37.0081 36.2387 36.5968 36.2387C36.2235 36.2387 35.904 36.359 35.6383 36.5994C35.3725 36.8335 35.2144 37.153 35.1637 37.5579H38.0583ZM46.5826 35.3277C46.9938 35.3277 47.3608 35.4131 47.6835 35.5839C48.0125 35.7547 48.2687 36.0078 48.4522 36.3431C48.642 36.6785 48.7369 37.0834 48.7369 37.5579V40.6423H47.6645V37.7193C47.6645 37.2511 47.5475 36.8936 47.3134 36.6468C47.0793 36.3938 46.7597 36.2672 46.3548 36.2672C45.9499 36.2672 45.6272 36.3938 45.3868 36.6468C45.1527 36.8936 45.0356 37.2511 45.0356 37.7193V40.6423H43.9632V37.7193C43.9632 37.2511 43.8462 36.8936 43.6121 36.6468C43.378 36.3938 43.0585 36.2672 42.6535 36.2672C42.2486 36.2672 41.9259 36.3938 41.6855 36.6468C41.4514 36.8936 41.3343 37.2511 41.3343 37.7193V40.6423H40.2524V35.4131H41.3343V36.011C41.5115 35.7959 41.7361 35.6282 42.0082 35.508C42.2802 35.3878 42.5713 35.3277 42.8813 35.3277C43.2989 35.3277 43.6722 35.4162 44.0012 35.5934C44.3302 35.7705 44.5833 36.0268 44.7604 36.3621C44.9186 36.0458 45.1653 35.7959 45.5007 35.6124C45.836 35.4226 46.1966 35.3277 46.5826 35.3277ZM53.6609 34.0464V40.6423H52.579V34.0464H53.6609ZM56.1632 36.1818C56.3467 35.9414 56.5966 35.7389 56.913 35.5744C57.2293 35.4099 57.5868 35.3277 57.9854 35.3277C58.441 35.3277 58.8554 35.4415 59.2287 35.6693C59.6083 35.8908 59.9057 36.2039 60.1208 36.6089C60.3359 37.0138 60.4435 37.4788 60.4435 38.004C60.4435 38.5291 60.3359 39.0005 60.1208 39.4181C59.9057 39.8293 59.6083 40.152 59.2287 40.3861C58.8554 40.6139 58.441 40.7277 57.9854 40.7277C57.5868 40.7277 57.2325 40.6487 56.9225 40.4905C56.6125 40.326 56.3594 40.1235 56.1632 39.8831V43.1288H55.0813V35.4131H56.1632V36.1818ZM59.3426 38.004C59.3426 37.6433 59.2666 37.3333 59.1148 37.0739C58.9693 36.8082 58.7731 36.6089 58.5264 36.476C58.286 36.3368 58.0265 36.2672 57.7482 36.2672C57.4761 36.2672 57.2167 36.3368 56.9699 36.476C56.7295 36.6152 56.5334 36.8177 56.3815 37.0834C56.236 37.3491 56.1632 37.6623 56.1632 38.023C56.1632 38.3836 56.236 38.6999 56.3815 38.972C56.5334 39.2377 56.7295 39.4402 56.9699 39.5794C57.2167 39.7186 57.4761 39.7882 57.7482 39.7882C58.0265 39.7882 58.286 39.7186 58.5264 39.5794C58.7731 39.4339 58.9693 39.2251 59.1148 38.953C59.2666 38.681 59.3426 38.3646 59.3426 38.004ZM63.4115 40.7277C63.0002 40.7277 62.6301 40.655 62.3011 40.5095C61.9784 40.3576 61.7222 40.1552 61.5323 39.9021C61.3425 39.6427 61.2413 39.3548 61.2286 39.0384H62.3485C62.3675 39.2599 62.4719 39.4465 62.6617 39.5984C62.8578 39.7439 63.1014 39.8167 63.3925 39.8167C63.6962 39.8167 63.9303 39.7597 64.0948 39.6458C64.2656 39.5256 64.351 39.3738 64.351 39.1903C64.351 38.9942 64.2561 38.8486 64.0663 38.7537C63.8828 38.6588 63.5886 38.5544 63.1837 38.4405C62.7914 38.333 62.4719 38.2286 62.2251 38.1274C61.9784 38.0261 61.7633 37.8711 61.5798 37.6623C61.4026 37.4535 61.3141 37.1783 61.3141 36.8366C61.3141 36.5583 61.3963 36.3052 61.5608 36.0774C61.7253 35.8433 61.9594 35.6598 62.2631 35.527C62.5731 35.3941 62.9274 35.3277 63.326 35.3277C63.9208 35.3277 64.3985 35.4795 64.7591 35.7832C65.1261 36.0806 65.3222 36.4887 65.3475 37.0075H64.2656C64.2466 36.7734 64.1517 36.5867 63.9809 36.4475C63.8101 36.3083 63.5791 36.2387 63.2881 36.2387C63.0034 36.2387 62.7851 36.2925 62.6332 36.4001C62.4814 36.5076 62.4055 36.65 62.4055 36.8272C62.4055 36.9663 62.4561 37.0834 62.5573 37.1783C62.6585 37.2732 62.7819 37.3491 62.9274 37.4061C63.073 37.4567 63.2881 37.5231 63.5728 37.6054C63.9524 37.7066 64.2624 37.811 64.5029 37.9186C64.7496 38.0198 64.9616 38.1716 65.1387 38.3741C65.3159 38.5766 65.4076 38.8455 65.414 39.1808C65.414 39.4782 65.3317 39.7439 65.1672 39.978C65.0027 40.2121 64.7686 40.3956 64.4649 40.5284C64.1675 40.6613 63.8164 40.7277 63.4115 40.7277ZM71.3188 35.4131V40.6423H70.2368V40.0255C70.066 40.2406 69.8414 40.4114 69.563 40.5379C69.2909 40.6582 68.9999 40.7183 68.6899 40.7183C68.2786 40.7183 67.9085 40.6328 67.5795 40.462C67.2568 40.2912 67.0006 40.0381 66.8108 39.7028C66.6273 39.3674 66.5355 38.9625 66.5355 38.488V35.4131H67.608V38.3267C67.608 38.7949 67.725 39.1555 67.9591 39.4086C68.1932 39.6553 68.5127 39.7787 68.9177 39.7787C69.3226 39.7787 69.6421 39.6553 69.8762 39.4086C70.1166 39.1555 70.2368 38.7949 70.2368 38.3267V35.4131H71.3188ZM79.0764 35.3277C79.4877 35.3277 79.8546 35.4131 80.1773 35.5839C80.5063 35.7547 80.7626 36.0078 80.946 36.3431C81.1359 36.6785 81.2308 37.0834 81.2308 37.5579V40.6423H80.1583V37.7193C80.1583 37.2511 80.0413 36.8936 79.8072 36.6468C79.5731 36.3938 79.2536 36.2672 78.8486 36.2672C78.4437 36.2672 78.121 36.3938 77.8806 36.6468C77.6465 36.8936 77.5295 37.2511 77.5295 37.7193V40.6423H76.457V37.7193C76.457 37.2511 76.34 36.8936 76.1059 36.6468C75.8718 36.3938 75.5523 36.2672 75.1473 36.2672C74.7424 36.2672 74.4197 36.3938 74.1793 36.6468C73.9452 36.8936 73.8282 37.2511 73.8282 37.7193V40.6423H72.7463V35.4131H73.8282V36.011C74.0053 35.7959 74.2299 35.6282 74.502 35.508C74.7741 35.3878 75.0651 35.3277 75.3751 35.3277C75.7927 35.3277 76.166 35.4162 76.495 35.5934C76.824 35.7705 77.0771 36.0268 77.2542 36.3621C77.4124 36.0458 77.6592 35.7959 77.9945 35.6124C78.3298 35.4226 78.6905 35.3277 79.0764 35.3277Z" fill="#FFC4C9"/>
<path d="M27.0859 19.7767C27.0859 20.2491 26.972 20.692 26.7442 21.1054C26.5249 21.5188 26.1748 21.852 25.6939 22.1051C25.2215 22.3581 24.6226 22.4847 23.8971 22.4847H22.4166V25.876H20.645V17.0435H23.8971C24.5804 17.0435 25.1625 17.1616 25.6433 17.3978C26.1242 17.634 26.4827 17.9588 26.7189 18.3721C26.9636 18.7855 27.0859 19.2537 27.0859 19.7767ZM23.8211 21.0548C24.3104 21.0548 24.6732 20.9451 24.9094 20.7258C25.1456 20.498 25.2637 20.1817 25.2637 19.7767C25.2637 18.9163 24.7829 18.486 23.8211 18.486H22.4166V21.0548H23.8211ZM33.2945 25.876L31.3458 22.4341H30.5107V25.876H28.7391V17.0435H32.0544C32.7378 17.0435 33.3198 17.1658 33.8007 17.4104C34.2816 17.6466 34.6401 17.9714 34.8763 18.3848C35.1209 18.7897 35.2433 19.2453 35.2433 19.7514C35.2433 20.3335 35.0745 20.8608 34.7371 21.3332C34.3997 21.7972 33.8977 22.1177 33.2313 22.2949L35.3445 25.876H33.2945ZM30.5107 21.1054H31.9912C32.472 21.1054 32.8306 20.9915 33.0668 20.7637C33.303 20.5275 33.4211 20.2027 33.4211 19.7894C33.4211 19.3845 33.303 19.0723 33.0668 18.853C32.8306 18.6252 32.472 18.5113 31.9912 18.5113H30.5107V21.1054ZM39.0126 18.4734V20.6878H41.9863V22.0924H39.0126V24.4334H42.3659V25.876H37.241V17.0308H42.3659V18.4734H39.0126ZM47.4588 17.0435C48.3868 17.0435 49.2008 17.2248 49.901 17.5876C50.6096 17.9503 51.1538 18.4692 51.5334 19.144C51.9214 19.8105 52.1155 20.5866 52.1155 21.4724C52.1155 22.3581 51.9214 23.1343 51.5334 23.8007C51.1538 24.4587 50.6096 24.9691 49.901 25.3318C49.2008 25.6946 48.3868 25.876 47.4588 25.876H44.3712V17.0435H47.4588ZM47.3955 24.3701C48.3235 24.3701 49.0406 24.117 49.5467 23.6109C50.0529 23.1047 50.306 22.3919 50.306 21.4724C50.306 20.5528 50.0529 19.8358 49.5467 19.3212C49.0406 18.7982 48.3235 18.5366 47.3955 18.5366H46.1428V24.3701H47.3955ZM55.6086 17.0435V25.876H53.837V17.0435H55.6086ZM57.3241 21.4471C57.3241 20.5781 57.5181 19.802 57.9062 19.1187C58.3027 18.427 58.8383 17.8913 59.5132 17.5117C60.1965 17.1236 60.96 16.9296 61.8036 16.9296C62.7906 16.9296 63.6553 17.1827 64.3977 17.6888C65.14 18.195 65.6588 18.8952 65.9541 19.7894H63.9168C63.7143 19.3676 63.4275 19.0512 63.0563 18.8403C62.6936 18.6294 62.2718 18.524 61.7909 18.524C61.2763 18.524 60.8166 18.6463 60.4116 18.891C60.0152 19.1272 59.703 19.4646 59.4753 19.9033C59.2559 20.3419 59.1463 20.8565 59.1463 21.4471C59.1463 22.0291 59.2559 22.5437 59.4753 22.9908C59.703 23.4295 60.0152 23.7712 60.4116 24.0158C60.8166 24.252 61.2763 24.3701 61.7909 24.3701C62.2718 24.3701 62.6936 24.2647 63.0563 24.0538C63.4275 23.8344 63.7143 23.5139 63.9168 23.0921H65.9541C65.6588 23.9947 65.14 24.6991 64.3977 25.2053C63.6637 25.703 62.799 25.9519 61.8036 25.9519C60.96 25.9519 60.1965 25.7621 59.5132 25.3824C58.8383 24.9944 58.3027 24.4587 57.9062 23.7754C57.5181 23.0921 57.3241 22.316 57.3241 21.4471ZM73.8733 17.0435V18.4734H71.5197V25.876H69.7481V18.4734H67.3945V17.0435H73.8733ZM80.9773 24.193H77.4594L76.8774 25.876H75.0172L78.1934 17.0308H80.256L83.4321 25.876H81.5593L80.9773 24.193ZM80.4964 22.7757L79.2183 19.0808L77.9403 22.7757H80.4964ZM90.0258 21.3458C90.5235 21.4386 90.9326 21.6875 91.2532 22.0924C91.5738 22.4973 91.734 22.9613 91.734 23.4844C91.734 23.9568 91.6159 24.3743 91.3797 24.7371C91.152 25.0914 90.8187 25.3698 90.3801 25.5723C89.9414 25.7747 89.4226 25.876 88.8236 25.876H85.0148V17.0435H88.6591C89.2581 17.0435 89.7727 17.1405 90.2029 17.3345C90.6416 17.5285 90.9706 17.7985 91.1899 18.1444C91.4177 18.4902 91.5316 18.8825 91.5316 19.3212C91.5316 19.8358 91.3924 20.266 91.114 20.6119C90.844 20.9578 90.4813 21.2024 90.0258 21.3458ZM86.7863 20.6878H88.406C88.8278 20.6878 89.1526 20.595 89.3804 20.4094C89.6082 20.2154 89.7221 19.9412 89.7221 19.5869C89.7221 19.2326 89.6082 18.9584 89.3804 18.7644C89.1526 18.5704 88.8278 18.4734 88.406 18.4734H86.7863V20.6878ZM88.5705 24.4334C89.0008 24.4334 89.334 24.3322 89.5702 24.1297C89.8149 23.9272 89.9372 23.6404 89.9372 23.2692C89.9372 22.8896 89.8106 22.5944 89.5576 22.3835C89.3045 22.1641 88.9628 22.0544 88.5326 22.0544H86.7863V24.4334H88.5705ZM95.3129 17.0435V25.876H93.5414V17.0435H95.3129ZM99.2302 24.4714H102.141V25.876H97.4587V17.0435H99.2302V24.4714ZM105.434 17.0435V25.876H103.662V17.0435H105.434ZM113.59 17.0435V18.4734H111.236V25.876H109.465V18.4734H107.111V17.0435H113.59ZM122.301 17.0435L119.315 22.801V25.876H117.543V22.801L114.544 17.0435H116.543L118.442 21.0801L120.327 17.0435H122.301Z" fill="white"/>
</g>
</g>
</g>
<defs>
<filter id="filter0_d_1_1938" x="-4.13504" y="-4.13504" width="216.27" height="142.719" filterUnits="userSpaceOnUse" color-interpolation-filters="sRGB">
<feFlood flood-opacity="0" result="BackgroundImageFix"/>
<feColorMatrix in="SourceAlpha" type="matrix" values="0 0 0 0 0 0 0 0 0 0 0 0 0 0 0 0 0 0 127 0" result="hardAlpha"/>
<feOffset/>
<feGaussianBlur stdDeviation="2.06575"/>
<feComposite in2="hardAlpha" operator="out"/>
<feColorMatrix type="matrix" values="0 0 0 0 0.42908 0 0 0 0 0.42908 0 0 0 0 0.42908 0 0 0 0.5 0"/>
<feBlend mode="normal" in2="BackgroundImageFix" result="effect1_dropShadow_1_1938"/>
<feBlend mode="normal" in="SourceGraphic" in2="effect1_dropShadow_1_1938" result="shape"/>
</filter>
<clipPath id="clip0_1_1938">
<rect width="208" height="134.449" rx="10.3288" fill="white"/>
</clipPath>
</defs>
</svg>
