<svg width="22" height="21" viewBox="0 0 22 21" fill="none" xmlns="http://www.w3.org/2000/svg">
<path d="M16.5324 11.5694L16.0357 11.1087L16.5324 11.5694ZM10.1456 5.18257L10.6063 5.67925L10.1456 5.18257ZM19.5649 3.85888L20.2366 3.94673L19.5649 3.85888ZM17.8561 2.1501L17.9439 2.8218L17.8561 2.1501ZM5.86602 11.4264L6.47428 11.7246L5.86602 11.4264ZM10.2886 15.8489L9.99039 15.2407L10.2886 15.8489ZM7.43126 9.17427C7.16671 8.90972 6.73779 8.90972 6.47324 9.17427C6.20869 9.43882 6.20869 9.86774 6.47324 10.1323L7.43126 9.17427ZM11.5827 15.2417C11.8472 15.5063 12.2761 15.5063 12.5407 15.2417C12.8052 14.9772 12.8052 14.5482 12.5407 14.2837L11.5827 15.2417ZM5.83456 16.8384C6.09911 16.5739 6.09911 16.1449 5.83456 15.8804C5.57001 15.6158 5.14109 15.6158 4.87654 15.8804L5.83456 16.8384ZM2.32183 18.4351C2.05728 18.6997 2.05728 19.1286 2.32183 19.3931C2.58638 19.6577 3.0153 19.6577 3.27985 19.3931L2.32183 18.4351ZM3.91852 14.9224C4.18307 14.6578 4.18307 14.2289 3.91852 13.9644C3.65398 13.6998 3.22506 13.6998 2.96051 13.9644L3.91852 14.9224ZM1.68315 15.2417C1.4186 15.5063 1.4186 15.9352 1.68315 16.1997C1.9477 16.4643 2.37662 16.4643 2.64117 16.1997L1.68315 15.2417ZM7.75059 18.7544C8.01514 18.4899 8.01514 18.061 7.75059 17.7964C7.48604 17.5319 7.05712 17.5319 6.79258 17.7964L7.75059 18.7544ZM5.51522 19.0738C5.25067 19.3383 5.25067 19.7673 5.51522 20.0318C5.77977 20.2964 6.20869 20.2964 6.47324 20.0318L5.51522 19.0738ZM9.57083 19.0419L10.2414 18.946L9.57083 19.0419ZM14.2332 15.9123L14.9038 15.8165L14.2332 15.9123ZM2.67308 12.1441L2.76888 11.4735L2.76888 11.4735L2.67308 12.1441ZM5.80261 7.48179L5.7068 8.15241L5.7068 8.15241L5.80261 7.48179ZM8.80682 15.0207L6.6943 12.9081L5.73629 13.8662L7.84881 15.9787L8.80682 15.0207ZM16.0357 11.1087C14.3253 12.9528 11.5482 14.477 9.99039 15.2407L10.5868 16.4572C12.1586 15.6866 15.1353 14.0719 17.0291 12.03L16.0357 11.1087ZM6.47428 11.7246C7.23799 10.1668 8.76211 7.38964 10.6063 5.67925L9.68495 4.68589C7.6431 6.57964 6.02834 9.55636 5.25776 11.1282L6.47428 11.7246ZM18.8932 3.77103C18.6187 5.86954 17.8895 9.10992 16.0357 11.1087L17.0291 12.03C19.1928 9.69711 19.9579 6.07744 20.2366 3.94673L18.8932 3.77103ZM10.6063 5.67925C12.605 3.82545 15.8454 3.09626 17.9439 2.8218L17.7682 1.4784C15.6375 1.75707 12.0178 2.5222 9.68495 4.68589L10.6063 5.67925ZM20.2366 3.94673C20.4272 2.48903 19.2259 1.28775 17.7682 1.4784L17.9439 2.8218C18.5192 2.74655 18.9684 3.19571 18.8932 3.77103L20.2366 3.94673ZM6.6943 12.9081C6.36627 12.5801 6.28612 12.1084 6.47428 11.7246L5.25776 11.1282C4.79875 12.0645 5.02473 13.1546 5.73629 13.8662L6.6943 12.9081ZM7.84881 15.9787C8.56036 16.6902 9.65049 16.9162 10.5868 16.4572L9.99039 15.2407C9.60658 15.4288 9.13486 15.3487 8.80682 15.0207L7.84881 15.9787ZM6.47324 10.1323L11.5827 15.2417L12.5407 14.2837L7.43126 9.17427L6.47324 10.1323ZM4.87654 15.8804L2.32183 18.4351L3.27985 19.3931L5.83456 16.8384L4.87654 15.8804ZM2.96051 13.9644L1.68315 15.2417L2.64117 16.1997L3.91852 14.9224L2.96051 13.9644ZM6.79258 17.7964L5.51522 19.0738L6.47324 20.0318L7.75059 18.7544L6.79258 17.7964ZM11.902 6.30022C10.932 7.27023 10.932 8.84294 11.902 9.81295L12.86 8.85493C12.4191 8.41402 12.4191 7.69915 12.86 7.25824L11.902 6.30022ZM11.902 9.81295C12.872 10.783 14.4447 10.783 15.4147 9.81295L14.4567 8.85493C14.0158 9.29585 13.3009 9.29585 12.86 8.85493L11.902 9.81295ZM15.4147 9.81295C16.3847 8.84294 16.3847 7.27023 15.4147 6.30022L14.4567 7.25824C14.8976 7.69915 14.8976 8.41402 14.4567 8.85493L15.4147 9.81295ZM15.4147 6.30022C14.4447 5.33021 12.872 5.33021 11.902 6.30022L12.86 7.25824C13.3009 6.81732 14.0158 6.81732 14.4567 7.25824L15.4147 6.30022ZM13.4987 16.1997L10.6246 19.0738L11.5827 20.0318L14.4567 17.1578L13.4987 16.1997ZM10.2414 18.946L9.85823 16.2636L8.51701 16.4552L8.90022 19.1377L10.2414 18.946ZM13.3071 14.2198L13.5626 16.0081L14.9038 15.8165L14.6483 14.0282L13.3071 14.2198ZM10.6246 19.0738C10.4931 19.2054 10.2678 19.1303 10.2414 18.946L8.90022 19.1377C9.08442 20.4271 10.6616 20.9528 11.5827 20.0318L10.6246 19.0738ZM14.4567 17.1578C14.8085 16.806 14.9742 16.309 14.9038 15.8165L13.5626 16.0081C13.5726 16.0785 13.549 16.1495 13.4987 16.1997L14.4567 17.1578ZM4.55718 7.25826L1.68313 10.1323L2.64115 11.0903L5.5152 8.21627L4.55718 7.25826ZM2.57728 12.8148L5.25973 13.198L5.45133 11.8567L2.76888 11.4735L2.57728 12.8148ZM7.68671 7.06665L5.89841 6.81118L5.7068 8.15241L7.4951 8.40788L7.68671 7.06665ZM1.68313 10.1323C0.762106 11.0533 1.28785 12.6306 2.57728 12.8148L2.76888 11.4735C2.58468 11.4472 2.50957 11.2219 2.64115 11.0903L1.68313 10.1323ZM5.5152 8.21627C5.56546 8.16602 5.63644 8.14235 5.7068 8.15241L5.89841 6.81118C5.40589 6.74082 4.90898 6.90646 4.55718 7.25826L5.5152 8.21627Z" fill="#FEFEFD"/>
</svg>
