<svg width="22" height="22" viewBox="0 0 22 22" fill="none" xmlns="http://www.w3.org/2000/svg">
<circle cx="2.66077" cy="2.66077" r="2.66077" transform="matrix(-1.03354 0 0 1.03354 13.75 8.25)" stroke="#2F667F" stroke-width="1.33038"/>
<path d="M15.1251 4.526L14.7813 5.12139H14.7813L15.1251 4.526ZM15.125 17.4736L14.7813 16.8782L15.125 17.4736ZM6.87504 17.4736L7.21879 16.8782H7.21879L6.87504 17.4736ZM6.87504 4.526L7.21879 5.12139L6.87504 4.526ZM8.1794 2.76378L8.84921 2.91876L8.1794 2.76378ZM2.66423 8.8765L2.22706 9.4071L2.66423 8.8765ZM2.34326 7.97757L1.69418 7.75097L2.34326 7.97757ZM4.03606 16.9611L3.51399 17.4084L4.03606 16.9611ZM8.74434 19.887L8.91298 19.2205L8.74434 19.887ZM8.17946 19.2361L7.50964 19.391L8.17946 19.2361ZM13.8206 19.236L14.4904 19.391L13.8206 19.236ZM13.2558 19.887L13.0871 19.2205L13.2558 19.887ZM17.9639 16.961L18.486 17.4083L17.9639 16.961ZM17.1308 17.1785L16.973 17.8476L17.1308 17.1785ZM19.3358 8.87653L19.7729 9.40712L19.3358 8.87653ZM2.34326 14.0223L2.99235 13.7957L2.34326 14.0223ZM17.1307 4.82117L17.2884 5.49033L17.1307 4.82117ZM17.9637 5.03861L18.4857 4.59128L17.9637 5.03861ZM4.86938 4.82114L4.71158 5.49029L4.86938 4.82114ZM19.3358 13.1234L19.7729 12.5928L19.3358 13.1234ZM19.6567 14.0223L20.3058 14.2489L19.6567 14.0223ZM13.8207 2.76381L13.1509 2.9188L13.8207 2.76381ZM13.1509 2.9188C13.3579 3.81334 13.9222 4.62539 14.7813 5.12139L15.4688 3.93061C14.9533 3.63298 14.6152 3.14761 14.4906 2.60882L13.1509 2.9188ZM14.7813 5.12139C15.5705 5.57702 16.4668 5.68402 17.2884 5.49033L16.9729 4.15202C16.4787 4.26854 15.9428 4.20425 15.4688 3.93061L14.7813 5.12139ZM20.3058 7.75101C19.8974 6.58105 19.2749 5.51222 18.4857 4.59128L17.4416 5.48595C18.1213 6.27916 18.6566 7.19881 19.0076 8.20421L20.3058 7.75101ZM19.0208 11C19.0208 10.3589 19.3125 9.7865 19.7729 9.40712L18.8986 8.34593C18.1347 8.9753 17.6458 9.93082 17.6458 11H19.0208ZM19.7729 12.5928C19.3125 12.2134 19.0208 11.641 19.0208 11H17.6458C17.6458 12.0691 18.1347 13.0246 18.8986 13.654L19.7729 12.5928ZM18.486 17.4083C19.275 16.4875 19.8974 15.4187 20.3058 14.2489L19.0076 13.7957C18.6567 14.801 18.1214 15.7206 17.4418 16.5137L18.486 17.4083ZM15.4688 18.069C15.9428 17.7953 16.4787 17.731 16.973 17.8476L17.2886 16.5093C16.467 16.3155 15.5706 16.4225 14.7813 16.8782L15.4688 18.069ZM14.4904 19.391C14.6151 18.8521 14.9532 18.3666 15.4688 18.069L14.7813 16.8782C13.9221 17.3743 13.3577 18.1865 13.1508 19.0811L14.4904 19.391ZM11 20.8541C11.8357 20.8541 12.6481 20.7499 13.4244 20.5535L13.0871 19.2205C12.4201 19.3893 11.721 19.4791 11 19.4791V20.8541ZM8.5757 20.5535C9.35198 20.7499 10.1643 20.8541 11 20.8541V19.4791C10.279 19.4791 9.57991 19.3893 8.91298 19.2205L8.5757 20.5535ZM6.53129 18.069C7.04687 18.3667 7.38501 18.8521 7.50964 19.391L8.84928 19.0812C8.64236 18.1865 8.07802 17.3743 7.21879 16.8782L6.53129 18.069ZM5.02705 17.8476C5.52132 17.731 6.05727 17.7953 6.53129 18.069L7.21879 16.8782C6.4295 16.4225 5.53304 16.3155 4.71138 16.5094L5.02705 17.8476ZM1.69418 14.2489C2.10258 15.4188 2.72498 16.4875 3.51399 17.4084L4.55814 16.5137C3.87856 15.7206 3.3433 14.801 2.99235 13.7957L1.69418 14.2489ZM2.9792 11C2.9792 11.641 2.68752 12.2134 2.22706 12.5928L3.10139 13.654C3.86528 13.0246 4.3542 12.0691 4.3542 11H2.9792ZM2.22706 9.4071C2.68752 9.78648 2.9792 10.3589 2.9792 11H4.3542C4.3542 9.9308 3.86528 8.97527 3.10139 8.3459L2.22706 9.4071ZM3.51425 4.59123C2.72512 5.51217 2.10262 6.58101 1.69418 7.75097L2.99235 8.20417C3.34334 7.19877 3.87868 6.27912 4.55837 5.48591L3.51425 4.59123ZM6.53129 3.93061C6.0573 4.20426 5.52141 4.26855 5.02717 4.152L4.71158 5.49029C5.53319 5.68404 6.42957 5.57705 7.21879 5.12139L6.53129 3.93061ZM7.5096 2.6088C7.38493 3.1476 7.04681 3.63297 6.53129 3.93061L7.21879 5.12139C8.07791 4.62538 8.64222 3.81331 8.84921 2.91876L7.5096 2.6088ZM11 1.14579C10.1643 1.14579 9.35192 1.24998 8.57561 1.44641L8.91291 2.7794C9.57986 2.61064 10.2789 2.52079 11 2.52079V1.14579ZM13.4246 1.44647C12.6482 1.25 11.8358 1.14579 11 1.14579V2.52079C11.7211 2.52079 12.4202 2.61065 13.0872 2.77945L13.4246 1.44647ZM8.84921 2.91876C8.86352 2.85691 8.88776 2.81328 8.90657 2.7904C8.92273 2.77075 8.92561 2.77619 8.91291 2.7794L8.57561 1.44641C7.94201 1.60674 7.61484 2.15393 7.5096 2.6088L8.84921 2.91876ZM3.10139 8.3459C3.04558 8.29991 3.01314 8.25016 3.00013 8.21689C2.98918 8.1889 2.99724 8.19016 2.99235 8.20417L1.69418 7.75097C1.45033 8.44947 1.82815 9.07844 2.22706 9.4071L3.10139 8.3459ZM4.71138 16.5094C4.64975 16.5239 4.6 16.5215 4.57116 16.5148C4.54636 16.509 4.54977 16.504 4.55814 16.5137L3.51399 17.4084C3.93846 17.9038 4.57277 17.9548 5.02705 17.8476L4.71138 16.5094ZM8.91298 19.2205C8.92568 19.2237 8.9228 19.2292 8.90664 19.2095C8.88783 19.1866 8.86359 19.143 8.84928 19.0812L7.50964 19.391C7.61486 19.8459 7.94202 20.3932 8.5757 20.5535L8.91298 19.2205ZM13.1508 19.0811C13.1365 19.143 13.1123 19.1866 13.0934 19.2095C13.0773 19.2291 13.0744 19.2237 13.0871 19.2205L13.4244 20.5535C14.0581 20.3931 14.3852 19.8459 14.4904 19.391L13.1508 19.0811ZM17.4418 16.5137C17.4502 16.5039 17.4536 16.509 17.4288 16.5148C17.4 16.5215 17.3502 16.5239 17.2886 16.5093L16.973 17.8476C17.4272 17.9547 18.0615 17.9037 18.486 17.4083L17.4418 16.5137ZM19.0076 8.20421C19.0027 8.19019 19.0108 8.18894 18.9998 8.21692C18.9868 8.2502 18.9544 8.29995 18.8986 8.34593L19.7729 9.40712C20.1718 9.07846 20.5496 8.4495 20.3058 7.75101L19.0076 8.20421ZM2.99235 13.7957C2.99724 13.8098 2.98918 13.811 3.00013 13.783C3.01314 13.7498 3.04558 13.7 3.10139 13.654L2.22706 12.5928C1.82815 12.9215 1.45033 13.5504 1.69418 14.2489L2.99235 13.7957ZM17.2884 5.49033C17.35 5.4758 17.3998 5.47819 17.4286 5.4849C17.4534 5.49068 17.45 5.49572 17.4416 5.48595L18.4857 4.59128C18.0613 4.09595 17.4271 4.04493 16.9729 4.15202L17.2884 5.49033ZM4.55837 5.48591C4.54999 5.49568 4.54658 5.49064 4.57138 5.48486C4.60022 5.47815 4.64996 5.47576 4.71158 5.49029L5.02717 4.152C4.57293 4.04488 3.9387 4.09589 3.51425 4.59123L4.55837 5.48591ZM18.8986 13.654C18.9544 13.7 18.9868 13.7497 18.9998 13.783C19.0108 13.811 19.0027 13.8097 19.0076 13.7957L20.3058 14.2489C20.5496 13.5504 20.1718 12.9215 19.7729 12.5928L18.8986 13.654ZM14.4906 2.60882C14.3853 2.15398 14.0581 1.60681 13.4246 1.44647L13.0872 2.77945C13.0745 2.77624 13.0774 2.7708 13.0936 2.79045C13.1124 2.81333 13.1366 2.85696 13.1509 2.9188L14.4906 2.60882Z" fill="#2F667F"/>
</svg>
