<svg width="208" height="135" viewBox="0 0 208 135" fill="none" xmlns="http://www.w3.org/2000/svg">
<g filter="url(#filter0_d_1_1916)">
<g clip-path="url(#clip0_1_1916)">
<path fill-rule="evenodd" clip-rule="evenodd" d="M0 7.90875C0 3.54087 3.54087 0 7.90875 0L200.091 0C204.459 0 208 3.54087 208 7.90875V126.54C208 130.908 204.459 134.449 200.091 134.449H7.90873C3.54085 134.449 0 130.908 0 126.54L0 7.90875Z" fill="#14827B"/>
<mask id="mask0_1_1916" style="mask-type:luminance" maskUnits="userSpaceOnUse" x="0" y="0" width="208" height="135">
<path fill-rule="evenodd" clip-rule="evenodd" d="M0 7.90875C0 3.54087 3.54087 0 7.90875 0L200.091 0C204.459 0 208 3.54087 208 7.90875V126.54C208 130.908 204.459 134.449 200.091 134.449H7.90873C3.54085 134.449 0 130.908 0 126.54L0 7.90875Z" fill="white"/>
</mask>
<g mask="url(#mask0_1_1916)">
<path d="M-0.790843 135.239V20.0034L20.0246 39.332L20.2783 39.5675L20.6234 39.541L40.7307 37.9943L50.7542 52.6439L51.1027 53.1533L51.6816 52.939L72.9877 45.0478L83.0419 42.7276L92.9977 45.0251L103.154 52.0567L103.304 52.1604L103.484 52.1881L123.994 55.3435L145.296 61.6552L145.525 61.7231L145.754 61.6528L155.633 58.6131L175.664 74.7919L185.88 114.872L186.119 115.811L186.992 115.388L208.951 104.732L208.795 135.239H-0.790843Z" fill="#055F59" stroke="#16B4F7" stroke-width="1.5804"/>
<path d="M21.148 60.4003C21.2429 58.9293 21.8045 57.7825 22.8326 56.96C23.8766 56.1375 25.2052 55.7263 26.8186 55.7263C27.9258 55.7263 28.8828 55.924 29.6895 56.3194C30.4962 56.7149 31.1051 57.2527 31.5164 57.9328C31.9277 58.613 32.1333 59.3801 32.1333 60.2342C32.1333 61.2149 31.8723 62.0533 31.3503 62.7492C30.8283 63.4452 30.2035 63.9118 29.4759 64.1491V64.244C30.4092 64.5287 31.1368 65.0507 31.6588 65.8099C32.1807 66.5533 32.4417 67.5103 32.4417 68.6808C32.4417 69.614 32.2282 70.4444 31.8011 71.172C31.374 71.8996 30.7413 72.477 29.903 72.9041C29.0647 73.3153 28.0603 73.5209 26.8898 73.5209C25.1815 73.5209 23.7737 73.086 22.6665 72.216C21.5751 71.3302 20.9899 70.0648 20.9108 68.4198H23.5207C23.5839 69.2581 23.9082 69.9462 24.4934 70.484C25.0787 71.006 25.8696 71.2669 26.8661 71.2669C27.8309 71.2669 28.5743 71.006 29.0963 70.484C29.6183 69.9462 29.8793 69.2581 29.8793 68.4198C29.8793 67.3126 29.5234 66.5296 28.8116 66.0709C28.1156 65.5964 27.0401 65.3591 25.5848 65.3591H24.968V63.1289H25.6086C26.8898 63.113 27.8626 62.8995 28.5269 62.4882C29.207 62.077 29.5471 61.4285 29.5471 60.5427C29.5471 59.7835 29.302 59.1824 28.8116 58.7395C28.3213 58.2808 27.6253 58.0514 26.7237 58.0514C25.8379 58.0514 25.1499 58.2808 24.6595 58.7395C24.1692 59.1824 23.8766 59.736 23.7816 60.4003H21.148ZM36.7777 69.7485C38.2962 68.4356 39.4904 67.36 40.3604 66.5217C41.2461 65.6676 41.9816 64.7818 42.5669 63.8644C43.1521 62.9469 43.4448 62.0295 43.4448 61.1121C43.4448 60.1631 43.2154 59.4196 42.7567 58.8819C42.3138 58.3441 41.6099 58.0752 40.6451 58.0752C39.7118 58.0752 38.9842 58.3757 38.4623 58.9768C37.9561 59.562 37.6872 60.3529 37.6556 61.3494H35.0457C35.0931 59.5462 35.6309 58.1701 36.6591 57.221C37.703 56.2562 39.0238 55.7737 40.6213 55.7737C42.3454 55.7737 43.6899 56.2482 44.6548 57.1973C45.6355 58.1463 46.1258 59.4117 46.1258 60.9935C46.1258 62.1323 45.8332 63.2317 45.248 64.2914C44.6785 65.3354 43.9905 66.2765 43.1838 67.1149C42.3929 67.9374 41.3806 68.8943 40.1468 69.9857L39.0791 70.9348H46.6004V73.1888H35.0694V71.2195L36.7777 69.7485ZM59.938 58.2175L53.3421 73.426H50.6136L57.2807 58.5022H48.502V56.2008H59.938V58.2175ZM65.5747 70.1755L62.7038 76.724H60.9481L62.6326 70.1755H65.5747ZM67.2262 58.5971V56.1296H72.1613V73.426H69.4328V58.5971H67.2262ZM86.8386 58.2175L80.2427 73.426H77.5142L84.1812 58.5022H75.4025V56.2008H86.8386V58.2175ZM98.4542 60.1393C98.2802 59.4117 97.9639 58.866 97.5052 58.5022C97.0465 58.1384 96.4059 57.9565 95.5834 57.9565C94.3338 57.9565 93.4005 58.439 92.7837 59.4038C92.1668 60.3529 91.8425 61.9346 91.8109 64.1491C92.2221 63.4531 92.8232 62.9153 93.6141 62.5357C94.4049 62.1561 95.2591 61.9663 96.1765 61.9663C97.2205 61.9663 98.1379 62.1956 98.9288 62.6543C99.7354 63.0972 100.36 63.7457 100.803 64.5999C101.262 65.454 101.491 66.4742 101.491 67.6606C101.491 68.7678 101.27 69.7564 100.827 70.6263C100.4 71.4963 99.7592 72.1844 98.905 72.6905C98.0509 73.1809 97.0227 73.426 95.8206 73.426C94.1914 73.426 92.9102 73.0701 91.977 72.3584C91.0596 71.6308 90.411 70.6105 90.0314 69.2977C89.6676 67.9848 89.4857 66.3477 89.4857 64.3863C89.4857 58.5971 91.5262 55.7025 95.6071 55.7025C97.1888 55.7025 98.4305 56.1296 99.3321 56.9838C100.25 57.8379 100.787 58.8898 100.945 60.1393H98.4542ZM95.5834 64.244C94.6185 64.244 93.796 64.5366 93.1158 65.1219C92.4515 65.6913 92.1193 66.5217 92.1193 67.6131C92.1193 68.7045 92.4278 69.5745 93.0446 70.223C93.6773 70.8557 94.5552 71.172 95.6783 71.172C96.6748 71.172 97.4577 70.8636 98.0272 70.2467C98.6124 69.6298 98.905 68.8073 98.905 67.7792C98.905 66.7036 98.6203 65.8495 98.0509 65.2168C97.4973 64.5682 96.6748 64.244 95.5834 64.244Z" fill="white"/>
<path opacity="0.85" d="M25.2859 86.5592V87.6221H20.7352V86.5592H25.2859ZM28.4853 88.9065C28.5592 89.2756 28.7179 89.5561 28.9614 89.748C29.205 89.9399 29.5335 90.0359 29.9469 90.0359C30.471 90.0359 30.8548 89.8292 31.0984 89.4158C31.342 89.0025 31.4638 88.2976 31.4638 87.301C31.2866 87.552 31.0356 87.7476 30.7109 87.8879C30.3935 88.0207 30.0465 88.0872 29.6701 88.0872C29.1903 88.0872 28.7548 87.9912 28.3635 87.7993C27.9723 87.6 27.6623 87.3084 27.4335 86.9246C27.212 86.5334 27.1013 86.061 27.1013 85.5073C27.1013 84.6954 27.3375 84.0495 27.8099 83.5697C28.2897 83.0825 28.9467 82.8389 29.7808 82.8389C30.7847 82.8389 31.497 83.1748 31.9177 83.8465C32.3459 84.5108 32.5599 85.5332 32.5599 86.9135C32.5599 87.8657 32.4787 88.6445 32.3163 89.2498C32.1613 89.855 31.8882 90.3127 31.497 90.6227C31.1058 90.9327 30.5632 91.0878 29.8694 91.0878C29.0795 91.0878 28.4706 90.8811 28.0424 90.4677C27.6143 90.0543 27.3744 89.534 27.3228 88.9065H28.4853ZM29.8915 87.0242C30.3344 87.0242 30.6813 86.8877 30.9323 86.6146C31.1907 86.3341 31.3198 85.965 31.3198 85.5073C31.3198 84.998 31.1833 84.6031 30.9102 84.3226C30.6444 84.0347 30.279 83.8908 29.814 83.8908C29.349 83.8908 28.9799 84.0384 28.7068 84.3337C28.441 84.6216 28.3082 85.0017 28.3082 85.4741C28.3082 85.9244 28.4374 86.2972 28.6957 86.5924C28.9614 86.8803 29.36 87.0242 29.8915 87.0242ZM39.0567 84.0015L35.9786 91.0988H34.7053L37.8166 84.1344H33.7199V83.0604H39.0567V84.0015ZM41.6872 89.5819L40.3474 92.6379H39.5281L40.3142 89.5819H41.6872ZM44.1962 88.9065C44.2701 89.2756 44.4288 89.5561 44.6723 89.748C44.9159 89.9399 45.2444 90.0359 45.6578 90.0359C46.1819 90.0359 46.5657 89.8292 46.8093 89.4158C47.0529 89.0025 47.1747 88.2976 47.1747 87.301C46.9975 87.552 46.7465 87.7476 46.4218 87.8879C46.1044 88.0207 45.7574 88.0872 45.381 88.0872C44.9012 88.0872 44.4657 87.9912 44.0744 87.7993C43.6832 87.6 43.3732 87.3084 43.1444 86.9246C42.9229 86.5334 42.8122 86.061 42.8122 85.5073C42.8122 84.6954 43.0484 84.0495 43.5208 83.5697C44.0006 83.0825 44.6576 82.8389 45.4917 82.8389C46.4956 82.8389 47.2079 83.1748 47.6286 83.8465C48.0568 84.5108 48.2708 85.5332 48.2708 86.9135C48.2708 87.8657 48.1896 88.6445 48.0272 89.2498C47.8722 89.855 47.5991 90.3127 47.2079 90.6227C46.8167 90.9327 46.2741 91.0878 45.5803 91.0878C44.7905 91.0878 44.1815 90.8811 43.7534 90.4677C43.3252 90.0543 43.0853 89.534 43.0337 88.9065H44.1962ZM45.6024 87.0242C46.0453 87.0242 46.3922 86.8877 46.6432 86.6146C46.9016 86.3341 47.0307 85.965 47.0307 85.5073C47.0307 84.998 46.8942 84.6031 46.6211 84.3226C46.3553 84.0347 45.9899 83.8908 45.5249 83.8908C45.0599 83.8908 44.6908 84.0384 44.4177 84.3337C44.152 84.6216 44.0191 85.0017 44.0191 85.4741C44.0191 85.9244 44.1483 86.2972 44.4066 86.5924C44.6723 86.8803 45.0709 87.0242 45.6024 87.0242ZM49.4862 84.1787V83.0272H51.7892V91.0988H50.5159V84.1787H49.4862ZM53.3682 89.4158V88.4636L57.0885 83.1268H58.6165V88.3197H59.6462V89.4158H58.6165V91.0988H57.3764V89.4158H53.3682ZM57.4317 84.4112L54.8187 88.3197H57.4317V84.4112ZM61.3675 91.1763C61.1386 91.1763 60.9467 91.0988 60.7917 90.9438C60.6367 90.7888 60.5592 90.5969 60.5592 90.3681C60.5592 90.1392 60.6367 89.9473 60.7917 89.7923C60.9467 89.6373 61.1386 89.5598 61.3675 89.5598C61.5889 89.5598 61.7771 89.6373 61.9322 89.7923C62.0872 89.9473 62.1647 90.1392 62.1647 90.3681C62.1647 90.5969 62.0872 90.7888 61.9322 90.9438C61.7771 91.0988 61.5889 91.1763 61.3675 91.1763ZM63.3628 86.9578C63.3628 85.6808 63.5769 84.6843 64.005 83.9683C64.4405 83.2449 65.186 82.8832 66.2416 82.8832C67.2972 82.8832 68.039 83.2449 68.4671 83.9683C68.9026 84.6843 69.1204 85.6808 69.1204 86.9578C69.1204 88.2496 68.9026 89.2608 68.4671 89.9916C68.039 90.715 67.2972 91.0767 66.2416 91.0767C65.186 91.0767 64.4405 90.715 64.005 89.9916C63.5769 89.2608 63.3628 88.2496 63.3628 86.9578ZM67.8803 86.9578C67.8803 86.3599 67.8397 85.8543 67.7585 85.4409C67.6847 85.0275 67.5297 84.6917 67.2935 84.4333C67.0573 84.1676 66.7066 84.0347 66.2416 84.0347C65.7766 84.0347 65.4259 84.1676 65.1897 84.4333C64.9535 84.6917 64.7948 85.0275 64.7136 85.4409C64.6398 85.8543 64.6029 86.3599 64.6029 86.9578C64.6029 87.5779 64.6398 88.0982 64.7136 88.519C64.7874 88.9397 64.9425 89.2793 65.1787 89.5376C65.4223 89.796 65.7766 89.9252 66.2416 89.9252C66.7066 89.9252 67.0573 89.796 67.2935 89.5376C67.5371 89.2793 67.6958 88.9397 67.7696 88.519C67.8434 88.0982 67.8803 87.5779 67.8803 86.9578ZM70.456 86.9578C70.456 85.6808 70.67 84.6843 71.0982 83.9683C71.5337 83.2449 72.2792 82.8832 73.3348 82.8832C74.3903 82.8832 75.1321 83.2449 75.5603 83.9683C75.9958 84.6843 76.2135 85.6808 76.2135 86.9578C76.2135 88.2496 75.9958 89.2608 75.5603 89.9916C75.1321 90.715 74.3903 91.0767 73.3348 91.0767C72.2792 91.0767 71.5337 90.715 71.0982 89.9916C70.67 89.2608 70.456 88.2496 70.456 86.9578ZM74.9734 86.9578C74.9734 86.3599 74.9328 85.8543 74.8517 85.4409C74.7778 85.0275 74.6228 84.6917 74.3866 84.4333C74.1504 84.1676 73.7998 84.0347 73.3348 84.0347C72.8697 84.0347 72.5191 84.1676 72.2829 84.4333C72.0467 84.6917 71.888 85.0275 71.8068 85.4409C71.733 85.8543 71.6961 86.3599 71.6961 86.9578C71.6961 87.5779 71.733 88.0982 71.8068 88.519C71.8806 88.9397 72.0356 89.2793 72.2718 89.5376C72.5154 89.796 72.8697 89.9252 73.3348 89.9252C73.7998 89.9252 74.1504 89.796 74.3866 89.5376C74.6302 89.2793 74.7889 88.9397 74.8627 88.519C74.9365 88.0982 74.9734 87.5779 74.9734 86.9578ZM83.3816 93.1583C82.6582 92.4644 82.1009 91.5823 81.7097 90.512C81.3259 89.4417 81.1339 88.2939 81.1339 87.0685C81.1339 85.8137 81.3406 84.6289 81.754 83.5143C82.1747 82.3997 82.7911 81.4807 83.6031 80.7574H84.9096V80.8791C84.0607 81.6616 83.4222 82.599 82.9941 83.6915C82.566 84.784 82.3519 85.9096 82.3519 87.0685C82.3519 88.1831 82.5512 89.2608 82.9498 90.3016C83.3484 91.3424 83.9278 92.254 84.6881 93.0365V93.1583H83.3816ZM90.7246 86.5592V87.6221H86.1739V86.5592H90.7246ZM93.0493 89.3826C93.7579 88.77 94.3152 88.268 94.7212 87.8768C95.1346 87.4782 95.4778 87.0648 95.7509 86.6367C96.0241 86.2086 96.1606 85.7805 96.1606 85.3523C96.1606 84.9094 96.0536 84.5625 95.8395 84.3115C95.6328 84.0606 95.3044 83.9351 94.8541 83.9351C94.4186 83.9351 94.079 84.0753 93.8354 84.3558C93.5992 84.6289 93.4738 84.998 93.459 85.4631H92.241C92.2632 84.6216 92.5142 83.9794 92.994 83.5365C93.4811 83.0862 94.0975 82.8611 94.843 82.8611C95.6476 82.8611 96.275 83.0825 96.7253 83.5254C97.183 83.9683 97.4118 84.5588 97.4118 85.297C97.4118 85.8284 97.2752 86.3415 97.0021 86.836C96.7364 87.3232 96.4153 87.7624 96.0388 88.1536C95.6697 88.5374 95.1973 88.984 94.6216 89.4934L94.1233 89.9362H97.6332V90.9881H92.2521V90.0691L93.0493 89.3826ZM98.72 85.0202C98.7642 84.3337 99.0263 83.7985 99.5061 83.4147C99.9933 83.0309 100.613 82.8389 101.366 82.8389C101.883 82.8389 102.33 82.9312 102.706 83.1157C103.082 83.3003 103.367 83.5512 103.559 83.8687C103.75 84.1861 103.846 84.5441 103.846 84.9427C103.846 85.4003 103.725 85.7915 103.481 86.1163C103.237 86.4411 102.946 86.6589 102.606 86.7696V86.8139C103.042 86.9467 103.381 87.1903 103.625 87.5446C103.869 87.8916 103.99 88.3381 103.99 88.8844C103.99 89.3199 103.891 89.7074 103.691 90.047C103.492 90.3865 103.197 90.6559 102.806 90.8552C102.414 91.0472 101.946 91.1431 101.399 91.1431C100.602 91.1431 99.9453 90.9401 99.4286 90.5341C98.9193 90.1208 98.6461 89.5303 98.6092 88.7626H99.8272C99.8567 89.1538 100.008 89.4749 100.281 89.7259C100.554 89.9695 100.923 90.0913 101.388 90.0913C101.839 90.0913 102.186 89.9695 102.429 89.7259C102.673 89.4749 102.795 89.1538 102.795 88.7626C102.795 88.2459 102.628 87.8805 102.296 87.6664C101.972 87.445 101.47 87.3343 100.79 87.3343H100.503V86.2935H100.802C101.399 86.2861 101.853 86.1864 102.163 85.9945C102.481 85.8026 102.64 85.5 102.64 85.0866C102.64 84.7323 102.525 84.4518 102.296 84.2451C102.067 84.031 101.743 83.924 101.322 83.924C100.909 83.924 100.587 84.031 100.359 84.2451C100.13 84.4518 99.9933 84.7101 99.949 85.0202H98.72ZM105.992 91.1763C105.763 91.1763 105.571 91.0988 105.416 90.9438C105.261 90.7888 105.183 90.5969 105.183 90.3681C105.183 90.1392 105.261 89.9473 105.416 89.7923C105.571 89.6373 105.763 89.5598 105.992 89.5598C106.213 89.5598 106.401 89.6373 106.556 89.7923C106.711 89.9473 106.789 90.1392 106.789 90.3681C106.789 90.5969 106.711 90.7888 106.556 90.9438C106.401 91.0988 106.213 91.1763 105.992 91.1763ZM107.987 86.9578C107.987 85.6808 108.201 84.6843 108.629 83.9683C109.065 83.2449 109.81 82.8832 110.866 82.8832C111.921 82.8832 112.663 83.2449 113.091 83.9683C113.527 84.6843 113.745 85.6808 113.745 86.9578C113.745 88.2496 113.527 89.2608 113.091 89.9916C112.663 90.715 111.921 91.0767 110.866 91.0767C109.81 91.0767 109.065 90.715 108.629 89.9916C108.201 89.2608 107.987 88.2496 107.987 86.9578ZM112.504 86.9578C112.504 86.3599 112.464 85.8543 112.383 85.4409C112.309 85.0275 112.154 84.6917 111.918 84.4333C111.681 84.1676 111.331 84.0347 110.866 84.0347C110.401 84.0347 110.05 84.1676 109.814 84.4333C109.578 84.6917 109.419 85.0275 109.338 85.4409C109.264 85.8543 109.227 86.3599 109.227 86.9578C109.227 87.5779 109.264 88.0982 109.338 88.519C109.412 88.9397 109.567 89.2793 109.803 89.5376C110.046 89.796 110.401 89.9252 110.866 89.9252C111.331 89.9252 111.681 89.796 111.918 89.5376C112.161 89.2793 112.32 88.9397 112.394 88.519C112.468 88.0982 112.504 87.5779 112.504 86.9578ZM115.058 85.0202C115.102 84.3337 115.364 83.7985 115.844 83.4147C116.331 83.0309 116.951 82.8389 117.704 82.8389C118.221 82.8389 118.668 82.9312 119.044 83.1157C119.42 83.3003 119.705 83.5512 119.897 83.8687C120.088 84.1861 120.184 84.5441 120.184 84.9427C120.184 85.4003 120.063 85.7915 119.819 86.1163C119.575 86.4411 119.284 86.6589 118.944 86.7696V86.8139C119.38 86.9467 119.719 87.1903 119.963 87.5446C120.207 87.8916 120.328 88.3381 120.328 88.8844C120.328 89.3199 120.229 89.7074 120.029 90.047C119.83 90.3865 119.535 90.6559 119.144 90.8552C118.752 91.0472 118.284 91.1431 117.737 91.1431C116.94 91.1431 116.283 90.9401 115.767 90.5341C115.257 90.1208 114.984 89.5303 114.947 88.7626H116.165C116.195 89.1538 116.346 89.4749 116.619 89.7259C116.892 89.9695 117.261 90.0913 117.726 90.0913C118.177 90.0913 118.524 89.9695 118.767 89.7259C119.011 89.4749 119.133 89.1538 119.133 88.7626C119.133 88.2459 118.966 87.8805 118.634 87.6664C118.31 87.445 117.808 87.3343 117.129 87.3343H116.841V86.2935H117.14C117.737 86.2861 118.191 86.1864 118.501 85.9945C118.819 85.8026 118.978 85.5 118.978 85.0866C118.978 84.7323 118.863 84.4518 118.634 84.2451C118.406 84.031 118.081 83.924 117.66 83.924C117.247 83.924 116.926 84.031 116.697 84.2451C116.468 84.4518 116.331 84.7101 116.287 85.0202H115.058ZM121.455 84.9759C121.455 84.437 121.61 84.0163 121.92 83.7136C122.237 83.4036 122.643 83.2486 123.138 83.2486C123.633 83.2486 124.035 83.4036 124.345 83.7136C124.662 84.0163 124.821 84.437 124.821 84.9759C124.821 85.5147 124.662 85.9392 124.345 86.2492C124.035 86.5592 123.633 86.7142 123.138 86.7142C122.643 86.7142 122.237 86.5592 121.92 86.2492C121.61 85.9392 121.455 85.5147 121.455 84.9759ZM128.209 83.3925L123.791 91.0988H122.551L126.969 83.3925H128.209ZM123.138 84.0126C122.673 84.0126 122.44 84.3337 122.44 84.9759C122.44 85.6254 122.673 85.9502 123.138 85.9502C123.359 85.9502 123.529 85.8727 123.647 85.7177C123.773 85.5553 123.836 85.308 123.836 84.9759C123.836 84.3337 123.603 84.0126 123.138 84.0126ZM125.961 89.5044C125.961 88.9656 126.116 88.5448 126.426 88.2422C126.744 87.9322 127.15 87.7772 127.644 87.7772C128.132 87.7772 128.53 87.9322 128.84 88.2422C129.158 88.5448 129.316 88.9656 129.316 89.5044C129.316 90.0433 129.158 90.4677 128.84 90.7777C128.53 91.0878 128.132 91.2428 127.644 91.2428C127.15 91.2428 126.744 91.0878 126.426 90.7777C126.116 90.4677 125.961 90.0433 125.961 89.5044ZM127.633 88.5411C127.168 88.5411 126.936 88.8622 126.936 89.5044C126.936 90.1466 127.168 90.4677 127.633 90.4677C128.098 90.4677 128.331 90.1466 128.331 89.5044C128.331 88.8622 128.098 88.5411 127.633 88.5411ZM130.301 93.1583V93.0365C131.061 92.254 131.641 91.3424 132.039 90.3016C132.438 89.2608 132.637 88.1831 132.637 87.0685C132.637 85.9096 132.423 84.784 131.995 83.6915C131.567 82.599 130.929 81.6616 130.08 80.8791V80.7574H131.386C132.198 81.4807 132.811 82.3997 133.224 83.5143C133.645 84.6289 133.855 85.8137 133.855 87.0685C133.855 88.2939 133.66 89.4417 133.268 90.512C132.885 91.5823 132.331 92.4644 131.608 93.1583H130.301Z" fill="white"/>
<path fill-rule="evenodd" clip-rule="evenodd" d="M114.636 67.2253H108.39C108.149 67.2253 107.954 67.0234 107.954 66.7743C107.954 66.6878 107.978 66.6031 108.024 66.5304L111.147 61.5009C111.277 61.2914 111.546 61.2307 111.749 61.3654C111.801 61.4004 111.846 61.4466 111.88 61.5009L115.003 66.5304C115.133 66.7399 115.074 67.019 114.872 67.1537C114.802 67.2004 114.72 67.2253 114.636 67.2253Z" fill="white"/>
<path d="M20.199 109.844V108.857H22.173V115.776H21.0816V109.844H20.199ZM23.6403 110.565C23.6783 109.977 23.9029 109.518 24.3142 109.189C24.7317 108.86 25.2632 108.696 25.9086 108.696C26.3514 108.696 26.7342 108.775 27.0569 108.933C27.3796 109.091 27.6232 109.306 27.7877 109.578C27.9522 109.85 28.0344 110.157 28.0344 110.499C28.0344 110.891 27.93 111.227 27.7212 111.505C27.5124 111.783 27.2625 111.97 26.9715 112.065V112.103C27.3448 112.217 27.6358 112.425 27.8446 112.729C28.0534 113.027 28.1578 113.409 28.1578 113.878C28.1578 114.251 28.0724 114.583 27.9016 114.874C27.7307 115.165 27.4777 115.396 27.1423 115.567C26.807 115.731 26.4052 115.814 25.937 115.814C25.2537 115.814 24.6906 115.64 24.2477 115.292C23.8112 114.937 23.5771 114.431 23.5454 113.773H24.5894C24.6147 114.108 24.7444 114.384 24.9785 114.599C25.2126 114.808 25.5289 114.912 25.9275 114.912C26.3135 114.912 26.6109 114.808 26.8196 114.599C27.0284 114.384 27.1328 114.108 27.1328 113.773C27.1328 113.33 26.9905 113.017 26.7058 112.834C26.4274 112.644 25.9971 112.549 25.415 112.549H25.1683V111.657H25.4245C25.937 111.65 26.3261 111.565 26.5919 111.401C26.8639 111.236 27 110.977 27 110.622C27 110.319 26.9019 110.078 26.7058 109.901C26.5096 109.718 26.2312 109.626 25.8706 109.626C25.5163 109.626 25.2411 109.718 25.0449 109.901C24.8488 110.078 24.7317 110.3 24.6938 110.565H23.6403ZM29.1519 109.844V108.857H31.126V115.776H30.0345V109.844H29.1519ZM33.9409 114.475L32.7926 117.095H32.0903L32.7641 114.475H33.9409ZM34.7439 112.226C34.7439 111.132 34.9274 110.277 35.2944 109.664C35.6677 109.044 36.3067 108.734 37.2114 108.734C38.1162 108.734 38.7521 109.044 39.119 109.664C39.4923 110.277 39.679 111.132 39.679 112.226C39.679 113.333 39.4923 114.2 39.119 114.827C38.7521 115.447 38.1162 115.757 37.2114 115.757C36.3067 115.757 35.6677 115.447 35.2944 114.827C34.9274 114.2 34.7439 113.333 34.7439 112.226ZM38.616 112.226C38.616 111.714 38.5812 111.28 38.5116 110.926C38.4484 110.572 38.3155 110.284 38.113 110.062C37.9106 109.835 37.61 109.721 37.2114 109.721C36.8128 109.721 36.5123 109.835 36.3098 110.062C36.1074 110.284 35.9713 110.572 35.9018 110.926C35.8385 111.28 35.8068 111.714 35.8068 112.226C35.8068 112.758 35.8385 113.204 35.9018 113.564C35.965 113.925 36.0979 114.216 36.3004 114.437C36.5091 114.659 36.8128 114.77 37.2114 114.77C37.61 114.77 37.9106 114.659 38.113 114.437C38.3218 114.216 38.4579 113.925 38.5211 113.564C38.5844 113.204 38.616 112.758 38.616 112.226ZM40.6909 114.333V113.517L43.8797 108.942H45.1894V113.394H46.072V114.333H45.1894V115.776H44.1264V114.333H40.6909ZM44.1739 110.043L41.9341 113.394H44.1739V110.043ZM46.9685 112.226C46.9685 111.132 47.152 110.277 47.5189 109.664C47.8922 109.044 48.5312 108.734 49.436 108.734C50.3408 108.734 50.9766 109.044 51.3436 109.664C51.7169 110.277 51.9035 111.132 51.9035 112.226C51.9035 113.333 51.7169 114.2 51.3436 114.827C50.9766 115.447 50.3408 115.757 49.436 115.757C48.5312 115.757 47.8922 115.447 47.5189 114.827C47.152 114.2 46.9685 113.333 46.9685 112.226ZM50.8406 112.226C50.8406 111.714 50.8058 111.28 50.7362 110.926C50.6729 110.572 50.5401 110.284 50.3376 110.062C50.1351 109.835 49.8346 109.721 49.436 109.721C49.0374 109.721 48.7369 109.835 48.5344 110.062C48.3319 110.284 48.1959 110.572 48.1263 110.926C48.0631 111.28 48.0314 111.714 48.0314 112.226C48.0314 112.758 48.0631 113.204 48.1263 113.564C48.1896 113.925 48.3225 114.216 48.5249 114.437C48.7337 114.659 49.0374 114.77 49.436 114.77C49.8346 114.77 50.1351 114.659 50.3376 114.437C50.5464 114.216 50.6824 113.925 50.7457 113.564C50.809 113.204 50.8406 112.758 50.8406 112.226ZM54.377 114.475L53.2287 117.095H52.5264L53.2002 114.475H54.377ZM59.5646 109.692L56.9262 115.776H55.8348L58.5017 109.806H54.9902V108.886H59.5646V109.692ZM61.0885 114.305C61.6959 113.779 62.1736 113.349 62.5215 113.014C62.8759 112.672 63.1701 112.318 63.4042 111.951C63.6383 111.584 63.7553 111.217 63.7553 110.85C63.7553 110.47 63.6636 110.173 63.4801 109.958C63.3029 109.743 63.0214 109.635 62.6354 109.635C62.2621 109.635 61.9711 109.756 61.7623 109.996C61.5598 110.23 61.4523 110.546 61.4396 110.945H60.3957C60.4147 110.224 60.6298 109.673 61.041 109.294C61.4586 108.908 61.9869 108.715 62.6259 108.715C63.3156 108.715 63.8534 108.905 64.2393 109.284C64.6316 109.664 64.8277 110.17 64.8277 110.803C64.8277 111.258 64.7107 111.698 64.4766 112.122C64.2488 112.539 63.9736 112.916 63.6509 113.251C63.3346 113.58 62.9296 113.963 62.4361 114.4L62.0091 114.779H65.0175V115.681H60.4052V114.893L61.0885 114.305ZM65.949 110.565C65.987 109.977 66.2116 109.518 66.6229 109.189C67.0404 108.86 67.5719 108.696 68.2173 108.696C68.6601 108.696 69.0429 108.775 69.3656 108.933C69.6883 109.091 69.9319 109.306 70.0964 109.578C70.2609 109.85 70.3431 110.157 70.3431 110.499C70.3431 110.891 70.2387 111.227 70.0299 111.505C69.8211 111.783 69.5712 111.97 69.2802 112.065V112.103C69.6535 112.217 69.9445 112.425 70.1533 112.729C70.3621 113.027 70.4665 113.409 70.4665 113.878C70.4665 114.251 70.3811 114.583 70.2103 114.874C70.0394 115.165 69.7864 115.396 69.451 115.567C69.1157 115.731 68.7139 115.814 68.2457 115.814C67.5624 115.814 66.9993 115.64 66.5564 115.292C66.1199 114.937 65.8858 114.431 65.8541 113.773H66.8981C66.9234 114.108 67.0531 114.384 67.2872 114.599C67.5213 114.808 67.8376 114.912 68.2362 114.912C68.6222 114.912 68.9196 114.808 69.1283 114.599C69.3371 114.384 69.4415 114.108 69.4415 113.773C69.4415 113.33 69.2992 113.017 69.0145 112.834C68.7361 112.644 68.3058 112.549 67.7238 112.549H67.477V111.657H67.7332C68.2457 111.65 68.6348 111.565 68.9006 111.401C69.1726 111.236 69.3087 110.977 69.3087 110.622C69.3087 110.319 69.2106 110.078 69.0145 109.901C68.8183 109.718 68.5399 109.626 68.1793 109.626C67.825 109.626 67.5498 109.718 67.3536 109.901C67.1575 110.078 67.0404 110.3 67.0025 110.565H65.949ZM72.9317 114.475L71.7833 117.095H71.081L71.7548 114.475H72.9317ZM73.5923 109.844V108.857H75.5663V115.776H74.4749V109.844H73.5923ZM77.0526 112.226C77.0526 111.132 77.2361 110.277 77.6031 109.664C77.9763 109.044 78.6154 108.734 79.5201 108.734C80.4249 108.734 81.0608 109.044 81.4277 109.664C81.801 110.277 81.9877 111.132 81.9877 112.226C81.9877 113.333 81.801 114.2 81.4277 114.827C81.0608 115.447 80.4249 115.757 79.5201 115.757C78.6154 115.757 77.9763 115.447 77.6031 114.827C77.2361 114.2 77.0526 113.333 77.0526 112.226ZM80.9247 112.226C80.9247 111.714 80.8899 111.28 80.8203 110.926C80.7571 110.572 80.6242 110.284 80.4217 110.062C80.2193 109.835 79.9187 109.721 79.5201 109.721C79.1215 109.721 78.821 109.835 78.6185 110.062C78.4161 110.284 78.28 110.572 78.2104 110.926C78.1472 111.28 78.1155 111.714 78.1155 112.226C78.1155 112.758 78.1472 113.204 78.2104 113.564C78.2737 113.925 78.4066 114.216 78.609 114.437C78.8178 114.659 79.1215 114.77 79.5201 114.77C79.9187 114.77 80.2193 114.659 80.4217 114.437C80.6305 114.216 80.7666 113.925 80.8298 113.564C80.8931 113.204 80.9247 112.758 80.9247 112.226ZM84.2998 112.16C83.6418 111.831 83.3128 111.312 83.3128 110.603C83.3128 110.262 83.3982 109.948 83.569 109.664C83.7398 109.379 83.9961 109.154 84.3378 108.99C84.6794 108.819 85.097 108.734 85.5905 108.734C86.0777 108.734 86.4921 108.819 86.8338 108.99C87.1817 109.154 87.4411 109.379 87.612 109.664C87.7828 109.948 87.8682 110.262 87.8682 110.603C87.8682 110.958 87.7765 111.271 87.593 111.543C87.4158 111.809 87.1786 112.014 86.8812 112.16C87.2418 112.293 87.5266 112.511 87.7353 112.815C87.9441 113.112 88.0485 113.463 88.0485 113.868C88.0485 114.279 87.9441 114.643 87.7353 114.959C87.5266 115.276 87.2355 115.519 86.8622 115.69C86.4889 115.861 86.065 115.946 85.5905 115.946C85.116 115.946 84.6921 115.861 84.3188 115.69C83.9518 115.519 83.6639 115.276 83.4551 114.959C83.2463 114.643 83.1419 114.279 83.1419 113.868C83.1419 113.457 83.2463 113.102 83.4551 112.805C83.6639 112.508 83.9455 112.293 84.2998 112.16ZM86.8338 110.736C86.8338 110.382 86.723 110.11 86.5016 109.92C86.2801 109.73 85.9764 109.635 85.5905 109.635C85.2109 109.635 84.9103 109.73 84.6889 109.92C84.4675 110.11 84.3567 110.385 84.3567 110.746C84.3567 111.062 84.4706 111.321 84.6984 111.524C84.9325 111.72 85.2299 111.818 85.5905 111.818C85.9511 111.818 86.2485 111.717 86.4826 111.514C86.7167 111.312 86.8338 111.053 86.8338 110.736ZM85.5905 112.634C85.1729 112.634 84.8313 112.739 84.5655 112.947C84.3061 113.15 84.1764 113.444 84.1764 113.83C84.1764 114.191 84.303 114.485 84.556 114.713C84.8091 114.934 85.1539 115.045 85.5905 115.045C86.0207 115.045 86.3592 114.931 86.606 114.703C86.8591 114.475 86.9856 114.184 86.9856 113.83C86.9856 113.45 86.8559 113.156 86.5965 112.947C86.3434 112.739 86.0081 112.634 85.5905 112.634ZM95.3891 109.18V113.934C95.3891 114.523 95.2087 114.988 94.8481 115.33C94.4938 115.671 94.0256 115.842 93.4435 115.842C92.8614 115.842 92.3901 115.671 92.0294 115.33C91.6751 114.988 91.498 114.523 91.498 113.934H92.5894C92.5957 114.226 92.6685 114.456 92.8076 114.627C92.9532 114.798 93.1651 114.884 93.4435 114.884C93.7219 114.884 93.9339 114.798 94.0794 114.627C94.2249 114.45 94.2977 114.219 94.2977 113.934V109.18H95.3891ZM101.761 111.144C101.761 111.48 101.682 111.796 101.524 112.093C101.366 112.391 101.113 112.634 100.765 112.824C100.417 113.008 99.9709 113.099 99.4268 113.099H98.231V115.776H97.1491V109.18H99.4268C99.933 109.18 100.36 109.268 100.708 109.445C101.062 109.616 101.325 109.85 101.496 110.148C101.673 110.445 101.761 110.777 101.761 111.144ZM99.4268 112.217C99.8381 112.217 100.145 112.125 100.347 111.941C100.55 111.752 100.651 111.486 100.651 111.144C100.651 110.423 100.243 110.062 99.4268 110.062H98.231V112.217H99.4268ZM107.681 109.18L105.498 113.384V115.776H104.416V113.384L102.224 109.18H103.429L104.957 112.416L106.485 109.18H107.681Z" fill="#FFEEB3"/>
<path d="M21.5656 39.7692H23.7959V40.6423H20.4837V34.0464H21.5656V39.7692ZM26.9689 40.7277C26.4754 40.7277 26.0293 40.617 25.6307 40.3956C25.2321 40.1678 24.9189 39.8515 24.6912 39.4465C24.4634 39.0353 24.3495 38.5608 24.3495 38.023C24.3495 37.4915 24.4666 37.0201 24.7007 36.6089C24.9348 36.1976 25.2543 35.8813 25.6592 35.6598C26.0641 35.4384 26.5165 35.3277 27.0163 35.3277C27.5162 35.3277 27.9686 35.4384 28.3735 35.6598C28.7784 35.8813 29.0979 36.1976 29.332 36.6089C29.5661 37.0201 29.6832 37.4915 29.6832 38.023C29.6832 38.5544 29.563 39.0258 29.3225 39.437C29.0821 39.8483 28.7531 40.1678 28.3355 40.3956C27.9243 40.617 27.4687 40.7277 26.9689 40.7277ZM26.9689 39.7882C27.2473 39.7882 27.5067 39.7218 27.7471 39.5889C27.9939 39.456 28.1932 39.2567 28.345 38.991C28.4969 38.7253 28.5728 38.4026 28.5728 38.023C28.5728 37.6433 28.5 37.3238 28.3545 37.0644C28.209 36.7987 28.016 36.5994 27.7756 36.4665C27.5352 36.3337 27.2758 36.2672 26.9974 36.2672C26.719 36.2672 26.4596 36.3337 26.2191 36.4665C25.985 36.5994 25.7984 36.7987 25.6592 37.0644C25.52 37.3238 25.4504 37.6433 25.4504 38.023C25.4504 38.5861 25.5928 39.0226 25.8775 39.3326C26.1685 39.6363 26.5323 39.7882 26.9689 39.7882ZM31.8346 36.1723C31.9928 35.9066 32.2016 35.701 32.461 35.5554C32.7267 35.4036 33.0399 35.3277 33.4006 35.3277V36.4475H33.1253C32.7014 36.4475 32.3787 36.5551 32.1573 36.7702C31.9422 36.9853 31.8346 37.3586 31.8346 37.8901V40.6423H30.7527V35.4131H31.8346V36.1723ZM39.1878 37.8996C39.1878 38.0957 39.1751 38.2729 39.1498 38.431H35.1543C35.1859 38.8486 35.3409 39.184 35.6193 39.437C35.8977 39.6901 36.2394 39.8167 36.6443 39.8167C37.2264 39.8167 37.6376 39.5731 37.8781 39.0859H39.0454C38.8872 39.5667 38.5993 39.9622 38.1818 40.2722C37.7705 40.5759 37.258 40.7277 36.6443 40.7277C36.1445 40.7277 35.6953 40.617 35.2967 40.3956C34.9044 40.1678 34.5944 39.8515 34.3666 39.4465C34.1451 39.0353 34.0344 38.5608 34.0344 38.023C34.0344 37.4852 34.142 37.0138 34.3571 36.6089C34.5785 36.1976 34.8854 35.8813 35.2777 35.6598C35.6763 35.4384 36.1318 35.3277 36.6443 35.3277C37.1378 35.3277 37.5775 35.4352 37.9635 35.6503C38.3494 35.8655 38.65 36.1691 38.8651 36.5614C39.0802 36.9474 39.1878 37.3934 39.1878 37.8996ZM38.0584 37.5579C38.0521 37.1593 37.9097 36.8398 37.6313 36.5994C37.3529 36.359 37.0081 36.2387 36.5969 36.2387C36.2236 36.2387 35.904 36.359 35.6383 36.5994C35.3726 36.8335 35.2144 37.153 35.1638 37.5579H38.0584ZM46.5826 35.3277C46.9939 35.3277 47.3609 35.4131 47.6835 35.5839C48.0125 35.7547 48.2688 36.0078 48.4523 36.3431C48.6421 36.6785 48.737 37.0834 48.737 37.5579V40.6423H47.6646V37.7193C47.6646 37.2511 47.5475 36.8936 47.3134 36.6468C47.0793 36.3938 46.7598 36.2672 46.3549 36.2672C45.9499 36.2672 45.6273 36.3938 45.3868 36.6468C45.1527 36.8936 45.0357 37.2511 45.0357 37.7193V40.6423H43.9633V37.7193C43.9633 37.2511 43.8462 36.8936 43.6121 36.6468C43.378 36.3938 43.0585 36.2672 42.6536 36.2672C42.2486 36.2672 41.926 36.3938 41.6855 36.6468C41.4514 36.8936 41.3344 37.2511 41.3344 37.7193V40.6423H40.2525V35.4131H41.3344V36.011C41.5115 35.7959 41.7362 35.6282 42.0082 35.508C42.2803 35.3878 42.5713 35.3277 42.8813 35.3277C43.2989 35.3277 43.6722 35.4162 44.0012 35.5934C44.3302 35.7705 44.5833 36.0268 44.7605 36.3621C44.9186 36.0458 45.1654 35.7959 45.5007 35.6124C45.836 35.4226 46.1967 35.3277 46.5826 35.3277ZM53.6609 34.0464V40.6423H52.579V34.0464H53.6609ZM56.1633 36.1818C56.3468 35.9414 56.5967 35.7389 56.913 35.5744C57.2294 35.4099 57.5869 35.3277 57.9855 35.3277C58.441 35.3277 58.8554 35.4415 59.2287 35.6693C59.6083 35.8908 59.9057 36.2039 60.1208 36.6089C60.3359 37.0138 60.4435 37.4788 60.4435 38.004C60.4435 38.5291 60.3359 39.0005 60.1208 39.4181C59.9057 39.8293 59.6083 40.152 59.2287 40.3861C58.8554 40.6139 58.441 40.7277 57.9855 40.7277C57.5869 40.7277 57.2326 40.6487 56.9225 40.4905C56.6125 40.326 56.3594 40.1235 56.1633 39.8831V43.1288H55.0814V35.4131H56.1633V36.1818ZM59.3426 38.004C59.3426 37.6433 59.2667 37.3333 59.1148 37.0739C58.9693 36.8082 58.7732 36.6089 58.5264 36.476C58.286 36.3368 58.0266 36.2672 57.7482 36.2672C57.4761 36.2672 57.2167 36.3368 56.97 36.476C56.7296 36.6152 56.5334 36.8177 56.3816 37.0834C56.2361 37.3491 56.1633 37.6623 56.1633 38.023C56.1633 38.3836 56.2361 38.6999 56.3816 38.972C56.5334 39.2377 56.7296 39.4402 56.97 39.5794C57.2167 39.7186 57.4761 39.7882 57.7482 39.7882C58.0266 39.7882 58.286 39.7186 58.5264 39.5794C58.7732 39.4339 58.9693 39.2251 59.1148 38.953C59.2667 38.681 59.3426 38.3646 59.3426 38.004ZM63.4115 40.7277C63.0002 40.7277 62.6301 40.655 62.3011 40.5095C61.9784 40.3576 61.7222 40.1552 61.5324 39.9021C61.3426 39.6427 61.2413 39.3548 61.2287 39.0384H62.3486C62.3675 39.2599 62.4719 39.4465 62.6618 39.5984C62.8579 39.7439 63.1015 39.8167 63.3925 39.8167C63.6962 39.8167 63.9303 39.7597 64.0948 39.6458C64.2656 39.5256 64.3511 39.3738 64.3511 39.1903C64.3511 38.9942 64.2562 38.8486 64.0663 38.7537C63.8829 38.6588 63.5887 38.5544 63.1837 38.4405C62.7915 38.333 62.4719 38.2286 62.2252 38.1274C61.9784 38.0261 61.7633 37.8711 61.5798 37.6623C61.4027 37.4535 61.3141 37.1783 61.3141 36.8366C61.3141 36.5583 61.3964 36.3052 61.5609 36.0774C61.7254 35.8433 61.9595 35.6598 62.2632 35.527C62.5732 35.3941 62.9275 35.3277 63.3261 35.3277C63.9208 35.3277 64.3985 35.4795 64.7592 35.7832C65.1261 36.0806 65.3223 36.4887 65.3476 37.0075H64.2656C64.2467 36.7734 64.1518 36.5867 63.9809 36.4475C63.8101 36.3083 63.5792 36.2387 63.2881 36.2387C63.0034 36.2387 62.7851 36.2925 62.6333 36.4001C62.4814 36.5076 62.4055 36.65 62.4055 36.8272C62.4055 36.9663 62.4561 37.0834 62.5574 37.1783C62.6586 37.2732 62.782 37.3491 62.9275 37.4061C63.073 37.4567 63.2881 37.5231 63.5728 37.6054C63.9525 37.7066 64.2625 37.811 64.5029 37.9186C64.7497 38.0198 64.9616 38.1716 65.1388 38.3741C65.3159 38.5766 65.4077 38.8455 65.414 39.1808C65.414 39.4782 65.3317 39.7439 65.1672 39.978C65.0027 40.2121 64.7686 40.3956 64.4649 40.5284C64.1676 40.6613 63.8164 40.7277 63.4115 40.7277ZM71.3188 35.4131V40.6423H70.2369V40.0255C70.066 40.2406 69.8414 40.4114 69.5631 40.5379C69.291 40.6582 68.9999 40.7183 68.6899 40.7183C68.2787 40.7183 67.9085 40.6328 67.5795 40.462C67.2569 40.2912 67.0006 40.0381 66.8108 39.7028C66.6273 39.3674 66.5356 38.9625 66.5356 38.488V35.4131H67.608V38.3267C67.608 38.7949 67.7251 39.1555 67.9592 39.4086C68.1933 39.6553 68.5128 39.7787 68.9177 39.7787C69.3226 39.7787 69.6421 39.6553 69.8762 39.4086C70.1167 39.1555 70.2369 38.7949 70.2369 38.3267V35.4131H71.3188ZM79.0765 35.3277C79.4877 35.3277 79.8547 35.4131 80.1774 35.5839C80.5064 35.7547 80.7626 36.0078 80.9461 36.3431C81.1359 36.6785 81.2308 37.0834 81.2308 37.5579V40.6423H80.1584V37.7193C80.1584 37.2511 80.0413 36.8936 79.8072 36.6468C79.5731 36.3938 79.2536 36.2672 78.8487 36.2672C78.4438 36.2672 78.1211 36.3938 77.8807 36.6468C77.6466 36.8936 77.5295 37.2511 77.5295 37.7193V40.6423H76.4571V37.7193C76.4571 37.2511 76.34 36.8936 76.1059 36.6468C75.8718 36.3938 75.5523 36.2672 75.1474 36.2672C74.7425 36.2672 74.4198 36.3938 74.1794 36.6468C73.9453 36.8936 73.8282 37.2511 73.8282 37.7193V40.6423H72.7463V35.4131H73.8282V36.011C74.0054 35.7959 74.23 35.6282 74.502 35.508C74.7741 35.3878 75.0651 35.3277 75.3752 35.3277C75.7927 35.3277 76.166 35.4162 76.495 35.5934C76.824 35.7705 77.0771 36.0268 77.2543 36.3621C77.4125 36.0458 77.6592 35.7959 77.9945 35.6124C78.3299 35.4226 78.6905 35.3277 79.0765 35.3277Z" fill="#FFEEB3"/>
<path d="M26.6557 17.0435V18.4734H24.302V25.876H22.5305V18.4734H20.1768V17.0435H26.6557ZM30.1153 17.0435V25.876H28.3437V17.0435H30.1153ZM41.8907 17.0435V25.876H40.1191V20.131L37.7528 25.876H36.4115L34.0326 20.131V25.876H32.261V17.0435H34.273L37.0822 23.6109L39.8914 17.0435H41.8907ZM45.8092 18.4734V20.6878H48.7829V22.0924H45.8092V24.4334H49.1625V25.876H44.0376V17.0308H49.1625V18.4734H45.8092ZM60.5891 17.0435V18.4734H58.2355V25.876H56.4639V18.4734H54.1103V17.0435H60.5891ZM66.3771 25.9645C65.5503 25.9645 64.7911 25.7705 64.0993 25.3824C63.4076 24.9944 62.8593 24.4587 62.4543 23.7754C62.0494 23.0836 61.8469 22.3033 61.8469 21.4344C61.8469 20.5739 62.0494 19.802 62.4543 19.1187C62.8593 18.427 63.4076 17.8871 64.0993 17.499C64.7911 17.111 65.5503 16.9169 66.3771 16.9169C67.2122 16.9169 67.9715 17.111 68.6548 17.499C69.3465 17.8871 69.8907 18.427 70.2871 19.1187C70.6921 19.802 70.8945 20.5739 70.8945 21.4344C70.8945 22.3033 70.6921 23.0836 70.2871 23.7754C69.8907 24.4587 69.3465 24.9944 68.6548 25.3824C67.963 25.7705 67.2038 25.9645 66.3771 25.9645ZM66.3771 24.3828C66.9085 24.3828 67.3767 24.2647 67.7817 24.0285C68.1866 23.7838 68.5029 23.438 68.7307 22.9908C68.9585 22.5437 69.0724 22.0249 69.0724 21.4344C69.0724 20.8439 68.9585 20.3293 68.7307 19.8906C68.5029 19.4435 68.1866 19.1019 67.7817 18.8656C67.3767 18.6294 66.9085 18.5113 66.3771 18.5113C65.8456 18.5113 65.3732 18.6294 64.9598 18.8656C64.5549 19.1019 64.2385 19.4435 64.0108 19.8906C63.783 20.3293 63.6691 20.8439 63.6691 21.4344C63.6691 22.0249 63.783 22.5437 64.0108 22.9908C64.2385 23.438 64.5549 23.7838 64.9598 24.0285C65.3732 24.2647 65.8456 24.3828 66.3771 24.3828ZM85.6483 17.0435V25.876H83.8767V20.131L81.5104 25.876H80.1691L77.7902 20.131V25.876H76.0186V17.0435H78.0306L80.8398 23.6109L83.649 17.0435H85.6483ZM93.2111 24.193H89.6933L89.1112 25.876H87.2511L90.4273 17.0308H92.4899L95.666 25.876H93.7932L93.2111 24.193ZM92.7303 22.7757L91.4522 19.0808L90.1742 22.7757H92.7303ZM101.804 25.876L99.8554 22.4341H99.0202V25.876H97.2487V17.0435H100.564C101.247 17.0435 101.829 17.1658 102.31 17.4104C102.791 17.6466 103.15 17.9714 103.386 18.3848C103.63 18.7897 103.753 19.2453 103.753 19.7514C103.753 20.3335 103.584 20.8608 103.247 21.3332C102.909 21.7972 102.407 22.1177 101.741 22.2949L103.854 25.876H101.804ZM99.0202 21.1054H100.501C100.982 21.1054 101.34 20.9915 101.576 20.7637C101.813 20.5275 101.931 20.2027 101.931 19.7894C101.931 19.3845 101.813 19.0723 101.576 18.853C101.34 18.6252 100.982 18.5113 100.501 18.5113H99.0202V21.1054ZM110.736 25.876L107.522 21.9406V25.876H105.751V17.0435H107.522V21.0042L110.736 17.0435H112.875L109.23 21.4217L112.976 25.876H110.736ZM116.308 18.4734V20.6878H119.282V22.0924H116.308V24.4334H119.662V25.876H114.537V17.0308H119.662V18.4734H116.308ZM127.678 17.0435V18.4734H125.324V25.876H123.552V18.4734H121.199V17.0435H127.678Z" fill="white"/>
</g>
</g>
</g>
<defs>
<filter id="filter0_d_1_1916" x="-4.13504" y="-4.13504" width="216.27" height="142.719" filterUnits="userSpaceOnUse" color-interpolation-filters="sRGB">
<feFlood flood-opacity="0" result="BackgroundImageFix"/>
<feColorMatrix in="SourceAlpha" type="matrix" values="0 0 0 0 0 0 0 0 0 0 0 0 0 0 0 0 0 0 127 0" result="hardAlpha"/>
<feOffset/>
<feGaussianBlur stdDeviation="2.06575"/>
<feComposite in2="hardAlpha" operator="out"/>
<feColorMatrix type="matrix" values="0 0 0 0 0.42908 0 0 0 0 0.42908 0 0 0 0 0.42908 0 0 0 0.5 0"/>
<feBlend mode="normal" in2="BackgroundImageFix" result="effect1_dropShadow_1_1916"/>
<feBlend mode="normal" in="SourceGraphic" in2="effect1_dropShadow_1_1916" result="shape"/>
</filter>
<clipPath id="clip0_1_1916">
<rect width="208" height="134.449" rx="10.3288" fill="white"/>
</clipPath>
</defs>
</svg>
