<svg width="15" height="15" viewBox="0 0 15 15" fill="none" xmlns="http://www.w3.org/2000/svg">
<path fill-rule="evenodd" clip-rule="evenodd" d="M7.49999 1.24994C4.04374 1.24994 1.25 4.04368 1.25 7.49992C1.25 10.9562 4.04374 13.7499 7.49999 13.7499C10.9562 13.7499 13.75 10.9562 13.75 7.49992C13.75 4.04368 10.9562 1.24994 7.49999 1.24994ZM7.49999 12.4999C4.74374 12.4999 2.5 10.2562 2.5 7.49992C2.5 4.74368 4.74374 2.49994 7.49999 2.49994C10.2562 2.49994 12.5 4.74368 12.5 7.49992C12.5 10.2562 10.2562 12.4999 7.49999 12.4999ZM7.49999 6.61868L9.74373 4.37493L10.625 5.25618L8.38123 7.49992L10.625 9.74367L9.74373 10.6249L7.49999 8.38117L5.25624 10.6249L4.37499 9.74367L6.61874 7.49992L4.37499 5.25618L5.25624 4.37493L7.49999 6.61868Z" fill="#539BBB"/>
</svg>
