<svg width="22" height="21" viewBox="0 0 22 21" fill="none" xmlns="http://www.w3.org/2000/svg">
<path d="M16.0041 8.60536L17.9237 9.64378L18.3256 9.86956C19.1818 10.3506 19.1818 11.5907 18.3256 12.0717L12.8732 15.1351C11.6086 15.8455 10.0687 15.8455 8.80421 15.1351L3.35177 12.0717C2.4956 11.5907 2.4956 10.3506 3.35177 9.86956L3.75364 9.64378L5.56686 8.60536M16.4216 13.2288L18.1665 14.1071C19.0664 14.5601 19.0953 15.8425 18.2167 16.3361L12.8732 19.3382C11.6086 20.0487 10.0687 20.0487 8.80421 19.3382L3.53862 16.3798C2.64497 15.8778 2.69421 14.5671 3.62298 14.1344L5.56686 13.2288M12.8732 10.6682L18.3256 7.60488C19.1818 7.12385 19.1818 5.88373 18.3256 5.4027L12.8732 2.33935C11.6086 1.6289 10.0687 1.6289 8.80421 2.33935L3.35177 5.4027C2.4956 5.88372 2.4956 7.12385 3.35177 7.60488L8.80421 10.6682C10.0687 11.3787 11.6086 11.3787 12.8732 10.6682Z" stroke="#FEFEFE" stroke-width="1.33333"/>
</svg>
