<svg width="22" height="21" viewBox="0 0 22 21" fill="none" xmlns="http://www.w3.org/2000/svg">
<circle cx="2.66667" cy="2.66667" r="2.66667" transform="matrix(-1.01613 0 0 1.01613 13.5484 8.12905)" stroke="#FEFEFE" stroke-width="1.33333"/>
<path d="M14.9033 4.45974L14.5646 5.0464V5.0464L14.9033 4.45974ZM14.9033 17.2175L15.242 17.8042L15.242 17.8042L14.9033 17.2175ZM6.77425 17.2175L7.11296 16.6308L6.77425 17.2175ZM6.77424 4.45974L7.11296 5.04641L6.77424 4.45974ZM8.05948 2.72335L8.71946 2.87606L8.05948 2.72335ZM8.61606 2.08203L8.44988 1.4253L8.61606 2.08203ZM2.62516 8.74646L3.05592 8.22363L2.62516 8.74646ZM4.79782 16.9267L4.95334 17.5861L4.79782 16.9267ZM3.97689 16.7125L4.49131 16.2717L3.97689 16.7125ZM8.61614 19.5956L8.44997 20.2523L8.61614 19.5956ZM8.05954 18.9542L7.39954 19.1068L8.05954 18.9542ZM13.618 18.9541L14.278 19.1068L13.618 18.9541ZM13.0614 19.5955L12.8952 18.9388L13.0614 19.5955ZM17.7006 16.7125L18.215 17.1532L17.7006 16.7125ZM16.8796 16.9267L17.0351 16.2674L16.8796 16.9267ZM19.3685 7.86075L20.0081 7.63748L19.3685 7.86075ZM19.0523 8.74649L18.6215 8.22367L19.0523 8.74649ZM2.62516 12.9311L2.1944 12.4083L2.62516 12.9311ZM17.7003 4.96484L17.1859 5.40562L17.7003 4.96484ZM3.97713 4.9648L3.46272 4.52402L3.97713 4.9648ZM4.79798 4.75056L4.6425 5.4099L4.79798 4.75056ZM19.0523 12.9311L19.483 12.4083L19.0523 12.9311ZM19.3685 13.8168L20.0081 14.0401L19.3685 13.8168ZM13.0616 2.08208L12.8954 2.7388L13.0616 2.08208ZM12.9581 2.8761C13.1621 3.75753 13.7181 4.55767 14.5646 5.0464L15.2421 3.87308C14.7341 3.57981 14.4009 3.10156 14.2781 2.57067L12.9581 2.8761ZM14.5646 5.0464C15.3422 5.49536 16.2254 5.60079 17.0349 5.40993L16.724 4.09124C16.2371 4.20605 15.7091 4.14271 15.2421 3.87308L14.5646 5.0464ZM20.0081 7.63748C19.6056 6.48466 18.9923 5.4315 18.2147 4.52406L17.1859 5.40562C17.8556 6.1872 18.3831 7.09336 18.729 8.08402L20.0081 7.63748ZM18.7419 10.8388C18.7419 10.2071 19.0293 9.64312 19.483 9.2693L18.6215 8.22367C17.8688 8.84381 17.3871 9.78533 17.3871 10.8388H18.7419ZM19.483 12.4083C19.0293 12.0345 18.7419 11.4705 18.7419 10.8388H17.3871C17.3871 11.8922 17.8688 12.8338 18.6215 13.4539L19.483 12.4083ZM18.215 17.1532C18.9924 16.2458 19.6057 15.1928 20.0081 14.0401L18.729 13.5935C18.3832 14.5841 17.8557 15.4902 17.1861 16.2717L18.215 17.1532ZM15.242 17.8042C15.7091 17.5345 16.2371 17.4712 16.7241 17.586L17.0351 16.2674C16.2255 16.0764 15.3423 16.1819 14.5646 16.6308L15.242 17.8042ZM14.278 19.1068C14.4008 18.5758 14.734 18.0975 15.242 17.8042L14.5646 16.6308C13.718 17.1196 13.1619 17.9199 12.958 18.8015L14.278 19.1068ZM10.8387 20.5485C11.6622 20.5485 12.4627 20.4458 13.2276 20.2523L12.8952 18.9388C12.2381 19.1051 11.5492 19.1936 10.8387 19.1936V20.5485ZM8.44997 20.2523C9.21487 20.4458 10.0153 20.5485 10.8387 20.5485V19.1936C10.1283 19.1936 9.43945 19.1051 8.78231 18.9388L8.44997 20.2523ZM6.43553 17.8042C6.94355 18.0975 7.27674 18.5758 7.39954 19.1068L8.71954 18.8015C8.51565 17.9199 7.95958 17.1196 7.11296 16.6308L6.43553 17.8042ZM4.95334 17.5861C5.44037 17.4712 5.96846 17.5345 6.43553 17.8042L7.11296 16.6308C6.33523 16.1818 5.45192 16.0764 4.6423 16.2674L4.95334 17.5861ZM1.66934 14.0401C2.07175 15.1928 2.68503 16.2459 3.46246 17.1533L4.49131 16.2717C3.8217 15.4902 3.29428 14.5841 2.94847 13.5936L1.66934 14.0401ZM2.93552 10.8388C2.93552 11.4705 2.64812 12.0345 2.1944 12.4083L3.05592 13.4539C3.80861 12.8338 4.29036 11.8923 4.29036 10.8388H2.93552ZM2.1944 9.26928C2.64812 9.6431 2.93552 10.2071 2.93552 10.8388H4.29036C4.29036 9.78531 3.80861 8.84378 3.05592 8.22363L2.1944 9.26928ZM3.46272 4.52402C2.68516 5.43146 2.07179 6.48462 1.66934 7.63743L2.94847 8.08399C3.29432 7.09333 3.82181 6.18716 4.49153 5.40558L3.46272 4.52402ZM6.43553 3.87308C5.96849 4.14272 5.44046 4.20606 4.95346 4.09122L4.6425 5.4099C5.45207 5.6008 6.3353 5.49538 7.11296 5.04641L6.43553 3.87308ZM7.3995 2.57065C7.27666 3.10155 6.94349 3.57981 6.43553 3.87308L7.11296 5.04641C7.95948 4.55766 8.51552 3.7575 8.71946 2.87606L7.3995 2.57065ZM10.8387 1.12909C10.0153 1.12909 9.21481 1.23175 8.44988 1.4253L8.78224 2.73875C9.4394 2.57246 10.1282 2.48393 10.8387 2.48393V1.12909ZM13.2278 1.42536C12.4628 1.23177 11.6622 1.12909 10.8387 1.12909V2.48393C11.5492 2.48393 12.2381 2.57248 12.8954 2.7388L13.2278 1.42536ZM8.71946 2.87606C8.73356 2.81512 8.75745 2.77214 8.77599 2.74959C8.79191 2.73023 8.79475 2.73558 8.78224 2.73875L8.44988 1.4253C7.82557 1.58328 7.5032 2.12245 7.3995 2.57065L8.71946 2.87606ZM3.05592 8.22363C3.00093 8.17833 2.96896 8.12931 2.95614 8.09652C2.94535 8.06895 2.95329 8.07018 2.94847 8.08399L1.66934 7.63743C1.42906 8.32569 1.80134 8.94544 2.1944 9.26928L3.05592 8.22363ZM4.6423 16.2674C4.58157 16.2817 4.53255 16.2794 4.50414 16.2728C4.4797 16.2671 4.48306 16.2621 4.49131 16.2717L3.46246 17.1533C3.88071 17.6414 4.50572 17.6916 4.95334 17.5861L4.6423 16.2674ZM8.78231 18.9388C8.79482 18.942 8.79198 18.9474 8.77606 18.928C8.75752 18.9054 8.73363 18.8625 8.71954 18.8015L7.39954 19.1068C7.50321 19.555 7.82558 20.0943 8.44997 20.2523L8.78231 18.9388ZM12.958 18.8015C12.9439 18.8624 12.92 18.9054 12.9015 18.928C12.8856 18.9473 12.8827 18.942 12.8952 18.9388L13.2276 20.2523C13.852 20.0943 14.1743 19.555 14.278 19.1068L12.958 18.8015ZM17.1861 16.2717C17.1944 16.2621 17.1977 16.267 17.1733 16.2727C17.1449 16.2794 17.0959 16.2817 17.0351 16.2674L16.7241 17.586C17.1717 17.6916 17.7967 17.6414 18.215 17.1532L17.1861 16.2717ZM18.729 8.08402C18.7241 8.07021 18.7321 8.06898 18.7213 8.09655C18.7085 8.12934 18.6765 8.17836 18.6215 8.22367L19.483 9.2693C19.8761 8.94545 20.2484 8.32572 20.0081 7.63748L18.729 8.08402ZM2.94847 13.5936C2.95329 13.6074 2.94535 13.6086 2.95614 13.5811C2.96896 13.5483 3.00093 13.4992 3.05592 13.4539L2.1944 12.4083C1.80134 12.7321 1.42906 13.3519 1.66934 14.0401L2.94847 13.5936ZM17.0349 5.40993C17.0957 5.39561 17.1447 5.39797 17.1731 5.40459C17.1975 5.41028 17.1942 5.41524 17.1859 5.40562L18.2147 4.52406C17.7965 4.036 17.1716 3.98572 16.724 4.09124L17.0349 5.40993ZM4.49153 5.40558C4.48328 5.41521 4.47992 5.41024 4.50436 5.40455C4.53277 5.39793 4.58179 5.39558 4.6425 5.4099L4.95346 4.09122C4.50588 3.98568 3.88095 4.03594 3.46272 4.52402L4.49153 5.40558ZM18.6215 13.4539C18.6765 13.4992 18.7085 13.5482 18.7213 13.581C18.7321 13.6086 18.7241 13.6074 18.729 13.5935L20.0081 14.0401C20.2484 13.3519 19.8761 12.7321 19.483 12.4083L18.6215 13.4539ZM14.2781 2.57067C14.1744 2.12249 13.852 1.58335 13.2278 1.42536L12.8954 2.7388C12.8829 2.73563 12.8857 2.73028 12.9016 2.74964C12.9201 2.77218 12.944 2.81517 12.9581 2.8761L14.2781 2.57067Z" fill="#FEFEFE"/>
</svg>
