<svg width="22" height="22" viewBox="0 0 22 22" fill="none" xmlns="http://www.w3.org/2000/svg">
<path d="M3.66611 13.6463H4.35361H3.66611ZM6.17128 16.5781L6.07685 17.2591H6.07685L6.17128 16.5781ZM15.5088 16.5781L15.6032 17.2591L15.5088 16.5781ZM17.5861 12.0896L16.9957 12.4418L17.5861 12.0896ZM5.94687 7.41375C5.94687 4.71186 8.13719 2.52155 10.8391 2.52155V1.14655C7.3778 1.14655 4.57187 3.95247 4.57187 7.41375H5.94687ZM5.94687 9.334V7.41375H4.57187V9.334H5.94687ZM4.35361 13.6463C4.35361 13.2051 4.47428 12.7941 4.68401 12.4423L3.50297 11.7382C3.16982 12.297 2.97861 12.9504 2.97861 13.6463H4.35361ZM6.26571 15.8971C5.16604 15.7446 4.35361 14.7886 4.35361 13.6463H2.97861C2.97861 15.4427 4.26571 17.008 6.07685 17.2591L6.26571 15.8971ZM10.84 16.2926C9.47237 16.2926 7.70542 16.0968 6.26571 15.8971L6.07685 17.2591C7.52773 17.4603 9.3727 17.6676 10.84 17.6676V16.2926ZM15.4143 15.8971C13.9746 16.0968 12.2077 16.2926 10.84 16.2926V17.6676C12.3073 17.6676 14.1523 17.4603 15.6032 17.2591L15.4143 15.8971ZM17.3264 13.6463C17.3264 14.7886 16.514 15.7446 15.4143 15.8971L15.6032 17.2591C17.4143 17.008 18.7014 15.4427 18.7014 13.6463H17.3264ZM16.9957 12.4418C17.2056 12.7937 17.3264 13.2049 17.3264 13.6463H18.7014C18.7014 12.95 18.51 12.2964 18.1766 11.7374L16.9957 12.4418ZM15.7313 7.41376V9.33167H17.1063V7.41376H15.7313ZM10.8391 2.52155C13.541 2.52155 15.7313 4.71187 15.7313 7.41376H17.1063C17.1063 3.95247 14.3004 1.14655 10.8391 1.14655V2.52155ZM18.1766 11.7374C17.8932 11.2624 17.6359 10.8819 17.4237 10.4569C17.2205 10.05 17.1063 9.687 17.1063 9.33167H15.7313C15.7313 9.98534 15.9423 10.568 16.1935 11.0712C16.4358 11.5563 16.7621 12.0502 16.9957 12.4418L18.1766 11.7374ZM4.57187 9.334C4.57187 9.68908 4.4578 10.0519 4.25489 10.4585C4.04297 10.8832 3.78595 11.2636 3.50297 11.7382L4.68401 12.4423C4.91735 12.0509 5.24328 11.5573 5.48522 11.0724C5.73616 10.5695 5.94687 9.98722 5.94687 9.334H4.57187Z" fill="#2F667F"/>
<path d="M12.833 19.0981C12.4046 19.7424 11.672 20.1671 10.8402 20.1671C10.0085 20.1671 9.27589 19.7424 8.84748 19.0981" stroke="#2F667F" stroke-width="1.33038" stroke-linecap="round"/>
</svg>
