<svg width="208" height="135" viewBox="0 0 208 135" fill="none" xmlns="http://www.w3.org/2000/svg">
<g filter="url(#filter0_d_1_1905)">
<g clip-path="url(#clip0_1_1905)">
<path fill-rule="evenodd" clip-rule="evenodd" d="M0 7.90875C0 3.54087 3.54087 0 7.90875 0L200.091 0C204.459 0 208 3.54087 208 7.90875V126.54C208 130.908 204.459 134.449 200.091 134.449H7.90873C3.54085 134.449 0 130.908 0 126.54L0 7.90875Z" fill="#8EBAE3"/>
<mask id="mask0_1_1905" style="mask-type:luminance" maskUnits="userSpaceOnUse" x="0" y="0" width="208" height="135">
<path fill-rule="evenodd" clip-rule="evenodd" d="M0 10.3376C0 4.62829 4.6283 0 10.3376 0L197.662 0C203.372 0 208 4.6283 208 10.3376V124.111C208 129.82 203.372 134.449 197.662 134.449H10.3376C4.6283 134.449 0 129.82 0 124.111L0 10.3376Z" fill="white"/>
</mask>
<g mask="url(#mask0_1_1905)">
<path d="M208.793 135.24H-0.790889V113.887H20.5627H20.9392L21.1765 113.595L31.3996 101.012L61.8285 77.6055L72.4944 81.4147L73.0214 81.6029L73.3743 81.1687L83.6556 68.5147L83.7591 68.3873L83.8034 68.2292L94.8148 28.9028L103.625 20.8263L113.375 29.076L113.526 29.204L113.72 29.2455L124.645 31.5866L133.809 37.6961L144.79 64.3627L145.074 65.0532L145.78 64.8089L165.53 57.9724L175.599 97.4737L175.895 98.6374L176.847 97.9052L197.146 82.2909L207.888 83.8255L207.975 83.8379L208.062 83.831L208.954 83.7604L208.793 135.24Z" fill="#79AED4" fill-opacity="0.5" stroke="#589CED" stroke-width="1.5804"/>
<path d="M20.3413 112.226C20.3413 111.132 20.5248 110.277 20.8917 109.664C21.265 109.044 21.9041 108.734 22.8088 108.734C23.7136 108.734 24.3495 109.044 24.7164 109.664C25.0897 110.277 25.2764 111.132 25.2764 112.226C25.2764 113.333 25.0897 114.2 24.7164 114.827C24.3495 115.447 23.7136 115.757 22.8088 115.757C21.9041 115.757 21.265 115.447 20.8917 114.827C20.5248 114.2 20.3413 113.333 20.3413 112.226ZM24.2134 112.226C24.2134 111.714 24.1786 111.28 24.109 110.926C24.0458 110.572 23.9129 110.284 23.7104 110.062C23.508 109.835 23.2074 109.721 22.8088 109.721C22.4102 109.721 22.1097 109.835 21.9072 110.062C21.7048 110.284 21.5687 110.572 21.4991 110.926C21.4359 111.28 21.4042 111.714 21.4042 112.226C21.4042 112.758 21.4359 113.204 21.4991 113.564C21.5624 113.925 21.6953 114.216 21.8977 114.437C22.1065 114.659 22.4102 114.77 22.8088 114.77C23.2074 114.77 23.508 114.659 23.7104 114.437C23.9192 114.216 24.0552 113.925 24.1185 113.564C24.1818 113.204 24.2134 112.758 24.2134 112.226ZM27.0001 115.842C26.8039 115.842 26.6394 115.776 26.5066 115.643C26.3737 115.51 26.3073 115.345 26.3073 115.149C26.3073 114.953 26.3737 114.789 26.5066 114.656C26.6394 114.523 26.8039 114.456 27.0001 114.456C27.1899 114.456 27.3512 114.523 27.4841 114.656C27.617 114.789 27.6834 114.953 27.6834 115.149C27.6834 115.345 27.617 115.51 27.4841 115.643C27.3512 115.776 27.1899 115.842 27.0001 115.842ZM28.7104 112.226C28.7104 111.132 28.8938 110.277 29.2608 109.664C29.6341 109.044 30.2731 108.734 31.1779 108.734C32.0826 108.734 32.7185 109.044 33.0855 109.664C33.4588 110.277 33.6454 111.132 33.6454 112.226C33.6454 113.333 33.4588 114.2 33.0855 114.827C32.7185 115.447 32.0826 115.757 31.1779 115.757C30.2731 115.757 29.6341 115.447 29.2608 114.827C28.8938 114.2 28.7104 113.333 28.7104 112.226ZM32.5825 112.226C32.5825 111.714 32.5477 111.28 32.4781 110.926C32.4148 110.572 32.2819 110.284 32.0795 110.062C31.877 109.835 31.5765 109.721 31.1779 109.721C30.7793 109.721 30.4788 109.835 30.2763 110.062C30.0738 110.284 29.9378 110.572 29.8682 110.926C29.8049 111.28 29.7733 111.714 29.7733 112.226C29.7733 112.758 29.8049 113.204 29.8682 113.564C29.9315 113.925 30.0643 114.216 30.2668 114.437C30.4756 114.659 30.7793 114.77 31.1779 114.77C31.5765 114.77 31.877 114.659 32.0795 114.437C32.2883 114.216 32.4243 113.925 32.4876 113.564C32.5508 113.204 32.5825 112.758 32.5825 112.226ZM34.7902 112.226C34.7902 111.132 34.9737 110.277 35.3407 109.664C35.7139 109.044 36.353 108.734 37.2577 108.734C38.1625 108.734 38.7984 109.044 39.1653 109.664C39.5386 110.277 39.7253 111.132 39.7253 112.226C39.7253 113.333 39.5386 114.2 39.1653 114.827C38.7984 115.447 38.1625 115.757 37.2577 115.757C36.353 115.757 35.7139 115.447 35.3407 114.827C34.9737 114.2 34.7902 113.333 34.7902 112.226ZM38.6623 112.226C38.6623 111.714 38.6275 111.28 38.5579 110.926C38.4947 110.572 38.3618 110.284 38.1593 110.062C37.9569 109.835 37.6563 109.721 37.2577 109.721C36.8591 109.721 36.5586 109.835 36.3561 110.062C36.1537 110.284 36.0176 110.572 35.948 110.926C35.8848 111.28 35.8531 111.714 35.8531 112.226C35.8531 112.758 35.8848 113.204 35.948 113.564C36.0113 113.925 36.1442 114.216 36.3466 114.437C36.5554 114.659 36.8591 114.77 37.2577 114.77C37.6563 114.77 37.9569 114.659 38.1593 114.437C38.3681 114.216 38.5042 113.925 38.5674 113.564C38.6307 113.204 38.6623 112.758 38.6623 112.226ZM44.5501 109.18V113.384C44.5501 113.884 44.6798 114.26 44.9393 114.513C45.205 114.766 45.572 114.893 46.0402 114.893C46.5147 114.893 46.8816 114.766 47.141 114.513C47.4068 114.26 47.5396 113.884 47.5396 113.384V109.18H48.6216V113.365C48.6216 113.903 48.5045 114.358 48.2704 114.732C48.0363 115.105 47.7231 115.383 47.3309 115.567C46.9386 115.75 46.5052 115.842 46.0307 115.842C45.5561 115.842 45.1227 115.75 44.7305 115.567C44.3445 115.383 44.0377 115.105 43.8099 114.732C43.5821 114.358 43.4682 113.903 43.4682 113.365V109.18H44.5501ZM52.2036 115.842C51.7607 115.842 51.3621 115.766 51.0078 115.614C50.6534 115.456 50.3751 115.235 50.1726 114.95C49.9701 114.665 49.8689 114.333 49.8689 113.953H51.0267C51.052 114.238 51.1628 114.472 51.3589 114.656C51.5614 114.839 51.8429 114.931 52.2036 114.931C52.5769 114.931 52.8679 114.842 53.0767 114.665C53.2855 114.482 53.3899 114.248 53.3899 113.963C53.3899 113.742 53.3234 113.561 53.1906 113.422C53.064 113.283 52.9027 113.175 52.7066 113.099C52.5167 113.023 52.251 112.941 51.9094 112.853C51.4791 112.739 51.128 112.625 50.8559 112.511C50.5902 112.391 50.3624 112.207 50.1726 111.96C49.9828 111.714 49.8879 111.385 49.8879 110.973C49.8879 110.594 49.9828 110.262 50.1726 109.977C50.3624 109.692 50.6281 109.474 50.9698 109.322C51.3115 109.17 51.7069 109.094 52.1561 109.094C52.7951 109.094 53.3171 109.256 53.722 109.578C54.1333 109.895 54.3611 110.331 54.4054 110.888H53.2096C53.1906 110.648 53.0767 110.442 52.8679 110.271C52.6591 110.1 52.3839 110.015 52.0422 110.015C51.7322 110.015 51.4791 110.094 51.283 110.252C51.0868 110.41 50.9888 110.638 50.9888 110.935C50.9888 111.138 51.0489 111.306 51.1691 111.438C51.2956 111.565 51.4538 111.666 51.6436 111.742C51.8334 111.818 52.0928 111.9 52.4218 111.989C52.8584 112.109 53.2127 112.229 53.4848 112.35C53.7632 112.47 53.9973 112.656 54.1871 112.91C54.3832 113.156 54.4813 113.488 54.4813 113.906C54.4813 114.241 54.3895 114.558 54.2061 114.855C54.0289 115.152 53.7663 115.393 53.4183 115.576C53.0767 115.753 52.6718 115.842 52.2036 115.842ZM57.9122 109.18C58.6145 109.18 59.2283 109.316 59.7534 109.588C60.2849 109.854 60.693 110.24 60.9777 110.746C61.2687 111.246 61.4142 111.831 61.4142 112.501C61.4142 113.172 61.2687 113.754 60.9777 114.248C60.693 114.741 60.2849 115.121 59.7534 115.387C59.2283 115.646 58.6145 115.776 57.9122 115.776H55.7579V109.18H57.9122ZM57.9122 114.893C58.6841 114.893 59.2757 114.684 59.687 114.267C60.0982 113.849 60.3038 113.261 60.3038 112.501C60.3038 111.736 60.0982 111.138 59.687 110.708C59.2757 110.277 58.6841 110.062 57.9122 110.062H56.8398V114.893H57.9122Z" fill="#D9EAFF"/>
<path opacity="0.85" d="M26.5481 87.6332H24.3115V89.9252H23.1378V87.6332H20.9012V86.5703H23.1378V84.2783H24.3115V86.5703H26.5481V87.6332ZM28.3403 86.9578C28.3403 85.6808 28.5544 84.6843 28.9825 83.9683C29.418 83.2449 30.1635 82.8832 31.2191 82.8832C32.2747 82.8832 33.0165 83.2449 33.4446 83.9683C33.8801 84.6843 34.0979 85.6808 34.0979 86.9578C34.0979 88.2496 33.8801 89.2608 33.4446 89.9916C33.0165 90.715 32.2747 91.0767 31.2191 91.0767C30.1635 91.0767 29.418 90.715 28.9825 89.9916C28.5544 89.2608 28.3403 88.2496 28.3403 86.9578ZM32.8578 86.9578C32.8578 86.3599 32.8172 85.8543 32.736 85.4409C32.6622 85.0275 32.5072 84.6917 32.271 84.4333C32.0348 84.1676 31.6841 84.0347 31.2191 84.0347C30.7541 84.0347 30.4034 84.1676 30.1672 84.4333C29.931 84.6917 29.7723 85.0275 29.6911 85.4409C29.6173 85.8543 29.5804 86.3599 29.5804 86.9578C29.5804 87.5779 29.6173 88.0982 29.6911 88.519C29.7649 88.9397 29.92 89.2793 30.1562 89.5376C30.3998 89.796 30.7541 89.9252 31.2191 89.9252C31.6841 89.9252 32.0348 89.796 32.271 89.5376C32.5146 89.2793 32.6733 88.9397 32.7471 88.519C32.8209 88.0982 32.8578 87.5779 32.8578 86.9578ZM36.1089 91.1763C35.8801 91.1763 35.6881 91.0988 35.5331 90.9438C35.3781 90.7888 35.3006 90.5969 35.3006 90.3681C35.3006 90.1392 35.3781 89.9473 35.5331 89.7923C35.6881 89.6373 35.8801 89.5598 36.1089 89.5598C36.3303 89.5598 36.5186 89.6373 36.6736 89.7923C36.8286 89.9473 36.9061 90.1392 36.9061 90.3681C36.9061 90.5969 36.8286 90.7888 36.6736 90.9438C36.5186 91.0988 36.3303 91.1763 36.1089 91.1763ZM38.1042 86.9578C38.1042 85.6808 38.3183 84.6843 38.7464 83.9683C39.1819 83.2449 39.9274 82.8832 40.983 82.8832C42.0386 82.8832 42.7804 83.2449 43.2085 83.9683C43.644 84.6843 43.8618 85.6808 43.8618 86.9578C43.8618 88.2496 43.644 89.2608 43.2085 89.9916C42.7804 90.715 42.0386 91.0767 40.983 91.0767C39.9274 91.0767 39.1819 90.715 38.7464 89.9916C38.3183 89.2608 38.1042 88.2496 38.1042 86.9578ZM42.6217 86.9578C42.6217 86.3599 42.5811 85.8543 42.4999 85.4409C42.4261 85.0275 42.2711 84.6917 42.0349 84.4333C41.7987 84.1676 41.448 84.0347 40.983 84.0347C40.518 84.0347 40.1673 84.1676 39.9311 84.4333C39.6949 84.6917 39.5362 85.0275 39.455 85.4409C39.3812 85.8543 39.3443 86.3599 39.3443 86.9578C39.3443 87.5779 39.3812 88.0982 39.455 88.519C39.5288 88.9397 39.6839 89.2793 39.9201 89.5376C40.1637 89.796 40.518 89.9252 40.983 89.9252C41.448 89.9252 41.7987 89.796 42.0349 89.5376C42.2785 89.2793 42.4372 88.9397 42.511 88.519C42.5848 88.0982 42.6217 87.5779 42.6217 86.9578ZM45.1974 86.9578C45.1974 85.6808 45.4114 84.6843 45.8396 83.9683C46.2751 83.2449 47.0206 82.8832 48.0762 82.8832C49.1317 82.8832 49.8736 83.2449 50.3017 83.9683C50.7372 84.6843 50.9549 85.6808 50.9549 86.9578C50.9549 88.2496 50.7372 89.2608 50.3017 89.9916C49.8736 90.715 49.1317 91.0767 48.0762 91.0767C47.0206 91.0767 46.2751 90.715 45.8396 89.9916C45.4114 89.2608 45.1974 88.2496 45.1974 86.9578ZM49.7149 86.9578C49.7149 86.3599 49.6743 85.8543 49.5931 85.4409C49.5192 85.0275 49.3642 84.6917 49.128 84.4333C48.8918 84.1676 48.5412 84.0347 48.0762 84.0347C47.6111 84.0347 47.2605 84.1676 47.0243 84.4333C46.7881 84.6917 46.6294 85.0275 46.5482 85.4409C46.4744 85.8543 46.4375 86.3599 46.4375 86.9578C46.4375 87.5779 46.4744 88.0982 46.5482 88.519C46.622 88.9397 46.777 89.2793 47.0132 89.5376C47.2568 89.796 47.6111 89.9252 48.0762 89.9252C48.5412 89.9252 48.8918 89.796 49.128 89.5376C49.3716 89.2793 49.5303 88.9397 49.6041 88.519C49.6779 88.0982 49.7149 87.5779 49.7149 86.9578ZM52.1244 84.1787V83.0272H54.4275V91.0988H53.1542V84.1787H52.1244ZM61.3654 84.1122H57.6562V86.3156C57.8113 86.1089 58.0401 85.9355 58.3427 85.7952C58.6527 85.655 58.9812 85.5849 59.3282 85.5849C59.9482 85.5849 60.4501 85.7177 60.834 85.9835C61.2252 86.2492 61.502 86.585 61.6644 86.991C61.8342 87.397 61.9191 87.8251 61.9191 88.2754C61.9191 88.8216 61.812 89.3088 61.598 89.7369C61.3913 90.1577 61.0776 90.4899 60.6568 90.7334C60.2435 90.977 59.7341 91.0988 59.1289 91.0988C58.3243 91.0988 57.6784 90.8995 57.1912 90.5009C56.704 90.1023 56.4125 89.5745 56.3165 88.9176H57.5455C57.6267 89.2645 57.8076 89.5413 58.0881 89.748C58.3686 89.9473 58.7192 90.047 59.1399 90.047C59.664 90.047 60.0552 89.8883 60.3136 89.5709C60.5793 89.2535 60.7122 88.8327 60.7122 88.3086C60.7122 87.7772 60.5793 87.3712 60.3136 87.0907C60.0478 86.8028 59.6566 86.6589 59.1399 86.6589C58.7782 86.6589 58.4719 86.7511 58.2209 86.9357C57.9773 87.1128 57.8002 87.3564 57.6895 87.6664H56.4937V83.005H61.3654V84.1122ZM69.0655 93.1583C68.3421 92.4644 67.7848 91.5823 67.3936 90.512C67.0098 89.4417 66.8178 88.2939 66.8178 87.0685C66.8178 85.8137 67.0245 84.6289 67.4379 83.5143C67.8586 82.3997 68.475 81.4807 69.2869 80.7574H70.5935V80.8791C69.7446 81.6616 69.1061 82.599 68.678 83.6915C68.2498 84.784 68.0358 85.9096 68.0358 87.0685C68.0358 88.1831 68.2351 89.2608 68.6337 90.3016C69.0323 91.3424 69.6117 92.254 70.372 93.0365V93.1583H69.0655ZM77.6707 87.6332H75.4341V89.9252H74.2605V87.6332H72.0239V86.5703H74.2605V84.2783H75.4341V86.5703H77.6707V87.6332ZM79.4629 86.9578C79.4629 85.6808 79.677 84.6843 80.1051 83.9683C80.5406 83.2449 81.2862 82.8832 82.3417 82.8832C83.3973 82.8832 84.1391 83.2449 84.5672 83.9683C85.0028 84.6843 85.2205 85.6808 85.2205 86.9578C85.2205 88.2496 85.0028 89.2608 84.5672 89.9916C84.1391 90.715 83.3973 91.0767 82.3417 91.0767C81.2862 91.0767 80.5406 90.715 80.1051 89.9916C79.677 89.2608 79.4629 88.2496 79.4629 86.9578ZM83.9804 86.9578C83.9804 86.3599 83.9398 85.8543 83.8586 85.4409C83.7848 85.0275 83.6298 84.6917 83.3936 84.4333C83.1574 84.1676 82.8068 84.0347 82.3417 84.0347C81.8767 84.0347 81.5261 84.1676 81.2899 84.4333C81.0537 84.6917 80.895 85.0275 80.8138 85.4409C80.7399 85.8543 80.703 86.3599 80.703 86.9578C80.703 87.5779 80.7399 88.0982 80.8138 88.519C80.8876 88.9397 81.0426 89.2793 81.2788 89.5376C81.5224 89.796 81.8767 89.9252 82.3417 89.9252C82.8068 89.9252 83.1574 89.796 83.3936 89.5376C83.6372 89.2793 83.7959 88.9397 83.8697 88.519C83.9435 88.0982 83.9804 87.5779 83.9804 86.9578ZM87.2315 91.1763C87.0027 91.1763 86.8108 91.0988 86.6557 90.9438C86.5007 90.7888 86.4232 90.5969 86.4232 90.3681C86.4232 90.1392 86.5007 89.9473 86.6557 89.7923C86.8108 89.6373 87.0027 89.5598 87.2315 89.5598C87.453 89.5598 87.6412 89.6373 87.7962 89.7923C87.9512 89.9473 88.0287 90.1392 88.0287 90.3681C88.0287 90.5969 87.9512 90.7888 87.7962 90.9438C87.6412 91.0988 87.453 91.1763 87.2315 91.1763ZM89.0608 84.1787V83.0272H91.3638V91.0988H90.0905V84.1787H89.0608ZM93.0757 85.0202C93.1199 84.3337 93.382 83.7985 93.8618 83.4147C94.349 83.0309 94.969 82.8389 95.7219 82.8389C96.2386 82.8389 96.6852 82.9312 97.0617 83.1157C97.4381 83.3003 97.7223 83.5512 97.9142 83.8687C98.1061 84.1861 98.2021 84.5441 98.2021 84.9427C98.2021 85.4003 98.0803 85.7915 97.8367 86.1163C97.5931 86.4411 97.3016 86.6589 96.962 86.7696V86.8139C97.3975 86.9467 97.7371 87.1903 97.9807 87.5446C98.2243 87.8916 98.346 88.3381 98.346 88.8844C98.346 89.3199 98.2464 89.7074 98.0471 90.047C97.8478 90.3865 97.5525 90.6559 97.1613 90.8552C96.7701 91.0472 96.3014 91.1431 95.7551 91.1431C94.9579 91.1431 94.301 90.9401 93.7843 90.5341C93.275 90.1208 93.0018 89.5303 92.9649 88.7626H94.1829C94.2124 89.1538 94.3637 89.4749 94.6368 89.7259C94.91 89.9695 95.279 90.0913 95.7441 90.0913C96.1943 90.0913 96.5413 89.9695 96.7849 89.7259C97.0285 89.4749 97.1502 89.1538 97.1502 88.7626C97.1502 88.2459 96.9842 87.8805 96.652 87.6664C96.3272 87.445 95.8253 87.3343 95.1462 87.3343H94.8583V86.2935H95.1572C95.7551 86.2861 96.2091 86.1864 96.5191 85.9945C96.8365 85.8026 96.9952 85.5 96.9952 85.0866C96.9952 84.7323 96.8808 84.4518 96.652 84.2451C96.4232 84.031 96.0984 83.924 95.6776 83.924C95.2643 83.924 94.9432 84.031 94.7144 84.2451C94.4855 84.4518 94.349 84.7101 94.3047 85.0202H93.0757ZM99.4726 84.9759C99.4726 84.437 99.6277 84.0163 99.9377 83.7136C100.255 83.4036 100.661 83.2486 101.156 83.2486C101.65 83.2486 102.052 83.4036 102.363 83.7136C102.68 84.0163 102.839 84.437 102.839 84.9759C102.839 85.5147 102.68 85.9392 102.363 86.2492C102.052 86.5592 101.65 86.7142 101.156 86.7142C100.661 86.7142 100.255 86.5592 99.9377 86.2492C99.6277 85.9392 99.4726 85.5147 99.4726 84.9759ZM106.227 83.3925L101.809 91.0988H100.569L104.987 83.3925H106.227ZM101.156 84.0126C100.691 84.0126 100.458 84.3337 100.458 84.9759C100.458 85.6254 100.691 85.9502 101.156 85.9502C101.377 85.9502 101.547 85.8727 101.665 85.7177C101.79 85.5553 101.853 85.308 101.853 84.9759C101.853 84.3337 101.621 84.0126 101.156 84.0126ZM103.979 89.5044C103.979 88.9656 104.134 88.5448 104.444 88.2422C104.761 87.9322 105.167 87.7772 105.662 87.7772C106.149 87.7772 106.548 87.9322 106.858 88.2422C107.175 88.5448 107.334 88.9656 107.334 89.5044C107.334 90.0433 107.175 90.4677 106.858 90.7777C106.548 91.0878 106.149 91.2428 105.662 91.2428C105.167 91.2428 104.761 91.0878 104.444 90.7777C104.134 90.4677 103.979 90.0433 103.979 89.5044ZM105.651 88.5411C105.186 88.5411 104.953 88.8622 104.953 89.5044C104.953 90.1466 105.186 90.4677 105.651 90.4677C106.116 90.4677 106.349 90.1466 106.349 89.5044C106.349 88.8622 106.116 88.5411 105.651 88.5411ZM108.319 93.1583V93.0365C109.079 92.254 109.659 91.3424 110.057 90.3016C110.456 89.2608 110.655 88.1831 110.655 87.0685C110.655 85.9096 110.441 84.784 110.013 83.6915C109.585 82.599 108.946 81.6616 108.097 80.8791V80.7574H109.404C110.216 81.4807 110.828 82.3997 111.242 83.5143C111.663 84.6289 111.873 85.8137 111.873 87.0685C111.873 88.2939 111.677 89.4417 111.286 90.512C110.902 91.5823 110.349 92.4644 109.625 93.1583H108.319Z" fill="white"/>
<path fill-rule="evenodd" clip-rule="evenodd" d="M90.2 62.4771H96.4464C96.6871 62.4771 96.8821 62.6791 96.8821 62.9282C96.8821 63.0146 96.8581 63.0993 96.8129 63.1721L93.6897 68.2015C93.5596 68.411 93.29 68.4717 93.0876 68.337C93.0351 68.3021 92.9905 68.2558 92.9567 68.2015L89.8335 63.1721C89.7034 62.9625 89.762 62.6835 89.9644 62.5488C90.0347 62.502 90.1165 62.4771 90.2 62.4771Z" fill="white"/>
<path d="M20.8396 58.5971V56.1296H25.7746V73.426H23.0461V58.5971H20.8396ZM30.9377 73.5921C30.4473 73.5921 30.0361 73.426 29.7039 73.0939C29.3717 72.7617 29.2056 72.3504 29.2056 71.8601C29.2056 71.3698 29.3717 70.9585 29.7039 70.6263C30.0361 70.2942 30.4473 70.1281 30.9377 70.1281C31.4122 70.1281 31.8155 70.2942 32.1477 70.6263C32.4799 70.9585 32.6459 71.3698 32.6459 71.8601C32.6459 72.3504 32.4799 72.7617 32.1477 73.0939C31.8155 73.426 31.4122 73.5921 30.9377 73.5921ZM34.8575 58.5971V56.1296H39.7926V73.426H37.064V58.5971H34.8575ZM46.8774 68.7282C47.0356 69.5191 47.3757 70.1202 47.8977 70.5314C48.4196 70.9427 49.1235 71.1483 50.0093 71.1483C51.1323 71.1483 51.9548 70.7054 52.4768 69.8196C52.9988 68.9339 53.2598 67.4233 53.2598 65.2879C52.8802 65.8257 52.3424 66.2449 51.6464 66.5454C50.9662 66.8301 50.2228 66.9725 49.4161 66.9725C48.388 66.9725 47.4548 66.7669 46.6164 66.3556C45.7781 65.9285 45.1138 65.3038 44.6234 64.4812C44.1489 63.6429 43.9116 62.6306 43.9116 61.4443C43.9116 59.7044 44.4178 58.3203 45.4301 57.2922C46.4583 56.2482 47.866 55.7263 49.6534 55.7263C51.8046 55.7263 53.331 56.446 54.2326 57.8854C55.15 59.3089 55.6087 61.4996 55.6087 64.4575C55.6087 66.498 55.4347 68.1667 55.0867 69.4638C54.7545 70.7608 54.1693 71.7415 53.331 72.4058C52.4926 73.0701 51.3301 73.4023 49.8432 73.4023C48.1507 73.4023 46.8458 72.9594 45.9284 72.0736C45.011 71.1879 44.4969 70.0727 44.3862 68.7282H46.8774ZM49.8907 64.6948C50.8397 64.6948 51.5831 64.4022 52.1209 63.8169C52.6745 63.2158 52.9513 62.425 52.9513 61.4443C52.9513 60.3529 52.6587 59.5066 52.0735 58.9056C51.504 58.2887 50.7211 57.9803 49.7246 57.9803C48.7281 57.9803 47.9372 58.2966 47.352 58.9293C46.7825 59.5462 46.4978 60.3608 46.4978 61.3731C46.4978 62.338 46.7746 63.1368 47.3282 63.7695C47.8977 64.3863 48.7518 64.6948 49.8907 64.6948ZM60.0637 69.7485C61.5821 68.4356 62.7764 67.36 63.6463 66.5217C64.5321 65.6676 65.2676 64.7818 65.8529 63.8644C66.4381 62.9469 66.7307 62.0295 66.7307 61.1121C66.7307 60.1631 66.5014 59.4196 66.0427 58.8819C65.5998 58.3441 64.8959 58.0752 63.931 58.0752C62.9978 58.0752 62.2702 58.3757 61.7482 58.9768C61.2421 59.562 60.9732 60.3529 60.9415 61.3494H58.3316C58.3791 59.5462 58.9169 58.1701 59.945 57.221C60.989 56.2562 62.3097 55.7737 63.9073 55.7737C65.6314 55.7737 66.9759 56.2482 67.9408 57.1973C68.9214 58.1463 69.4118 59.4117 69.4118 60.9935C69.4118 62.1323 69.1192 63.2317 68.5339 64.2914C67.9645 65.3354 67.2764 66.2765 66.4697 67.1149C65.6789 67.9374 64.6665 68.8943 63.4328 69.9857L62.3651 70.9348H69.8863V73.1888H58.3554V71.2195L60.0637 69.7485ZM71.9066 58.5971V56.1296H76.8416V73.426H74.1131V58.5971H71.9066Z" fill="white"/>
<path d="M21.5656 39.7692H23.7958V40.6423H20.4837V34.0464H21.5656V39.7692ZM26.9689 40.7277C26.4753 40.7277 26.0293 40.617 25.6307 40.3956C25.2321 40.1678 24.9189 39.8515 24.6911 39.4465C24.4634 39.0353 24.3495 38.5608 24.3495 38.023C24.3495 37.4915 24.4665 37.0201 24.7006 36.6089C24.9347 36.1976 25.2542 35.8813 25.6592 35.6598C26.0641 35.4384 26.5165 35.3277 27.0163 35.3277C27.5161 35.3277 27.9685 35.4384 28.3734 35.6598C28.7784 35.8813 29.0979 36.1976 29.332 36.6089C29.5661 37.0201 29.6831 37.4915 29.6831 38.023C29.6831 38.5544 29.5629 39.0258 29.3225 39.437C29.0821 39.8483 28.7531 40.1678 28.3355 40.3956C27.9242 40.617 27.4687 40.7277 26.9689 40.7277ZM26.9689 39.7882C27.2472 39.7882 27.5066 39.7218 27.7471 39.5889C27.9938 39.456 28.1931 39.2567 28.345 38.991C28.4968 38.7253 28.5727 38.4026 28.5727 38.023C28.5727 37.6433 28.5 37.3238 28.3545 37.0644C28.2089 36.7987 28.016 36.5994 27.7755 36.4665C27.5351 36.3337 27.2757 36.2672 26.9973 36.2672C26.7189 36.2672 26.4595 36.3337 26.2191 36.4665C25.985 36.5994 25.7984 36.7987 25.6592 37.0644C25.52 37.3238 25.4504 37.6433 25.4504 38.023C25.4504 38.5861 25.5927 39.0226 25.8774 39.3326C26.1685 39.6363 26.5323 39.7882 26.9689 39.7882ZM31.8346 36.1723C31.9928 35.9066 32.2016 35.701 32.461 35.5554C32.7267 35.4036 33.0399 35.3277 33.4005 35.3277V36.4475H33.1253C32.7014 36.4475 32.3787 36.5551 32.1573 36.7702C31.9421 36.9853 31.8346 37.3586 31.8346 37.8901V40.6423H30.7527V35.4131H31.8346V36.1723ZM39.1877 37.8996C39.1877 38.0957 39.1751 38.2729 39.1498 38.431H35.1543C35.1859 38.8486 35.3409 39.184 35.6193 39.437C35.8977 39.6901 36.2393 39.8167 36.6443 39.8167C37.2263 39.8167 37.6376 39.5731 37.878 39.0859H39.0454C38.8872 39.5667 38.5993 39.9622 38.1817 40.2722C37.7705 40.5759 37.258 40.7277 36.6443 40.7277C36.1444 40.7277 35.6952 40.617 35.2966 40.3956C34.9043 40.1678 34.5943 39.8515 34.3665 39.4465C34.1451 39.0353 34.0344 38.5608 34.0344 38.023C34.0344 37.4852 34.1419 37.0138 34.3571 36.6089C34.5785 36.1976 34.8854 35.8813 35.2776 35.6598C35.6762 35.4384 36.1318 35.3277 36.6443 35.3277C37.1378 35.3277 37.5775 35.4352 37.9634 35.6503C38.3494 35.8655 38.6499 36.1691 38.865 36.5614C39.0802 36.9474 39.1877 37.3934 39.1877 37.8996ZM38.0583 37.5579C38.052 37.1593 37.9097 36.8398 37.6313 36.5994C37.3529 36.359 37.0081 36.2387 36.5968 36.2387C36.2235 36.2387 35.904 36.359 35.6383 36.5994C35.3725 36.8335 35.2144 37.153 35.1637 37.5579H38.0583ZM46.5826 35.3277C46.9938 35.3277 47.3608 35.4131 47.6835 35.5839C48.0125 35.7547 48.2687 36.0078 48.4522 36.3431C48.642 36.6785 48.7369 37.0834 48.7369 37.5579V40.6423H47.6645V37.7193C47.6645 37.2511 47.5475 36.8936 47.3134 36.6468C47.0793 36.3938 46.7597 36.2672 46.3548 36.2672C45.9499 36.2672 45.6272 36.3938 45.3868 36.6468C45.1527 36.8936 45.0356 37.2511 45.0356 37.7193V40.6423H43.9632V37.7193C43.9632 37.2511 43.8462 36.8936 43.6121 36.6468C43.378 36.3938 43.0585 36.2672 42.6535 36.2672C42.2486 36.2672 41.9259 36.3938 41.6855 36.6468C41.4514 36.8936 41.3343 37.2511 41.3343 37.7193V40.6423H40.2524V35.4131H41.3343V36.011C41.5115 35.7959 41.7361 35.6282 42.0082 35.508C42.2802 35.3878 42.5713 35.3277 42.8813 35.3277C43.2989 35.3277 43.6722 35.4162 44.0012 35.5934C44.3302 35.7705 44.5833 36.0268 44.7604 36.3621C44.9186 36.0458 45.1653 35.7959 45.5007 35.6124C45.836 35.4226 46.1966 35.3277 46.5826 35.3277ZM53.6609 34.0464V40.6423H52.579V34.0464H53.6609ZM56.1632 36.1818C56.3467 35.9414 56.5966 35.7389 56.913 35.5744C57.2293 35.4099 57.5868 35.3277 57.9854 35.3277C58.441 35.3277 58.8554 35.4415 59.2287 35.6693C59.6083 35.8908 59.9057 36.2039 60.1208 36.6089C60.3359 37.0138 60.4435 37.4788 60.4435 38.004C60.4435 38.5291 60.3359 39.0005 60.1208 39.4181C59.9057 39.8293 59.6083 40.152 59.2287 40.3861C58.8554 40.6139 58.441 40.7277 57.9854 40.7277C57.5868 40.7277 57.2325 40.6487 56.9225 40.4905C56.6125 40.326 56.3594 40.1235 56.1632 39.8831V43.1288H55.0813V35.4131H56.1632V36.1818ZM59.3426 38.004C59.3426 37.6433 59.2666 37.3333 59.1148 37.0739C58.9693 36.8082 58.7731 36.6089 58.5264 36.476C58.286 36.3368 58.0265 36.2672 57.7482 36.2672C57.4761 36.2672 57.2167 36.3368 56.9699 36.476C56.7295 36.6152 56.5334 36.8177 56.3815 37.0834C56.236 37.3491 56.1632 37.6623 56.1632 38.023C56.1632 38.3836 56.236 38.6999 56.3815 38.972C56.5334 39.2377 56.7295 39.4402 56.9699 39.5794C57.2167 39.7186 57.4761 39.7882 57.7482 39.7882C58.0265 39.7882 58.286 39.7186 58.5264 39.5794C58.7731 39.4339 58.9693 39.2251 59.1148 38.953C59.2666 38.681 59.3426 38.3646 59.3426 38.004ZM63.4115 40.7277C63.0002 40.7277 62.6301 40.655 62.3011 40.5095C61.9784 40.3576 61.7222 40.1552 61.5323 39.9021C61.3425 39.6427 61.2413 39.3548 61.2286 39.0384H62.3485C62.3675 39.2599 62.4719 39.4465 62.6617 39.5984C62.8578 39.7439 63.1014 39.8167 63.3925 39.8167C63.6962 39.8167 63.9303 39.7597 64.0948 39.6458C64.2656 39.5256 64.351 39.3738 64.351 39.1903C64.351 38.9942 64.2561 38.8486 64.0663 38.7537C63.8828 38.6588 63.5886 38.5544 63.1837 38.4405C62.7914 38.333 62.4719 38.2286 62.2251 38.1274C61.9784 38.0261 61.7633 37.8711 61.5798 37.6623C61.4026 37.4535 61.3141 37.1783 61.3141 36.8366C61.3141 36.5583 61.3963 36.3052 61.5608 36.0774C61.7253 35.8433 61.9594 35.6598 62.2631 35.527C62.5731 35.3941 62.9274 35.3277 63.326 35.3277C63.9208 35.3277 64.3985 35.4795 64.7591 35.7832C65.1261 36.0806 65.3222 36.4887 65.3475 37.0075H64.2656C64.2466 36.7734 64.1517 36.5867 63.9809 36.4475C63.8101 36.3083 63.5791 36.2387 63.2881 36.2387C63.0034 36.2387 62.7851 36.2925 62.6332 36.4001C62.4814 36.5076 62.4055 36.65 62.4055 36.8272C62.4055 36.9663 62.4561 37.0834 62.5573 37.1783C62.6585 37.2732 62.7819 37.3491 62.9274 37.4061C63.073 37.4567 63.2881 37.5231 63.5728 37.6054C63.9524 37.7066 64.2624 37.811 64.5029 37.9186C64.7496 38.0198 64.9616 38.1716 65.1387 38.3741C65.3159 38.5766 65.4076 38.8455 65.414 39.1808C65.414 39.4782 65.3317 39.7439 65.1672 39.978C65.0027 40.2121 64.7686 40.3956 64.4649 40.5284C64.1675 40.6613 63.8164 40.7277 63.4115 40.7277ZM71.3188 35.4131V40.6423H70.2368V40.0255C70.066 40.2406 69.8414 40.4114 69.563 40.5379C69.2909 40.6582 68.9999 40.7183 68.6899 40.7183C68.2786 40.7183 67.9085 40.6328 67.5795 40.462C67.2568 40.2912 67.0006 40.0381 66.8108 39.7028C66.6273 39.3674 66.5355 38.9625 66.5355 38.488V35.4131H67.608V38.3267C67.608 38.7949 67.725 39.1555 67.9591 39.4086C68.1932 39.6553 68.5127 39.7787 68.9177 39.7787C69.3226 39.7787 69.6421 39.6553 69.8762 39.4086C70.1166 39.1555 70.2368 38.7949 70.2368 38.3267V35.4131H71.3188ZM79.0764 35.3277C79.4877 35.3277 79.8546 35.4131 80.1773 35.5839C80.5063 35.7547 80.7626 36.0078 80.946 36.3431C81.1359 36.6785 81.2308 37.0834 81.2308 37.5579V40.6423H80.1583V37.7193C80.1583 37.2511 80.0413 36.8936 79.8072 36.6468C79.5731 36.3938 79.2536 36.2672 78.8486 36.2672C78.4437 36.2672 78.121 36.3938 77.8806 36.6468C77.6465 36.8936 77.5295 37.2511 77.5295 37.7193V40.6423H76.457V37.7193C76.457 37.2511 76.34 36.8936 76.1059 36.6468C75.8718 36.3938 75.5523 36.2672 75.1473 36.2672C74.7424 36.2672 74.4197 36.3938 74.1793 36.6468C73.9452 36.8936 73.8282 37.2511 73.8282 37.7193V40.6423H72.7463V35.4131H73.8282V36.011C74.0053 35.7959 74.2299 35.6282 74.502 35.508C74.7741 35.3878 75.0651 35.3277 75.3751 35.3277C75.7927 35.3277 76.166 35.4162 76.495 35.5934C76.824 35.7705 77.0771 36.0268 77.2542 36.3621C77.4124 36.0458 77.6592 35.7959 77.9945 35.6124C78.3298 35.4226 78.6905 35.3277 79.0764 35.3277Z" fill="#D9EAFF"/>
<path d="M22.4166 18.4734V20.6878H25.3902V22.0924H22.4166V24.4334H25.7699V25.876H20.645V17.0308H25.7699V18.4734H22.4166ZM33.2291 17.0435V18.4734H29.5468V20.7384H32.3686V22.143H29.5468V25.876H27.7752V17.0435H33.2291ZM40.3346 17.0435V18.4734H36.6523V20.7384H39.4741V22.143H36.6523V25.876H34.8807V17.0435H40.3346ZM43.7578 17.0435V25.876H41.9863V17.0435H43.7578ZM45.4733 21.4471C45.4733 20.5781 45.6673 19.802 46.0554 19.1187C46.4519 18.427 46.9876 17.8913 47.6625 17.5117C48.3458 17.1236 49.1092 16.9296 49.9528 16.9296C50.9398 16.9296 51.8045 17.1827 52.5469 17.6888C53.2893 18.195 53.8081 18.8952 54.1033 19.7894H52.066C51.8636 19.3676 51.5768 19.0512 51.2056 18.8403C50.8428 18.6294 50.421 18.524 49.9402 18.524C49.4256 18.524 48.9658 18.6463 48.5609 18.891C48.1644 19.1272 47.8523 19.4646 47.6245 19.9033C47.4052 20.3419 47.2955 20.8565 47.2955 21.4471C47.2955 22.0291 47.4052 22.5437 47.6245 22.9908C47.8523 23.4295 48.1644 23.7712 48.5609 24.0158C48.9658 24.252 49.4256 24.3701 49.9402 24.3701C50.421 24.3701 50.8428 24.2647 51.2056 24.0538C51.5768 23.8344 51.8636 23.5139 52.066 23.0921H54.1033C53.8081 23.9947 53.2893 24.6991 52.5469 25.2053C51.813 25.703 50.9483 25.9519 49.9528 25.9519C49.1092 25.9519 48.3458 25.7621 47.6625 25.3824C46.9876 24.9944 46.4519 24.4587 46.0554 23.7754C45.6673 23.0921 45.4733 22.316 45.4733 21.4471ZM57.7835 17.0435V25.876H56.0119V17.0435H57.7835ZM61.7008 18.4734V20.6878H64.6745V22.0924H61.7008V24.4334H65.0541V25.876H59.9292V17.0308H65.0541V18.4734H61.7008ZM74.6139 25.876H72.8423L68.831 19.8147V25.876H67.0594V17.0308H68.831L72.8423 23.1047V17.0308H74.6139V25.876ZM76.3298 21.4471C76.3298 20.5781 76.5238 19.802 76.9119 19.1187C77.3084 18.427 77.844 17.8913 78.5189 17.5117C79.2022 17.1236 79.9657 16.9296 80.8093 16.9296C81.7963 16.9296 82.661 17.1827 83.4034 17.6888C84.1457 18.195 84.6645 18.8952 84.9598 19.7894H82.9225C82.72 19.3676 82.4332 19.0512 82.062 18.8403C81.6993 18.6294 81.2775 18.524 80.7966 18.524C80.282 18.524 79.8223 18.6463 79.4174 18.891C79.0209 19.1272 78.7087 19.4646 78.481 19.9033C78.2616 20.3419 78.152 20.8565 78.152 21.4471C78.152 22.0291 78.2616 22.5437 78.481 22.9908C78.7087 23.4295 79.0209 23.7712 79.4174 24.0158C79.8223 24.252 80.282 24.3701 80.7966 24.3701C81.2775 24.3701 81.6993 24.2647 82.062 24.0538C82.4332 23.8344 82.72 23.5139 82.9225 23.0921H84.9598C84.6645 23.9947 84.1457 24.6991 83.4034 25.2053C82.6694 25.703 81.8047 25.9519 80.8093 25.9519C79.9657 25.9519 79.2022 25.7621 78.5189 25.3824C77.844 24.9944 77.3084 24.4587 76.9119 23.7754C76.5238 23.0921 76.3298 22.316 76.3298 21.4471ZM93.8913 17.0435L90.905 22.801V25.876H89.1334V22.801L86.1344 17.0435H88.1338L90.0319 21.0801L91.9173 17.0435H93.8913Z" fill="white"/>
</g>
</g>
</g>
<defs>
<filter id="filter0_d_1_1905" x="-4.13504" y="-4.13504" width="216.27" height="142.719" filterUnits="userSpaceOnUse" color-interpolation-filters="sRGB">
<feFlood flood-opacity="0" result="BackgroundImageFix"/>
<feColorMatrix in="SourceAlpha" type="matrix" values="0 0 0 0 0 0 0 0 0 0 0 0 0 0 0 0 0 0 127 0" result="hardAlpha"/>
<feOffset/>
<feGaussianBlur stdDeviation="2.06575"/>
<feComposite in2="hardAlpha" operator="out"/>
<feColorMatrix type="matrix" values="0 0 0 0 0.42908 0 0 0 0 0.42908 0 0 0 0 0.42908 0 0 0 0.5 0"/>
<feBlend mode="normal" in2="BackgroundImageFix" result="effect1_dropShadow_1_1905"/>
<feBlend mode="normal" in="SourceGraphic" in2="effect1_dropShadow_1_1905" result="shape"/>
</filter>
<clipPath id="clip0_1_1905">
<rect width="208" height="134.449" rx="10.3288" fill="white"/>
</clipPath>
</defs>
</svg>
