<svg width="15" height="15" viewBox="0 0 15 15" fill="none" xmlns="http://www.w3.org/2000/svg">
<path fill-rule="evenodd" clip-rule="evenodd" d="M9.22498 8.29377L12.8062 11.875L11.875 12.8063L8.29374 9.22501C7.62499 9.70626 6.81874 10 5.93749 10C3.69375 10 1.875 8.18127 1.875 5.93752C1.875 3.69378 3.69375 1.87503 5.93749 1.87503C8.18124 1.87503 9.99998 3.69378 9.99998 5.93752C9.99998 6.81877 9.70623 7.62502 9.22498 8.29377ZM5.93749 3.12503C4.38124 3.12503 3.125 4.38128 3.125 5.93752C3.125 7.49377 4.38124 8.75002 5.93749 8.75002C7.49374 8.75002 8.74998 7.49377 8.74998 5.93752C8.74998 4.38128 7.49374 3.12503 5.93749 3.12503Z" fill="#539BBB"/>
</svg>
