<svg width="22" height="21" viewBox="0 0 22 21" fill="none" xmlns="http://www.w3.org/2000/svg">
<path d="M2.28257 9.98734C2.28257 8.8696 2.79441 7.8134 3.6717 7.1208L8.69345 3.15627C10.0203 2.10874 11.8927 2.10873 13.2196 3.15626L18.2413 7.1208C19.1186 7.8134 19.6304 8.8696 19.6304 9.98734V15.9784C19.6304 17.9954 17.9953 19.6306 15.9783 19.6306H14.6087C14.1044 19.6306 13.6956 19.2218 13.6956 18.7175V15.9784C13.6956 14.9698 12.8781 14.1523 11.8695 14.1523H10.0435C9.03493 14.1523 8.21737 14.9698 8.21737 15.9784V18.7175C8.21737 19.2218 7.80858 19.6306 7.30432 19.6306H5.93476C3.91771 19.6306 2.28257 17.9954 2.28257 15.9784L2.28257 9.98734Z" stroke="#FEFEFD" stroke-width="1.34783"/>
</svg>
