<svg width="208" height="135" viewBox="0 0 208 135" fill="none" xmlns="http://www.w3.org/2000/svg">
<g filter="url(#filter0_d_1_1927)">
<g clip-path="url(#clip0_1_1927)">
<path fill-rule="evenodd" clip-rule="evenodd" d="M0 7.90875C0 3.54087 3.54087 0 7.90875 0L200.091 0C204.459 0 208 3.54087 208 7.90875V126.54C208 130.908 204.459 134.449 200.091 134.449H7.90873C3.54085 134.449 0 130.908 0 126.54L0 7.90875Z" fill="white"/>
<mask id="mask0_1_1927" style="mask-type:luminance" maskUnits="userSpaceOnUse" x="0" y="0" width="208" height="135">
<path fill-rule="evenodd" clip-rule="evenodd" d="M0 7.90875C0 3.54087 3.54087 0 7.90875 0L200.091 0C204.459 0 208 3.54087 208 7.90875V126.54C208 130.908 204.459 134.449 200.091 134.449H7.90873C3.54085 134.449 0 130.908 0 126.54L0 7.90875Z" fill="white"/>
</mask>
<g mask="url(#mask0_1_1927)">
<path opacity="0.5" d="M-1.5339 107.045L8.16142 116.048L8.54145 116.401L9.01657 116.193L21.6706 110.657L21.8151 110.594L21.9244 110.48L34.2461 97.6318L46.4394 101.201L47.2321 101.433L47.4295 100.631L59.8938 49.9947L71.7777 52.9657L72.4532 53.1346L72.7063 52.486L85.0134 20.9489L96.6743 28.237L109.229 52.5612L109.38 52.8548L109.696 52.9533L122.164 56.8497L134.68 69.3661L135.495 70.1803L135.962 69.128L148.246 41.4886L160.128 48.9147L160.482 49.1359L160.864 48.9687L173.295 43.5302L185.421 45.8038L197.892 61.3921L198.337 61.9489L198.937 61.5633L208.791 55.2288V135.24H-0.810945L-1.5339 107.045Z" fill="#FFC4C9" stroke="#FF4F52" stroke-width="1.5804"/>
<path d="M20.3412 112.226C20.3412 111.132 20.5247 110.277 20.8917 109.664C21.265 109.044 21.904 108.734 22.8088 108.734C23.7135 108.734 24.3494 109.044 24.7164 109.664C25.0897 110.277 25.2763 111.132 25.2763 112.226C25.2763 113.333 25.0897 114.2 24.7164 114.827C24.3494 115.447 23.7135 115.757 22.8088 115.757C21.904 115.757 21.265 115.447 20.8917 114.827C20.5247 114.2 20.3412 113.333 20.3412 112.226ZM24.2134 112.226C24.2134 111.714 24.1786 111.28 24.109 110.926C24.0457 110.572 23.9128 110.284 23.7104 110.062C23.5079 109.835 23.2074 109.721 22.8088 109.721C22.4102 109.721 22.1096 109.835 21.9072 110.062C21.7047 110.284 21.5687 110.572 21.4991 110.926C21.4358 111.28 21.4042 111.714 21.4042 112.226C21.4042 112.758 21.4358 113.204 21.4991 113.564C21.5623 113.925 21.6952 114.216 21.8977 114.437C22.1065 114.659 22.4102 114.77 22.8088 114.77C23.2074 114.77 23.5079 114.659 23.7104 114.437C23.9192 114.216 24.0552 113.925 24.1185 113.564C24.1817 113.204 24.2134 112.758 24.2134 112.226ZM27 115.842C26.8039 115.842 26.6394 115.776 26.5065 115.643C26.3736 115.51 26.3072 115.345 26.3072 115.149C26.3072 114.953 26.3736 114.789 26.5065 114.656C26.6394 114.523 26.8039 114.456 27 114.456C27.1898 114.456 27.3512 114.523 27.484 114.656C27.6169 114.789 27.6833 114.953 27.6833 115.149C27.6833 115.345 27.6169 115.51 27.484 115.643C27.3512 115.776 27.1898 115.842 27 115.842ZM28.7103 112.226C28.7103 111.132 28.8938 110.277 29.2607 109.664C29.634 109.044 30.2731 108.734 31.1778 108.734C32.0826 108.734 32.7185 109.044 33.0854 109.664C33.4587 110.277 33.6454 111.132 33.6454 112.226C33.6454 113.333 33.4587 114.2 33.0854 114.827C32.7185 115.447 32.0826 115.757 31.1778 115.757C30.2731 115.757 29.634 115.447 29.2607 114.827C28.8938 114.2 28.7103 113.333 28.7103 112.226ZM32.5824 112.226C32.5824 111.714 32.5476 111.28 32.478 110.926C32.4148 110.572 32.2819 110.284 32.0794 110.062C31.877 109.835 31.5764 109.721 31.1778 109.721C30.7792 109.721 30.4787 109.835 30.2762 110.062C30.0738 110.284 29.9377 110.572 29.8681 110.926C29.8049 111.28 29.7732 111.714 29.7732 112.226C29.7732 112.758 29.8049 113.204 29.8681 113.564C29.9314 113.925 30.0643 114.216 30.2667 114.437C30.4755 114.659 30.7792 114.77 31.1778 114.77C31.5764 114.77 31.877 114.659 32.0794 114.437C32.2882 114.216 32.4242 113.925 32.4875 113.564C32.5508 113.204 32.5824 112.758 32.5824 112.226ZM34.7901 112.226C34.7901 111.132 34.9736 110.277 35.3406 109.664C35.7139 109.044 36.3529 108.734 37.2577 108.734C38.1624 108.734 38.7983 109.044 39.1653 109.664C39.5386 110.277 39.7252 111.132 39.7252 112.226C39.7252 113.333 39.5386 114.2 39.1653 114.827C38.7983 115.447 38.1624 115.757 37.2577 115.757C36.3529 115.757 35.7139 115.447 35.3406 114.827C34.9736 114.2 34.7901 113.333 34.7901 112.226ZM38.6623 112.226C38.6623 111.714 38.6275 111.28 38.5579 110.926C38.4946 110.572 38.3617 110.284 38.1593 110.062C37.9568 109.835 37.6563 109.721 37.2577 109.721C36.8591 109.721 36.5585 109.835 36.3561 110.062C36.1536 110.284 36.0176 110.572 35.948 110.926C35.8847 111.28 35.8531 111.714 35.8531 112.226C35.8531 112.758 35.8847 113.204 35.948 113.564C36.0113 113.925 36.1441 114.216 36.3466 114.437C36.5554 114.659 36.8591 114.77 37.2577 114.77C37.6563 114.77 37.9568 114.659 38.1593 114.437C38.3681 114.216 38.5041 113.925 38.5674 113.564C38.6306 113.204 38.6623 112.758 38.6623 112.226ZM44.5501 109.18V113.384C44.5501 113.884 44.6798 114.26 44.9392 114.513C45.2049 114.766 45.5719 114.893 46.0401 114.893C46.5146 114.893 46.8816 114.766 47.141 114.513C47.4067 114.26 47.5396 113.884 47.5396 113.384V109.18H48.6215V113.365C48.6215 113.903 48.5045 114.358 48.2704 114.732C48.0363 115.105 47.7231 115.383 47.3308 115.567C46.9385 115.75 46.5051 115.842 46.0306 115.842C45.5561 115.842 45.1227 115.75 44.7304 115.567C44.3445 115.383 44.0376 115.105 43.8098 114.732C43.5821 114.358 43.4682 113.903 43.4682 113.365V109.18H44.5501ZM52.2035 115.842C51.7606 115.842 51.362 115.766 51.0077 115.614C50.6534 115.456 50.375 115.235 50.1725 114.95C49.9701 114.665 49.8688 114.333 49.8688 113.953H51.0267C51.052 114.238 51.1627 114.472 51.3588 114.656C51.5613 114.839 51.8429 114.931 52.2035 114.931C52.5768 114.931 52.8678 114.842 53.0766 114.665C53.2854 114.482 53.3898 114.248 53.3898 113.963C53.3898 113.742 53.3234 113.561 53.1905 113.422C53.064 113.283 52.9026 113.175 52.7065 113.099C52.5167 113.023 52.251 112.941 51.9093 112.853C51.4791 112.739 51.1279 112.625 50.8558 112.511C50.5901 112.391 50.3623 112.207 50.1725 111.96C49.9827 111.714 49.8878 111.385 49.8878 110.973C49.8878 110.594 49.9827 110.262 50.1725 109.977C50.3623 109.692 50.6281 109.474 50.9697 109.322C51.3114 109.17 51.7068 109.094 52.156 109.094C52.7951 109.094 53.317 109.256 53.722 109.578C54.1332 109.895 54.361 110.331 54.4053 110.888H53.2095C53.1905 110.648 53.0766 110.442 52.8678 110.271C52.659 110.1 52.3838 110.015 52.0422 110.015C51.7321 110.015 51.4791 110.094 51.2829 110.252C51.0868 110.41 50.9887 110.638 50.9887 110.935C50.9887 111.138 51.0488 111.306 51.169 111.438C51.2956 111.565 51.4537 111.666 51.6436 111.742C51.8334 111.818 52.0928 111.9 52.4218 111.989C52.8583 112.109 53.2127 112.229 53.4847 112.35C53.7631 112.47 53.9972 112.656 54.187 112.91C54.3831 113.156 54.4812 113.488 54.4812 113.906C54.4812 114.241 54.3895 114.558 54.206 114.855C54.0288 115.152 53.7663 115.393 53.4183 115.576C53.0766 115.753 52.6717 115.842 52.2035 115.842ZM57.9122 109.18C58.6145 109.18 59.2282 109.316 59.7533 109.588C60.2848 109.854 60.6929 110.24 60.9776 110.746C61.2687 111.246 61.4142 111.831 61.4142 112.501C61.4142 113.172 61.2687 113.754 60.9776 114.248C60.6929 114.741 60.2848 115.121 59.7533 115.387C59.2282 115.646 58.6145 115.776 57.9122 115.776H55.7578V109.18H57.9122ZM57.9122 114.893C58.6841 114.893 59.2756 114.684 59.6869 114.267C60.0982 113.849 60.3038 113.261 60.3038 112.501C60.3038 111.736 60.0982 111.138 59.6869 110.708C59.2756 110.277 58.6841 110.062 57.9122 110.062H56.8398V114.893H57.9122Z" fill="#939699"/>
<path d="M26.548 87.6332H24.3114V89.9252H23.1378V87.6332H20.9012V86.5703H23.1378V84.2783H24.3114V86.5703H26.548V87.6332ZM28.3403 86.9578C28.3403 85.6808 28.5543 84.6843 28.9824 83.9683C29.418 83.2449 30.1635 82.8832 31.219 82.8832C32.2746 82.8832 33.0164 83.2449 33.4446 83.9683C33.8801 84.6843 34.0978 85.6808 34.0978 86.9578C34.0978 88.2496 33.8801 89.2608 33.4446 89.9916C33.0164 90.715 32.2746 91.0767 31.219 91.0767C30.1635 91.0767 29.418 90.715 28.9824 89.9916C28.5543 89.2608 28.3403 88.2496 28.3403 86.9578ZM32.8577 86.9578C32.8577 86.3599 32.8171 85.8543 32.7359 85.4409C32.6621 85.0275 32.5071 84.6917 32.2709 84.4333C32.0347 84.1676 31.6841 84.0347 31.219 84.0347C30.754 84.0347 30.4034 84.1676 30.1672 84.4333C29.931 84.6917 29.7723 85.0275 29.6911 85.4409C29.6173 85.8543 29.5803 86.3599 29.5803 86.9578C29.5803 87.5779 29.6173 88.0982 29.6911 88.519C29.7649 88.9397 29.9199 89.2793 30.1561 89.5376C30.3997 89.796 30.754 89.9252 31.219 89.9252C31.6841 89.9252 32.0347 89.796 32.2709 89.5376C32.5145 89.2793 32.6732 88.9397 32.747 88.519C32.8208 88.0982 32.8577 87.5779 32.8577 86.9578ZM36.1088 91.1763C35.88 91.1763 35.6881 91.0988 35.5331 90.9438C35.3781 90.7888 35.3005 90.5969 35.3005 90.3681C35.3005 90.1392 35.3781 89.9473 35.5331 89.7923C35.6881 89.6373 35.88 89.5598 36.1088 89.5598C36.3303 89.5598 36.5185 89.6373 36.6735 89.7923C36.8285 89.9473 36.906 90.1392 36.906 90.3681C36.906 90.5969 36.8285 90.7888 36.6735 90.9438C36.5185 91.0988 36.3303 91.1763 36.1088 91.1763ZM38.1042 86.9578C38.1042 85.6808 38.3182 84.6843 38.7463 83.9683C39.1819 83.2449 39.9274 82.8832 40.9829 82.8832C42.0385 82.8832 42.7803 83.2449 43.2085 83.9683C43.644 84.6843 43.8617 85.6808 43.8617 86.9578C43.8617 88.2496 43.644 89.2608 43.2085 89.9916C42.7803 90.715 42.0385 91.0767 40.9829 91.0767C39.9274 91.0767 39.1819 90.715 38.7463 89.9916C38.3182 89.2608 38.1042 88.2496 38.1042 86.9578ZM42.6216 86.9578C42.6216 86.3599 42.581 85.8543 42.4998 85.4409C42.426 85.0275 42.271 84.6917 42.0348 84.4333C41.7986 84.1676 41.448 84.0347 40.9829 84.0347C40.5179 84.0347 40.1673 84.1676 39.9311 84.4333C39.6949 84.6917 39.5362 85.0275 39.455 85.4409C39.3812 85.8543 39.3442 86.3599 39.3442 86.9578C39.3442 87.5779 39.3812 88.0982 39.455 88.519C39.5288 88.9397 39.6838 89.2793 39.92 89.5376C40.1636 89.796 40.5179 89.9252 40.9829 89.9252C41.448 89.9252 41.7986 89.796 42.0348 89.5376C42.2784 89.2793 42.4371 88.9397 42.5109 88.519C42.5847 88.0982 42.6216 87.5779 42.6216 86.9578ZM45.1973 86.9578C45.1973 85.6808 45.4114 84.6843 45.8395 83.9683C46.275 83.2449 47.0205 82.8832 48.0761 82.8832C49.1317 82.8832 49.8735 83.2449 50.3016 83.9683C50.7371 84.6843 50.9549 85.6808 50.9549 86.9578C50.9549 88.2496 50.7371 89.2608 50.3016 89.9916C49.8735 90.715 49.1317 91.0767 48.0761 91.0767C47.0205 91.0767 46.275 90.715 45.8395 89.9916C45.4114 89.2608 45.1973 88.2496 45.1973 86.9578ZM49.7148 86.9578C49.7148 86.3599 49.6742 85.8543 49.593 85.4409C49.5192 85.0275 49.3642 84.6917 49.128 84.4333C48.8918 84.1676 48.5411 84.0347 48.0761 84.0347C47.6111 84.0347 47.2604 84.1676 47.0242 84.4333C46.788 84.6917 46.6293 85.0275 46.5481 85.4409C46.4743 85.8543 46.4374 86.3599 46.4374 86.9578C46.4374 87.5779 46.4743 88.0982 46.5481 88.519C46.6219 88.9397 46.777 89.2793 47.0132 89.5376C47.2568 89.796 47.6111 89.9252 48.0761 89.9252C48.5411 89.9252 48.8918 89.796 49.128 89.5376C49.3715 89.2793 49.5303 88.9397 49.6041 88.519C49.6779 88.0982 49.7148 87.5779 49.7148 86.9578ZM52.1244 84.1787V83.0272H54.4274V91.0988H53.1541V84.1787H52.1244ZM61.3654 84.1122H57.6562V86.3156C57.8112 86.1089 58.04 85.9355 58.3427 85.7952C58.6527 85.655 58.9812 85.5849 59.3281 85.5849C59.9481 85.5849 60.4501 85.7177 60.8339 85.9835C61.2251 86.2492 61.5019 86.585 61.6643 86.991C61.8341 87.397 61.919 87.8251 61.919 88.2754C61.919 88.8216 61.812 89.3088 61.5979 89.7369C61.3912 90.1577 61.0775 90.4899 60.6568 90.7334C60.2434 90.977 59.7341 91.0988 59.1288 91.0988C58.3242 91.0988 57.6783 90.8995 57.1911 90.5009C56.704 90.1023 56.4124 89.5745 56.3164 88.9176H57.5455C57.6267 89.2645 57.8075 89.5413 58.088 89.748C58.3685 89.9473 58.7191 90.047 59.1399 90.047C59.6639 90.047 60.0552 89.8883 60.3135 89.5709C60.5793 89.2535 60.7121 88.8327 60.7121 88.3086C60.7121 87.7772 60.5793 87.3712 60.3135 87.0907C60.0478 86.8028 59.6566 86.6589 59.1399 86.6589C58.7782 86.6589 58.4718 86.7511 58.2209 86.9357C57.9773 87.1128 57.8001 87.3564 57.6894 87.6664H56.4936V83.005H61.3654V84.1122ZM69.0654 93.1583C68.3421 92.4644 67.7847 91.5823 67.3935 90.512C67.0097 89.4417 66.8178 88.2939 66.8178 87.0685C66.8178 85.8137 67.0245 84.6289 67.4378 83.5143C67.8586 82.3997 68.4749 81.4807 69.2869 80.7574H70.5934V80.8791C69.7445 81.6616 69.106 82.599 68.6779 83.6915C68.2498 84.784 68.0357 85.9096 68.0357 87.0685C68.0357 88.1831 68.235 89.2608 68.6336 90.3016C69.0322 91.3424 69.6117 92.254 70.372 93.0365V93.1583H69.0654ZM77.6706 87.6332H75.4341V89.9252H74.2604V87.6332H72.0238V86.5703H74.2604V84.2783H75.4341V86.5703H77.6706V87.6332ZM79.4629 86.9578C79.4629 85.6808 79.6769 84.6843 80.1051 83.9683C80.5406 83.2449 81.2861 82.8832 82.3417 82.8832C83.3972 82.8832 84.1391 83.2449 84.5672 83.9683C85.0027 84.6843 85.2204 85.6808 85.2204 86.9578C85.2204 88.2496 85.0027 89.2608 84.5672 89.9916C84.1391 90.715 83.3972 91.0767 82.3417 91.0767C81.2861 91.0767 80.5406 90.715 80.1051 89.9916C79.6769 89.2608 79.4629 88.2496 79.4629 86.9578ZM83.9804 86.9578C83.9804 86.3599 83.9398 85.8543 83.8586 85.4409C83.7847 85.0275 83.6297 84.6917 83.3935 84.4333C83.1573 84.1676 82.8067 84.0347 82.3417 84.0347C81.8766 84.0347 81.526 84.1676 81.2898 84.4333C81.0536 84.6917 80.8949 85.0275 80.8137 85.4409C80.7399 85.8543 80.703 86.3599 80.703 86.9578C80.703 87.5779 80.7399 88.0982 80.8137 88.519C80.8875 88.9397 81.0425 89.2793 81.2787 89.5376C81.5223 89.796 81.8766 89.9252 82.3417 89.9252C82.8067 89.9252 83.1573 89.796 83.3935 89.5376C83.6371 89.2793 83.7958 88.9397 83.8696 88.519C83.9434 88.0982 83.9804 87.5779 83.9804 86.9578ZM87.2314 91.1763C87.0026 91.1763 86.8107 91.0988 86.6557 90.9438C86.5007 90.7888 86.4232 90.5969 86.4232 90.3681C86.4232 90.1392 86.5007 89.9473 86.6557 89.7923C86.8107 89.6373 87.0026 89.5598 87.2314 89.5598C87.4529 89.5598 87.6411 89.6373 87.7961 89.7923C87.9511 89.9473 88.0286 90.1392 88.0286 90.3681C88.0286 90.5969 87.9511 90.7888 87.7961 90.9438C87.6411 91.0988 87.4529 91.1763 87.2314 91.1763ZM89.0607 84.1787V83.0272H91.3637V91.0988H90.0904V84.1787H89.0607ZM93.0756 85.0202C93.1199 84.3337 93.3819 83.7985 93.8617 83.4147C94.3489 83.0309 94.969 82.8389 95.7219 82.8389C96.2386 82.8389 96.6852 82.9312 97.0616 83.1157C97.4381 83.3003 97.7223 83.5512 97.9142 83.8687C98.1061 84.1861 98.202 84.5441 98.202 84.9427C98.202 85.4003 98.0803 85.7915 97.8367 86.1163C97.5931 86.4411 97.3015 86.6589 96.962 86.7696V86.8139C97.3975 86.9467 97.737 87.1903 97.9806 87.5446C98.2242 87.8916 98.346 88.3381 98.346 88.8844C98.346 89.3199 98.2463 89.7074 98.047 90.047C97.8477 90.3865 97.5525 90.6559 97.1613 90.8552C96.77 91.0472 96.3013 91.1431 95.7551 91.1431C94.9579 91.1431 94.3009 90.9401 93.7842 90.5341C93.2749 90.1208 93.0018 89.5303 92.9649 88.7626H94.1828C94.2123 89.1538 94.3637 89.4749 94.6368 89.7259C94.9099 89.9695 95.279 90.0913 95.744 90.0913C96.1943 90.0913 96.5412 89.9695 96.7848 89.7259C97.0284 89.4749 97.1502 89.1538 97.1502 88.7626C97.1502 88.2459 96.9841 87.8805 96.6519 87.6664C96.3271 87.445 95.8252 87.3343 95.1461 87.3343H94.8582V86.2935H95.1572C95.7551 86.2861 96.209 86.1864 96.5191 85.9945C96.8365 85.8026 96.9952 85.5 96.9952 85.0866C96.9952 84.7323 96.8808 84.4518 96.6519 84.2451C96.4231 84.031 96.0983 83.924 95.6776 83.924C95.2642 83.924 94.9431 84.031 94.7143 84.2451C94.4855 84.4518 94.3489 84.7101 94.3046 85.0202H93.0756ZM99.4726 84.9759C99.4726 84.437 99.6276 84.0163 99.9376 83.7136C100.255 83.4036 100.661 83.2486 101.156 83.2486C101.65 83.2486 102.052 83.4036 102.362 83.7136C102.68 84.0163 102.839 84.437 102.839 84.9759C102.839 85.5147 102.68 85.9392 102.362 86.2492C102.052 86.5592 101.65 86.7142 101.156 86.7142C100.661 86.7142 100.255 86.5592 99.9376 86.2492C99.6276 85.9392 99.4726 85.5147 99.4726 84.9759ZM106.227 83.3925L101.809 91.0988H100.569L104.987 83.3925H106.227ZM101.156 84.0126C100.691 84.0126 100.458 84.3337 100.458 84.9759C100.458 85.6254 100.691 85.9502 101.156 85.9502C101.377 85.9502 101.547 85.8727 101.665 85.7177C101.79 85.5553 101.853 85.308 101.853 84.9759C101.853 84.3337 101.621 84.0126 101.156 84.0126ZM103.979 89.5044C103.979 88.9656 104.134 88.5448 104.444 88.2422C104.761 87.9322 105.167 87.7772 105.662 87.7772C106.149 87.7772 106.548 87.9322 106.858 88.2422C107.175 88.5448 107.334 88.9656 107.334 89.5044C107.334 90.0433 107.175 90.4677 106.858 90.7777C106.548 91.0878 106.149 91.2428 105.662 91.2428C105.167 91.2428 104.761 91.0878 104.444 90.7777C104.134 90.4677 103.979 90.0433 103.979 89.5044ZM105.651 88.5411C105.186 88.5411 104.953 88.8622 104.953 89.5044C104.953 90.1466 105.186 90.4677 105.651 90.4677C106.116 90.4677 106.348 90.1466 106.348 89.5044C106.348 88.8622 106.116 88.5411 105.651 88.5411ZM108.319 93.1583V93.0365C109.079 92.254 109.658 91.3424 110.057 90.3016C110.456 89.2608 110.655 88.1831 110.655 87.0685C110.655 85.9096 110.441 84.784 110.013 83.6915C109.585 82.599 108.946 81.6616 108.097 80.8791V80.7574H109.404C110.216 81.4807 110.828 82.3997 111.242 83.5143C111.663 84.6289 111.873 85.8137 111.873 87.0685C111.873 88.2939 111.677 89.4417 111.286 90.512C110.902 91.5823 110.349 92.4644 109.625 93.1583H108.319Z" fill="#4B5157"/>
<path fill-rule="evenodd" clip-rule="evenodd" d="M99.6098 67.2253H93.3634C93.1227 67.2253 92.9277 67.0234 92.9277 66.7743C92.9277 66.6878 92.9517 66.6031 92.9969 66.5304L96.1201 61.5009C96.2502 61.2914 96.5198 61.2307 96.7222 61.3654C96.7747 61.4004 96.8193 61.4466 96.8531 61.5009L99.9763 66.5304C100.106 66.7399 100.048 67.019 99.8454 67.1537C99.7751 67.2004 99.6933 67.2253 99.6098 67.2253Z" fill="#262D33"/>
<path d="M20.8395 58.5971V56.1296H25.7745V73.426H23.046V58.5971H20.8395ZM30.9376 73.5921C30.4473 73.5921 30.036 73.426 29.7038 73.0939C29.3717 72.7617 29.2056 72.3504 29.2056 71.8601C29.2056 71.3698 29.3717 70.9585 29.7038 70.6263C30.036 70.2942 30.4473 70.1281 30.9376 70.1281C31.4121 70.1281 31.8155 70.2942 32.1476 70.6263C32.4798 70.9585 32.6459 71.3698 32.6459 71.8601C32.6459 72.3504 32.4798 72.7617 32.1476 73.0939C31.8155 73.426 31.4121 73.5921 30.9376 73.5921ZM34.8574 58.5971V56.1296H39.7925V73.426H37.064V58.5971H34.8574ZM54.4698 58.2175L47.8739 73.426H45.1454L51.8124 58.5022H43.0337V56.2008H54.4698V58.2175ZM66.0854 60.1393C65.9114 59.4117 65.5951 58.866 65.1364 58.5022C64.6777 58.1384 64.0371 57.9565 63.2145 57.9565C61.965 57.9565 61.0317 58.439 60.4149 59.4038C59.798 60.3529 59.4737 61.9346 59.4421 64.1491C59.8533 63.4531 60.4544 62.9153 61.2453 62.5357C62.0361 62.1561 62.8903 61.9663 63.8077 61.9663C64.8517 61.9663 65.7691 62.1956 66.5599 62.6543C67.3666 63.0972 67.9914 63.7457 68.4343 64.5999C68.893 65.454 69.1224 66.4742 69.1224 67.6606C69.1224 68.7678 68.9009 69.7564 68.458 70.6263C68.031 71.4963 67.3904 72.1844 66.5362 72.6905C65.6821 73.1809 64.6539 73.426 63.4518 73.426C61.8226 73.426 60.5414 73.0701 59.6082 72.3584C58.6907 71.6308 58.0422 70.6105 57.6626 69.2977C57.2988 67.9848 57.1169 66.3477 57.1169 64.3863C57.1169 58.5971 59.1574 55.7025 63.2383 55.7025C64.82 55.7025 66.0617 56.1296 66.9633 56.9838C67.8807 57.8379 68.4185 58.8898 68.5767 60.1393H66.0854ZM63.2145 64.244C62.2497 64.244 61.4272 64.5366 60.747 65.1219C60.0827 65.6913 59.7505 66.5217 59.7505 67.6131C59.7505 68.7045 60.059 69.5745 60.6758 70.223C61.3085 70.8557 62.1864 71.172 63.3095 71.172C64.306 71.172 65.0889 70.8636 65.6583 70.2467C66.2436 69.6298 66.5362 68.8073 66.5362 67.7792C66.5362 66.7036 66.2515 65.8495 65.6821 65.2168C65.1285 64.5682 64.306 64.244 63.2145 64.244ZM71.9601 60.4003C72.055 58.9293 72.6165 57.7825 73.6446 56.96C74.6886 56.1375 76.0173 55.7263 77.6306 55.7263C78.7379 55.7263 79.6948 55.924 80.5015 56.3194C81.3082 56.7149 81.9172 57.2527 82.3284 57.9328C82.7397 58.613 82.9453 59.3801 82.9453 60.2342C82.9453 61.2149 82.6843 62.0533 82.1624 62.7492C81.6404 63.4452 81.0156 63.9118 80.288 64.1491V64.244C81.2212 64.5287 81.9488 65.0507 82.4708 65.8099C82.9928 66.5533 83.2538 67.5103 83.2538 68.6808C83.2538 69.614 83.0402 70.4444 82.6132 71.172C82.1861 71.8996 81.5534 72.477 80.7151 72.9041C79.8767 73.3153 78.8723 73.5209 77.7018 73.5209C75.9935 73.5209 74.5858 73.086 73.4786 72.216C72.3872 71.3302 71.8019 70.0648 71.7228 68.4198H74.3327C74.396 69.2581 74.7202 69.9462 75.3055 70.484C75.8907 71.006 76.6816 71.2669 77.6781 71.2669C78.643 71.2669 79.3864 71.006 79.9084 70.484C80.4303 69.9462 80.6913 69.2581 80.6913 68.4198C80.6913 67.3126 80.3354 66.5296 79.6237 66.0709C78.9277 65.5964 77.8521 65.3591 76.3969 65.3591H75.78V63.1289H76.4206C77.7018 63.113 78.6746 62.8995 79.3389 62.4882C80.0191 62.077 80.3592 61.4285 80.3592 60.5427C80.3592 59.7835 80.114 59.1824 79.6237 58.7395C79.1333 58.2808 78.4373 58.0514 77.5357 58.0514C76.65 58.0514 75.9619 58.2808 75.4716 58.7395C74.9812 59.1824 74.6886 59.736 74.5937 60.4003H71.9601Z" fill="#262D33"/>
<path d="M21.5655 39.7692H23.7958V40.6423H20.4836V34.0464H21.5655V39.7692ZM26.9688 40.7277C26.4753 40.7277 26.0292 40.617 25.6306 40.3956C25.232 40.1678 24.9188 39.8515 24.6911 39.4465C24.4633 39.0353 24.3494 38.5608 24.3494 38.023C24.3494 37.4915 24.4665 37.0201 24.7006 36.6089C24.9347 36.1976 25.2542 35.8813 25.6591 35.6598C26.064 35.4384 26.5164 35.3277 27.0162 35.3277C27.5161 35.3277 27.9685 35.4384 28.3734 35.6598C28.7783 35.8813 29.0978 36.1976 29.3319 36.6089C29.566 37.0201 29.6831 37.4915 29.6831 38.023C29.6831 38.5544 29.5629 39.0258 29.3224 39.437C29.082 39.8483 28.753 40.1678 28.3354 40.3956C27.9242 40.617 27.4686 40.7277 26.9688 40.7277ZM26.9688 39.7882C27.2472 39.7882 27.5066 39.7218 27.747 39.5889C27.9938 39.456 28.1931 39.2567 28.3449 38.991C28.4968 38.7253 28.5727 38.4026 28.5727 38.023C28.5727 37.6433 28.4999 37.3238 28.3544 37.0644C28.2089 36.7987 28.0159 36.5994 27.7755 36.4665C27.5351 36.3337 27.2757 36.2672 26.9973 36.2672C26.7189 36.2672 26.4595 36.3337 26.219 36.4665C25.9849 36.5994 25.7983 36.7987 25.6591 37.0644C25.5199 37.3238 25.4503 37.6433 25.4503 38.023C25.4503 38.5861 25.5927 39.0226 25.8774 39.3326C26.1684 39.6363 26.5322 39.7882 26.9688 39.7882ZM31.8345 36.1723C31.9927 35.9066 32.2015 35.701 32.4609 35.5554C32.7266 35.4036 33.0398 35.3277 33.4005 35.3277V36.4475H33.1252C32.7013 36.4475 32.3786 36.5551 32.1572 36.7702C31.9421 36.9853 31.8345 37.3586 31.8345 37.8901V40.6423H30.7526V35.4131H31.8345V36.1723ZM39.1877 37.8996C39.1877 38.0957 39.175 38.2729 39.1497 38.431H35.1542C35.1858 38.8486 35.3408 39.184 35.6192 39.437C35.8976 39.6901 36.2393 39.8167 36.6442 39.8167C37.2263 39.8167 37.6375 39.5731 37.878 39.0859H39.0453C38.8871 39.5667 38.5992 39.9622 38.1817 40.2722C37.7704 40.5759 37.2579 40.7277 36.6442 40.7277C36.1444 40.7277 35.6952 40.617 35.2966 40.3956C34.9043 40.1678 34.5943 39.8515 34.3665 39.4465C34.145 39.0353 34.0343 38.5608 34.0343 38.023C34.0343 37.4852 34.1419 37.0138 34.357 36.6089C34.5784 36.1976 34.8853 35.8813 35.2776 35.6598C35.6762 35.4384 36.1317 35.3277 36.6442 35.3277C37.1377 35.3277 37.5774 35.4352 37.9634 35.6503C38.3493 35.8655 38.6499 36.1691 38.865 36.5614C39.0801 36.9474 39.1877 37.3934 39.1877 37.8996ZM38.0583 37.5579C38.052 37.1593 37.9096 36.8398 37.6312 36.5994C37.3528 36.359 37.008 36.2387 36.5968 36.2387C36.2235 36.2387 35.9039 36.359 35.6382 36.5994C35.3725 36.8335 35.2143 37.153 35.1637 37.5579H38.0583ZM46.5825 35.3277C46.9938 35.3277 47.3608 35.4131 47.6834 35.5839C48.0124 35.7547 48.2687 36.0078 48.4522 36.3431C48.642 36.6785 48.7369 37.0834 48.7369 37.5579V40.6423H47.6644V37.7193C47.6644 37.2511 47.5474 36.8936 47.3133 36.6468C47.0792 36.3938 46.7597 36.2672 46.3548 36.2672C45.9498 36.2672 45.6272 36.3938 45.3867 36.6468C45.1526 36.8936 45.0356 37.2511 45.0356 37.7193V40.6423H43.9632V37.7193C43.9632 37.2511 43.8461 36.8936 43.612 36.6468C43.3779 36.3938 43.0584 36.2672 42.6535 36.2672C42.2485 36.2672 41.9259 36.3938 41.6854 36.6468C41.4513 36.8936 41.3343 37.2511 41.3343 37.7193V40.6423H40.2524V35.4131H41.3343V36.011C41.5114 35.7959 41.7361 35.6282 42.0081 35.508C42.2802 35.3878 42.5712 35.3277 42.8812 35.3277C43.2988 35.3277 43.6721 35.4162 44.0011 35.5934C44.3301 35.7705 44.5832 36.0268 44.7604 36.3621C44.9185 36.0458 45.1653 35.7959 45.5006 35.6124C45.8359 35.4226 46.1966 35.3277 46.5825 35.3277ZM53.6608 34.0464V40.6423H52.5789V34.0464H53.6608ZM56.1632 36.1818C56.3467 35.9414 56.5966 35.7389 56.9129 35.5744C57.2293 35.4099 57.5868 35.3277 57.9854 35.3277C58.4409 35.3277 58.8553 35.4415 59.2286 35.6693C59.6082 35.8908 59.9056 36.2039 60.1207 36.6089C60.3358 37.0138 60.4434 37.4788 60.4434 38.004C60.4434 38.5291 60.3358 39.0005 60.1207 39.4181C59.9056 39.8293 59.6082 40.152 59.2286 40.3861C58.8553 40.6139 58.4409 40.7277 57.9854 40.7277C57.5868 40.7277 57.2324 40.6487 56.9224 40.4905C56.6124 40.326 56.3593 40.1235 56.1632 39.8831V43.1288H55.0813V35.4131H56.1632V36.1818ZM59.3425 38.004C59.3425 37.6433 59.2666 37.3333 59.1147 37.0739C58.9692 36.8082 58.7731 36.6089 58.5263 36.476C58.2859 36.3368 58.0265 36.2672 57.7481 36.2672C57.476 36.2672 57.2166 36.3368 56.9699 36.476C56.7295 36.6152 56.5333 36.8177 56.3815 37.0834C56.2359 37.3491 56.1632 37.6623 56.1632 38.023C56.1632 38.3836 56.2359 38.6999 56.3815 38.972C56.5333 39.2377 56.7295 39.4402 56.9699 39.5794C57.2166 39.7186 57.476 39.7882 57.7481 39.7882C58.0265 39.7882 58.2859 39.7186 58.5263 39.5794C58.7731 39.4339 58.9692 39.2251 59.1147 38.953C59.2666 38.681 59.3425 38.3646 59.3425 38.004ZM63.4114 40.7277C63.0001 40.7277 62.63 40.655 62.301 40.5095C61.9783 40.3576 61.7221 40.1552 61.5323 39.9021C61.3425 39.6427 61.2412 39.3548 61.2286 39.0384H62.3485C62.3674 39.2599 62.4718 39.4465 62.6617 39.5984C62.8578 39.7439 63.1014 39.8167 63.3924 39.8167C63.6961 39.8167 63.9302 39.7597 64.0947 39.6458C64.2655 39.5256 64.351 39.3738 64.351 39.1903C64.351 38.9942 64.2561 38.8486 64.0662 38.7537C63.8828 38.6588 63.5886 38.5544 63.1836 38.4405C62.7914 38.333 62.4718 38.2286 62.2251 38.1274C61.9783 38.0261 61.7632 37.8711 61.5797 37.6623C61.4026 37.4535 61.314 37.1783 61.314 36.8366C61.314 36.5583 61.3963 36.3052 61.5608 36.0774C61.7253 35.8433 61.9594 35.6598 62.2631 35.527C62.5731 35.3941 62.9274 35.3277 63.326 35.3277C63.9207 35.3277 64.3984 35.4795 64.7591 35.7832C65.126 36.0806 65.3222 36.4887 65.3475 37.0075H64.2655C64.2466 36.7734 64.1517 36.5867 63.9808 36.4475C63.81 36.3083 63.5791 36.2387 63.288 36.2387C63.0033 36.2387 62.785 36.2925 62.6332 36.4001C62.4813 36.5076 62.4054 36.65 62.4054 36.8272C62.4054 36.9663 62.456 37.0834 62.5573 37.1783C62.6585 37.2732 62.7819 37.3491 62.9274 37.4061C63.0729 37.4567 63.288 37.5231 63.5727 37.6054C63.9524 37.7066 64.2624 37.811 64.5028 37.9186C64.7496 38.0198 64.9615 38.1716 65.1387 38.3741C65.3158 38.5766 65.4076 38.8455 65.4139 39.1808C65.4139 39.4782 65.3316 39.7439 65.1671 39.978C65.0026 40.2121 64.7685 40.3956 64.4648 40.5284C64.1675 40.6613 63.8163 40.7277 63.4114 40.7277ZM71.3187 35.4131V40.6423H70.2368V40.0255C70.0659 40.2406 69.8413 40.4114 69.5629 40.5379C69.2909 40.6582 68.9998 40.7183 68.6898 40.7183C68.2786 40.7183 67.9084 40.6328 67.5794 40.462C67.2568 40.2912 67.0005 40.0381 66.8107 39.7028C66.6272 39.3674 66.5355 38.9625 66.5355 38.488V35.4131H67.6079V38.3267C67.6079 38.7949 67.725 39.1555 67.9591 39.4086C68.1932 39.6553 68.5127 39.7787 68.9176 39.7787C69.3225 39.7787 69.642 39.6553 69.8761 39.4086C70.1166 39.1555 70.2368 38.7949 70.2368 38.3267V35.4131H71.3187ZM79.0764 35.3277C79.4876 35.3277 79.8546 35.4131 80.1772 35.5839C80.5063 35.7547 80.7625 36.0078 80.946 36.3431C81.1358 36.6785 81.2307 37.0834 81.2307 37.5579V40.6423H80.1583V37.7193C80.1583 37.2511 80.0412 36.8936 79.8071 36.6468C79.573 36.3938 79.2535 36.2672 78.8486 36.2672C78.4437 36.2672 78.121 36.3938 77.8805 36.6468C77.6465 36.8936 77.5294 37.2511 77.5294 37.7193V40.6423H76.457V37.7193C76.457 37.2511 76.3399 36.8936 76.1058 36.6468C75.8717 36.3938 75.5522 36.2672 75.1473 36.2672C74.7424 36.2672 74.4197 36.3938 74.1793 36.6468C73.9452 36.8936 73.8281 37.2511 73.8281 37.7193V40.6423H72.7462V35.4131H73.8281V36.011C74.0053 35.7959 74.2299 35.6282 74.5019 35.508C74.774 35.3878 75.065 35.3277 75.3751 35.3277C75.7926 35.3277 76.1659 35.4162 76.4949 35.5934C76.8239 35.7705 77.077 36.0268 77.2542 36.3621C77.4124 36.0458 77.6591 35.7959 77.9944 35.6124C78.3298 35.4226 78.6904 35.3277 79.0764 35.3277Z" fill="#939699"/>
<path d="M26.6556 17.0435V18.4734H24.3019V25.876H22.5304V18.4734H20.1767V17.0435H26.6556ZM30.1152 18.4734V20.6878H33.0889V22.0924H30.1152V24.4334H33.4685V25.876H28.3436V17.0308H33.4685V18.4734H30.1152ZM35.0436 21.4471C35.0436 20.5781 35.2376 19.802 35.6257 19.1187C36.0222 18.427 36.5579 17.8913 37.2327 17.5117C37.9161 17.1236 38.6795 16.9296 39.5231 16.9296C40.5101 16.9296 41.3748 17.1827 42.1172 17.6888C42.8595 18.195 43.3784 18.8952 43.6736 19.7894H41.6363C41.4339 19.3676 41.147 19.0512 40.7759 18.8403C40.4131 18.6294 39.9913 18.524 39.5105 18.524C38.9959 18.524 38.5361 18.6463 38.1312 18.891C37.7347 19.1272 37.4225 19.4646 37.1948 19.9033C36.9754 20.3419 36.8658 20.8565 36.8658 21.4471C36.8658 22.0291 36.9754 22.5437 37.1948 22.9908C37.4225 23.4295 37.7347 23.7712 38.1312 24.0158C38.5361 24.252 38.9959 24.3701 39.5105 24.3701C39.9913 24.3701 40.4131 24.2647 40.7759 24.0538C41.147 23.8344 41.4339 23.5139 41.6363 23.0921H43.6736C43.3784 23.9947 42.8595 24.6991 42.1172 25.2053C41.3832 25.703 40.5186 25.9519 39.5231 25.9519C38.6795 25.9519 37.9161 25.7621 37.2327 25.3824C36.5579 24.9944 36.0222 24.4587 35.6257 23.7754C35.2376 23.0921 35.0436 22.316 35.0436 21.4471ZM52.9089 17.0435V25.876H51.1373V22.1177H47.3538V25.876H45.5822V17.0435H47.3538V20.6752H51.1373V17.0435H52.9089ZM61.5462 17.0435C62.4742 17.0435 63.2882 17.2248 63.9884 17.5876C64.697 17.9503 65.2412 18.4692 65.6208 19.144C66.0088 19.8105 66.2029 20.5866 66.2029 21.4724C66.2029 22.3581 66.0088 23.1343 65.6208 23.8007C65.2412 24.4587 64.697 24.9691 63.9884 25.3318C63.2882 25.6946 62.4742 25.876 61.5462 25.876H58.4586V17.0435H61.5462ZM61.4829 24.3701C62.4109 24.3701 63.1279 24.117 63.6341 23.6109C64.1403 23.1047 64.3933 22.3919 64.3933 21.4724C64.3933 20.5528 64.1403 19.8358 63.6341 19.3212C63.1279 18.7982 62.4109 18.5366 61.4829 18.5366H60.2302V24.3701H61.4829ZM69.696 18.4734V20.6878H72.6696V22.0924H69.696V24.4334H73.0493V25.876H67.9244V17.0308H73.0493V18.4734H69.696ZM80.0656 21.3458C80.5633 21.4386 80.9725 21.6875 81.293 22.0924C81.6136 22.4973 81.7739 22.9613 81.7739 23.4844C81.7739 23.9568 81.6558 24.3743 81.4196 24.7371C81.1918 25.0914 80.8586 25.3698 80.4199 25.5723C79.9813 25.7747 79.4624 25.876 78.8635 25.876H75.0546V17.0435H78.699C79.2979 17.0435 79.8125 17.1405 80.2428 17.3345C80.6814 17.5285 81.0104 17.7985 81.2298 18.1444C81.4575 18.4902 81.5714 18.8825 81.5714 19.3212C81.5714 19.8358 81.4322 20.266 81.1539 20.6119C80.8839 20.9578 80.5212 21.2024 80.0656 21.3458ZM76.8262 20.6878H78.4459C78.8677 20.6878 79.1925 20.595 79.4203 20.4094C79.648 20.2154 79.7619 19.9412 79.7619 19.5869C79.7619 19.2326 79.648 18.9584 79.4203 18.7644C79.1925 18.5704 78.8677 18.4734 78.4459 18.4734H76.8262V20.6878ZM78.6104 24.4334C79.0406 24.4334 79.3739 24.3322 79.6101 24.1297C79.8547 23.9272 79.977 23.6404 79.977 23.2692C79.977 22.8896 79.8505 22.5944 79.5974 22.3835C79.3443 22.1641 79.0027 22.0544 78.5724 22.0544H76.8262V24.4334H78.6104ZM89.5919 17.0435V18.4734H87.2383V25.876H85.4667V18.4734H83.113V17.0435H89.5919Z" fill="#262D33"/>
</g>
</g>
</g>
<defs>
<filter id="filter0_d_1_1927" x="-4.13504" y="-4.13504" width="216.27" height="142.719" filterUnits="userSpaceOnUse" color-interpolation-filters="sRGB">
<feFlood flood-opacity="0" result="BackgroundImageFix"/>
<feColorMatrix in="SourceAlpha" type="matrix" values="0 0 0 0 0 0 0 0 0 0 0 0 0 0 0 0 0 0 127 0" result="hardAlpha"/>
<feOffset/>
<feGaussianBlur stdDeviation="2.06575"/>
<feComposite in2="hardAlpha" operator="out"/>
<feColorMatrix type="matrix" values="0 0 0 0 0.42908 0 0 0 0 0.42908 0 0 0 0 0.42908 0 0 0 0.5 0"/>
<feBlend mode="normal" in2="BackgroundImageFix" result="effect1_dropShadow_1_1927"/>
<feBlend mode="normal" in="SourceGraphic" in2="effect1_dropShadow_1_1927" result="shape"/>
</filter>
<clipPath id="clip0_1_1927">
<rect width="208" height="134.449" rx="10.3288" fill="white"/>
</clipPath>
</defs>
</svg>
